<?xml version="1.0" encoding="UTF-8" standalone="no"?>
<!-- This is a Stata 17.0 generated SVG file (http://www.stata.com) -->

<svg version="1.1" width="5.500in" height="4.000in" viewBox="0 0 3960 2880" xmlns="http://www.w3.org/2000/svg" xmlns:xlink="http://www.w3.org/1999/xlink">
	<desc>Stata Graph - Graph</desc>
	<rect x="0" y="0" width="3960" height="2880" style="fill:#EAF2F3;stroke:none"/>
	<rect x="0.00" y="0.00" width="3959.88" height="2880.00" style="fill:#EAF2F3"/>
	<rect x="2.88" y="2.88" width="3954.12" height="2874.24" style="fill:none;stroke:#EAF2F3;stroke-width:5.76"/>
	<rect x="335.12" y="275.35" width="3523.91" height="1958.28" style="fill:#FFFFFF"/>
	<rect x="337.99" y="278.23" width="3518.15" height="1952.52" style="fill:none;stroke:#FFFFFF;stroke-width:5.76"/>
	<line x1="335.12" y1="2170.27" x2="3859.02" y2="2170.27" style="stroke:#EAF2F3;stroke-width:8.64"/>
	<line x1="335.12" y1="1987.12" x2="3859.02" y2="1987.12" style="stroke:#EAF2F3;stroke-width:8.64"/>
	<line x1="335.12" y1="1803.96" x2="3859.02" y2="1803.96" style="stroke:#EAF2F3;stroke-width:8.64"/>
	<line x1="335.12" y1="1620.80" x2="3859.02" y2="1620.80" style="stroke:#EAF2F3;stroke-width:8.64"/>
	<line x1="335.12" y1="1437.65" x2="3859.02" y2="1437.65" style="stroke:#EAF2F3;stroke-width:8.64"/>
	<line x1="335.12" y1="1254.49" x2="3859.02" y2="1254.49" style="stroke:#EAF2F3;stroke-width:8.64"/>
	<line x1="335.12" y1="1071.34" x2="3859.02" y2="1071.34" style="stroke:#EAF2F3;stroke-width:8.64"/>
	<line x1="335.12" y1="888.18" x2="3859.02" y2="888.18" style="stroke:#EAF2F3;stroke-width:8.64"/>
	<line x1="335.12" y1="705.03" x2="3859.02" y2="705.03" style="stroke:#EAF2F3;stroke-width:8.64"/>
	<line x1="335.12" y1="521.87" x2="3859.02" y2="521.87" style="stroke:#EAF2F3;stroke-width:8.64"/>
	<path d=" M398.48 2170.40 L398.48 2170.40 L398.48 2170.40 L403.18 2170.40 L403.18 2170.40 L426.32 2170.40 L426.32 2170.40 L431.02 2170.40 L431.02 2170.40 L491.54 2170.40 L491.54 2170.40 L496.11 2170.40 L496.11 2170.40 L510.10 2170.40 L510.10 2170.40 L537.94 2170.40 L537.94 2170.40 L561.21 2170.40 L561.21 2116.19 L621.72 2116.19 L621.72 2116.19 L635.70 2116.19 L635.70 2061.74 L640.28 2061.74 L640.28 2061.74 L649.56 2061.74 L649.56 2006.79 L658.85 2006.79 L658.85 2006.79 L742.62 2006.79 L742.62 2006.79 L798.44 2006.79 L798.44 1951.35 L844.97 1951.35 L844.97 1951.35 L854.25 1951.35 L854.25 1951.35 L868.23 1951.35 L868.23 1951.35 L872.81 1951.35 L872.81 1951.35 L933.32 1951.35 L933.32 1951.35 L951.89 1951.35 L951.89 1951.35 L956.59 1951.35 L956.59 1951.35 L965.87 1951.35 L965.87 1951.35 L1026.26 1951.35 L1026.26 1951.35 L1035.54 1951.35 L1035.54 1951.35 L1063.51 1951.35 L1063.51 1951.35 L1077.49 1951.35 L1077.49 1951.35 L1114.62 1951.35 L1114.62 1951.35 L1137.88 1951.35 L1137.88 1951.35 L1207.68 1951.35 L1207.68 1951.35 L1212.26 1951.35 L1212.26 1951.35 L1216.96 1951.35 L1216.96 1951.35 L1240.22 1951.35 L1240.22 1951.35 L1258.79 1951.35 L1258.79 1951.35 L1268.07 1951.35 L1268.07 1951.35 L1272.77 1951.35 L1272.77 1951.35 L1305.32 1951.35 L1305.32 1951.35 L1310.02 1951.35 L1310.02 1951.35 L1337.86 1951.35 L1337.86 1951.35 L1361.13 1951.35 L1361.13 1951.35 L1365.83 1951.35 L1365.83 1951.35 L1393.67 1951.35 L1393.67 1951.35 L1407.66 1951.35 L1407.66 1951.35 L1416.94 1951.35 L1416.94 1951.35 L1421.64 1951.35 L1421.64 1951.35 L1430.92 1951.35 L1430.92 1951.35 L1444.78 1951.35 L1444.78 1951.35 L1463.47 1951.35 L1463.47 1951.35 L1491.31 1951.35 L1491.31 1951.35 L1505.30 1951.35 L1505.30 1951.35 L1528.56 1951.35 L1528.56 1951.35 L1561.11 1951.35 L1561.11 1951.35 L1579.67 1951.35 L1579.67 1951.35 L1588.95 1951.35 L1588.95 1951.35 L1593.65 1951.35 L1593.65 1951.35 L1640.18 1951.35 L1640.18 1951.35 L1654.17 1951.35 L1654.17 1951.35 L1668.03 1951.35 L1668.03 1951.35 L1686.71 1951.35 L1686.71 1951.35 L1691.29 1951.35 L1691.29 1951.35 L1723.84 1951.35 L1723.84 1951.35 L1747.10 1951.35 L1747.10 1951.35 L1788.93 1951.35 L1788.93 1951.35 L1816.90 1951.35 L1816.90 1951.35 L1849.44 1951.35 L1849.44 1951.35 L1881.99 1951.35 L1881.99 1951.35 L1895.97 1951.35 L1895.97 1951.35 L1900.55 1951.35 L1900.55 1951.35 L1905.26 1951.35 L1905.26 1951.35 L1914.54 1951.35 L1914.54 1951.35 L1933.10 1951.35 L1933.10 1951.35 L1937.80 1951.35 L1937.80 1951.35 L1947.08 1951.35 L1947.08 1951.35 L1951.79 1951.35 L1951.79 1951.35 L1988.91 1951.35 L1988.91 1951.35 L1998.19 1951.35 L1998.19 1951.35 L2002.89 1951.35 L2002.89 1951.35 L2030.74 1951.35 L2030.74 1951.35 L2054.00 1951.35 L2054.00 1951.35 L2067.99 1951.35 L2067.99 1951.35 L2095.95 1951.35 L2095.95 1951.35 L2119.09 1951.35 L2119.09 1951.35 L2170.33 1951.35 L2170.33 1951.35 L2184.31 1951.35 L2184.31 1951.35 L2202.87 1951.35 L2202.87 1951.35 L2230.72 1951.35 L2230.72 1951.35 L2235.42 1951.35 L2235.42 1951.35 L2253.98 1951.35 L2253.98 1951.35 L2263.26 1951.35 L2263.26 1951.35 L2277.25 1951.35 L2277.25 1951.35 L2281.95 1951.35 L2281.95 1951.35 L2309.79 1951.35 L2309.79 1951.35 L2319.07 1951.35 L2319.07 1951.35 L2365.61 1951.35 L2365.61 1951.35 L2393.57 1951.35 L2393.57 1951.35 L2402.85 1951.35 L2402.85 1951.35 L2416.84 1951.35 L2416.84 1951.35 L2472.65 1951.35 L2472.65 1951.35 L2481.93 1951.35 L2481.93 1951.35 L2514.48 1951.35 L2514.48 1951.35 L2533.04 1951.35 L2533.04 1951.35 L2537.74 1951.35 L2537.74 1951.35 L2547.02 1951.35 L2547.02 1951.35 L2551.60 1951.35 L2551.60 1951.35 L2565.59 1951.35 L2565.59 1951.35 L2570.29 1951.35 L2570.29 1951.35 L2588.85 1951.35 L2588.85 1951.35 L2612.11 1951.35 L2612.11 1951.35 L2626.10 1951.35 L2626.10 1951.35 L2653.94 1951.35 L2653.94 1951.35 L2719.04 1951.35 L2719.04 1951.35 L2760.99 1951.35 L2760.99 1951.35 L2765.57 1951.35 L2765.57 1951.35 L2770.27 1951.35 L2770.27 1951.35 L2774.85 1951.35 L2774.85 1951.35 L2826.08 1951.35 L2826.08 1951.35 L2919.02 1951.35 L2919.02 1951.35 L2965.55 1951.35 L2965.55 1951.35 L2970.25 1951.35 L2970.25 1951.35 L2974.83 1951.35 L2974.83 1951.35 L2988.81 1951.35 L2988.81 1951.35 L2998.09 1951.35 L2998.09 1951.35 L3021.36 1951.35 L3021.36 1951.35 L3035.34 1951.35 L3035.34 1951.35 L3039.92 1951.35 L3039.92 1951.35 L3058.61 1951.35 L3058.61 1951.35 L3072.47 1951.35 L3072.47 1951.35 L3077.17 1951.35 L3077.17 1951.35 L3100.43 1951.35 L3100.43 1951.35 L3105.01 1951.35 L3105.01 1951.35 L3109.71 1951.35 L3109.71 1951.35 L3165.53 1951.35 L3165.53 1951.35 L3221.34 1951.35 L3221.34 1951.35 L3267.87 1951.35 L3267.87 1951.35 L3286.43 1951.35 L3286.43 1951.35 L3291.13 1951.35 L3291.13 1951.35 L3318.98 1951.35 L3318.98 1951.35 L3328.26 1951.35 L3328.26 1951.35 L3412.04 1951.35 L3412.04 1951.35 L3416.61 1951.35 L3416.61 1951.35 L3430.60 1951.35 L3430.60 1951.35 L3439.88 1951.35 L3439.88 1951.35 L3458.44 1951.35 L3458.44 1951.35 L3477.13 1951.35 L3477.13 1951.35 L3514.25 1951.35 L3514.25 1951.35 L3537.52 1951.35 L3537.52 1951.35 L3546.80 1951.35 L3546.80 1951.35 L3556.20 1951.35 L3556.20 1951.35 L3602.61 1951.35 L3602.61 1951.35 L3612.02 1951.35 L3612.02 1951.35 L3625.88 1951.35 L3625.88 1951.35 L3658.42 1951.35 L3658.42 1951.35" stroke-linejoin="round" style="fill:none;stroke:#1A476F;stroke-width:8.64"/>
	<path d=" M398.48 2170.40 L398.48 2170.40 L398.48 2170.40 L449.58 2170.40 L449.58 2170.40 L891.37 2170.40 L891.37 2170.40 L900.78 2170.40 L900.78 2170.40 L923.92 2170.40 L923.92 2170.40 L984.43 2170.40 L984.43 2170.40 L1035.54 2170.40 L1035.54 2170.40 L1156.44 2170.40 L1156.44 2170.40 L1268.07 2170.40 L1268.07 2170.40 L1877.29 2170.40 L1877.29 2170.40 L2086.55 2170.40 L2086.55 2170.40 L2156.34 2170.40 L2156.34 2170.40 L2542.32 2170.40 L2542.32 2170.40 L2565.59 2170.40 L2565.59 2170.40 L2928.30 2170.40 L2928.30 2170.40 L3039.92 2170.40 L3039.92 2170.40 L3309.69 2170.40 L3309.69 2170.40 L3314.27 2170.40 L3314.27 2170.40 L3379.49 2170.40 L3379.49 2170.40 L3635.28 2170.40 L3635.28 2170.40 L3639.86 2170.40 L3639.86 2170.40" stroke-linejoin="round" style="fill:none;stroke:#90353B;stroke-width:8.64"/>
	<line x1="335.12" y1="2233.63" x2="335.12" y2="275.35" style="stroke:#000000;stroke-width:5.76"/>
	<line x1="335.12" y1="2170.27" x2="295.14" y2="2170.27" style="stroke:#000000;stroke-width:5.76"/>
	<text x="275.22" y="2205.30" style="font-family:'Helvetica';font-size:99.99px;fill:#000000" text-anchor="end">0.00</text>
	<line x1="335.12" y1="1987.12" x2="295.14" y2="1987.12" style="stroke:#000000;stroke-width:5.76"/>
	<text x="275.22" y="2022.14" style="font-family:'Helvetica';font-size:99.99px;fill:#000000" text-anchor="end">0.02</text>
	<line x1="335.12" y1="1803.96" x2="295.14" y2="1803.96" style="stroke:#000000;stroke-width:5.76"/>
	<text x="275.22" y="1838.99" style="font-family:'Helvetica';font-size:99.99px;fill:#000000" text-anchor="end">0.04</text>
	<line x1="335.12" y1="1620.80" x2="295.14" y2="1620.80" style="stroke:#000000;stroke-width:5.76"/>
	<text x="275.22" y="1655.83" style="font-family:'Helvetica';font-size:99.99px;fill:#000000" text-anchor="end">0.06</text>
	<line x1="335.12" y1="1437.65" x2="295.14" y2="1437.65" style="stroke:#000000;stroke-width:5.76"/>
	<text x="275.22" y="1472.68" style="font-family:'Helvetica';font-size:99.99px;fill:#000000" text-anchor="end">0.08</text>
	<line x1="335.12" y1="1254.49" x2="295.14" y2="1254.49" style="stroke:#000000;stroke-width:5.76"/>
	<text x="275.22" y="1289.52" style="font-family:'Helvetica';font-size:99.99px;fill:#000000" text-anchor="end">0.10</text>
	<line x1="335.12" y1="1071.34" x2="295.14" y2="1071.34" style="stroke:#000000;stroke-width:5.76"/>
	<text x="275.22" y="1106.37" style="font-family:'Helvetica';font-size:99.99px;fill:#000000" text-anchor="end">0.12</text>
	<line x1="335.12" y1="888.18" x2="295.14" y2="888.18" style="stroke:#000000;stroke-width:5.76"/>
	<text x="275.22" y="923.21" style="font-family:'Helvetica';font-size:99.99px;fill:#000000" text-anchor="end">0.14</text>
	<line x1="335.12" y1="705.03" x2="295.14" y2="705.03" style="stroke:#000000;stroke-width:5.76"/>
	<text x="275.22" y="740.05" style="font-family:'Helvetica';font-size:99.99px;fill:#000000" text-anchor="end">0.16</text>
	<line x1="335.12" y1="521.87" x2="295.14" y2="521.87" style="stroke:#000000;stroke-width:5.76"/>
	<text x="275.22" y="556.90" style="font-family:'Helvetica';font-size:99.99px;fill:#000000" text-anchor="end">0.18</text>
	<line x1="335.12" y1="338.71" x2="295.14" y2="338.71" style="stroke:#000000;stroke-width:5.76"/>
	<text x="275.22" y="373.74" style="font-family:'Helvetica';font-size:99.99px;fill:#000000" text-anchor="end">0.20</text>
	<text x="190.71" y="1254.49" style="font-family:'Helvetica';font-size:99.99px;fill:#000000" transform="rotate(-90 190.71,1254.49)" text-anchor="middle">Cumulative AKI</text>
	<line x1="335.12" y1="2233.63" x2="3859.02" y2="2233.63" style="stroke:#000000;stroke-width:5.76"/>
	<line x1="398.48" y1="2233.63" x2="398.48" y2="2273.73" style="stroke:#000000;stroke-width:5.76"/>
	<text x="398.48" y="2363.59" style="font-family:'Helvetica';font-size:99.99px;fill:#000000" text-anchor="middle">0</text>
	<line x1="1247.77" y1="2233.63" x2="1247.77" y2="2273.73" style="stroke:#000000;stroke-width:5.76"/>
	<text x="1247.77" y="2363.59" style="font-family:'Helvetica';font-size:99.99px;fill:#000000" text-anchor="middle">.5</text>
	<line x1="2097.07" y1="2233.63" x2="2097.07" y2="2273.73" style="stroke:#000000;stroke-width:5.76"/>
	<text x="2097.07" y="2363.59" style="font-family:'Helvetica';font-size:99.99px;fill:#000000" text-anchor="middle">1</text>
	<line x1="2946.49" y1="2233.63" x2="2946.49" y2="2273.73" style="stroke:#000000;stroke-width:5.76"/>
	<text x="2946.49" y="2363.59" style="font-family:'Helvetica';font-size:99.99px;fill:#000000" text-anchor="middle">1.5</text>
	<line x1="3795.78" y1="2233.63" x2="3795.78" y2="2273.73" style="stroke:#000000;stroke-width:5.76"/>
	<text x="3795.78" y="2363.59" style="font-family:'Helvetica';font-size:99.99px;fill:#000000" text-anchor="middle">2</text>
	<text x="2097.07" y="2473.60" style="font-family:'Helvetica';font-size:99.99px;fill:#000000" text-anchor="middle">Follow-up (years)</text>
	<rect x="369.77" y="2558.24" width="3454.73" height="186.37" style="fill:#FFFFFF"/>
	<rect x="372.64" y="2561.12" width="3448.97" height="180.61" style="fill:none;stroke:#000000;stroke-width:5.76"/>
	<line x1="412.95" y1="2651.43" x2="616.03" y2="2651.43" style="stroke:#1A476F;stroke-width:8.64"/>
	<line x1="2173.92" y1="2651.43" x2="2376.99" y2="2651.43" style="stroke:#90353B;stroke-width:8.64"/>
	<text x="648.57" y="2686.46" style="font-family:'Helvetica';font-size:99.99px;fill:#000000">covid_krt = COVID-19 without kidney replacement therapy</text>
	<text x="2409.54" y="2686.46" style="font-family:'Helvetica';font-size:99.99px;fill:#000000">covid_krt = COVID-19 with kidney replacement therapy</text>
	<text x="2097.07" y="215.98" style="font-family:'Helvetica';font-size:139.96px;fill:#1E2D53" text-anchor="middle">Cumulative AKI after SARS-CoV-2 survival by covid_krt</text>
</svg>
