<?xml version="1.0" encoding="UTF-8" standalone="no"?>
<!-- This is a Stata 17.0 generated SVG file (http://www.stata.com) -->

<svg version="1.1" width="5.500in" height="4.000in" viewBox="0 0 3960 2880" xmlns="http://www.w3.org/2000/svg" xmlns:xlink="http://www.w3.org/1999/xlink">
	<desc>Stata Graph - Graph</desc>
	<rect x="0" y="0" width="3960" height="2880" style="fill:#EAF2F3;stroke:none"/>
	<rect x="0.00" y="0.00" width="3959.88" height="2880.00" style="fill:#EAF2F3"/>
	<rect x="2.88" y="2.88" width="3954.12" height="2874.24" style="fill:none;stroke:#EAF2F3;stroke-width:5.76"/>
	<rect x="312.22" y="275.35" width="3546.80" height="1958.28" style="fill:#FFFFFF"/>
	<rect x="315.10" y="278.23" width="3541.04" height="1952.52" style="fill:none;stroke:#FFFFFF;stroke-width:5.76"/>
	<line x1="312.22" y1="2170.27" x2="3859.02" y2="2170.27" style="stroke:#EAF2F3;stroke-width:8.64"/>
	<line x1="312.22" y1="1987.12" x2="3859.02" y2="1987.12" style="stroke:#EAF2F3;stroke-width:8.64"/>
	<line x1="312.22" y1="1803.96" x2="3859.02" y2="1803.96" style="stroke:#EAF2F3;stroke-width:8.64"/>
	<line x1="312.22" y1="1620.80" x2="3859.02" y2="1620.80" style="stroke:#EAF2F3;stroke-width:8.64"/>
	<line x1="312.22" y1="1437.65" x2="3859.02" y2="1437.65" style="stroke:#EAF2F3;stroke-width:8.64"/>
	<line x1="312.22" y1="1254.49" x2="3859.02" y2="1254.49" style="stroke:#EAF2F3;stroke-width:8.64"/>
	<line x1="312.22" y1="1071.34" x2="3859.02" y2="1071.34" style="stroke:#EAF2F3;stroke-width:8.64"/>
	<line x1="312.22" y1="888.18" x2="3859.02" y2="888.18" style="stroke:#EAF2F3;stroke-width:8.64"/>
	<line x1="312.22" y1="705.03" x2="3859.02" y2="705.03" style="stroke:#EAF2F3;stroke-width:8.64"/>
	<line x1="312.22" y1="521.87" x2="3859.02" y2="521.87" style="stroke:#EAF2F3;stroke-width:8.64"/>
	<path d=" M375.58 2170.40 L375.58 2170.40 L375.58 2170.40 L380.28 2170.40 L380.28 2170.40 L403.67 2170.40 L403.67 2170.40 L408.38 2170.40 L408.38 2170.40 L427.06 2170.40 L427.06 2170.40 L469.26 2170.40 L469.26 2170.40 L473.84 2170.40 L473.84 2170.40 L487.95 2170.40 L487.95 2170.40 L539.43 2170.40 L539.43 2118.91 L600.31 2118.91 L600.31 2118.91 L614.29 2118.91 L614.29 2067.18 L619.00 2067.18 L619.00 2067.18 L628.40 2067.18 L628.40 2015.21 L637.81 2015.21 L637.81 2015.21 L722.08 2015.21 L722.08 2015.21 L778.26 2015.21 L778.26 1962.49 L825.04 1962.49 L825.04 1962.49 L834.45 1962.49 L834.45 1962.49 L848.43 1962.49 L848.43 1962.49 L853.13 1962.49 L853.13 1962.49 L881.22 1962.49 L881.22 1962.49 L904.61 1962.49 L904.61 1962.49 L914.02 1962.49 L914.02 1962.49 L932.70 1962.49 L932.70 1962.49 L937.41 1962.49 L937.41 1962.49 L946.81 1962.49 L946.81 1962.49 L965.50 1962.49 L965.50 1962.49 L1016.98 1962.49 L1016.98 1962.49 L1045.07 1962.49 L1045.07 1962.49 L1059.18 1962.49 L1059.18 1962.49 L1096.55 1962.49 L1096.55 1962.49 L1119.94 1962.49 L1119.94 1962.49 L1138.75 1962.49 L1138.75 1962.49 L1190.23 1962.49 L1190.23 1962.49 L1194.93 1962.49 L1194.93 1962.49 L1199.63 1962.49 L1199.63 1962.49 L1223.02 1962.49 L1223.02 1962.49 L1241.71 1962.49 L1241.71 1962.49 L1251.11 1962.49 L1251.11 1962.49 L1255.82 1962.49 L1255.82 1962.49 L1288.48 1962.49 L1288.48 1962.49 L1293.19 1962.49 L1293.19 1962.49 L1321.28 1962.49 L1321.28 1962.49 L1344.67 1962.49 L1344.67 1962.49 L1349.37 1962.49 L1349.37 1962.49 L1377.46 1962.49 L1377.46 1962.49 L1391.57 1962.49 L1391.57 1962.49 L1400.85 1962.49 L1400.85 1962.49 L1405.55 1962.49 L1405.55 1962.49 L1414.96 1962.49 L1414.96 1962.49 L1428.94 1962.49 L1428.94 1962.49 L1447.75 1962.49 L1447.75 1962.49 L1475.84 1962.49 L1475.84 1962.49 L1489.83 1962.49 L1489.83 1962.49 L1513.22 1962.49 L1513.22 1962.49 L1546.01 1962.49 L1546.01 1962.49 L1564.82 1962.49 L1564.82 1962.49 L1574.10 1962.49 L1574.10 1962.49 L1578.80 1962.49 L1578.80 1962.49 L1625.58 1962.49 L1625.58 1962.49 L1639.69 1962.49 L1639.69 1962.49 L1653.67 1962.49 L1653.67 1962.49 L1672.48 1962.49 L1672.48 1962.49 L1677.18 1962.49 L1677.18 1962.49 L1709.85 1962.49 L1709.85 1962.49 L1733.37 1962.49 L1733.37 1962.49 L1775.44 1962.49 L1775.44 1962.49 L1803.53 1962.49 L1803.53 1962.49 L1836.33 1962.49 L1836.33 1962.49 L1864.42 1962.49 L1864.42 1962.49 L1869.12 1962.49 L1869.12 1962.49 L1883.10 1962.49 L1883.10 1962.49 L1887.81 1962.49 L1887.81 1962.49 L1892.51 1962.49 L1892.51 1962.49 L1901.91 1962.49 L1901.91 1962.49 L1920.60 1962.49 L1920.60 1962.49 L1925.30 1962.49 L1925.30 1962.49 L1939.29 1962.49 L1939.29 1962.49 L1986.19 1962.49 L1986.19 1962.49 L1990.77 1962.49 L1990.77 1962.49 L2018.86 1962.49 L2018.86 1962.49 L2042.37 1962.49 L2042.37 1962.49 L2056.35 1962.49 L2056.35 1962.49 L2075.04 1962.49 L2075.04 1962.49 L2084.45 1962.49 L2084.45 1962.49 L2107.83 1962.49 L2107.83 1962.49 L2145.33 1962.49 L2145.33 1962.49 L2159.31 1962.49 L2159.31 1962.49 L2173.42 1962.49 L2173.42 1962.49 L2192.11 1962.49 L2192.11 1962.49 L2220.20 1962.49 L2220.20 1962.49 L2224.90 1962.49 L2224.90 1962.49 L2243.59 1962.49 L2243.59 1962.49 L2252.99 1962.49 L2252.99 1962.49 L2267.10 1962.49 L2267.10 1962.49 L2271.68 1962.49 L2271.68 1962.49 L2299.77 1962.49 L2299.77 1962.49 L2309.18 1962.49 L2309.18 1962.49 L2355.95 1962.49 L2355.95 1962.49 L2384.04 1962.49 L2384.04 1962.49 L2393.45 1962.49 L2393.45 1962.49 L2407.43 1962.49 L2407.43 1962.49 L2463.61 1962.49 L2463.61 1962.49 L2473.02 1962.49 L2473.02 1962.49 L2505.81 1962.49 L2505.81 1962.49 L2524.50 1962.49 L2524.50 1962.49 L2533.91 1962.49 L2533.91 1962.49 L2538.61 1962.49 L2538.61 1962.49 L2543.31 1962.49 L2543.31 1962.49 L2557.29 1962.49 L2557.29 1962.49 L2562.00 1962.49 L2562.00 1962.49 L2580.68 1962.49 L2580.68 1962.49 L2604.07 1962.49 L2604.07 1962.49 L2618.18 1962.49 L2618.18 1962.49 L2646.27 1962.49 L2646.27 1962.49 L2711.86 1962.49 L2711.86 1962.49 L2753.93 1962.49 L2753.93 1962.49 L2758.64 1962.49 L2758.64 1962.49 L2763.34 1962.49 L2763.34 1962.49 L2768.04 1962.49 L2768.04 1962.49 L2819.52 1962.49 L2819.52 1962.49 L2913.08 1962.49 L2913.08 1962.49 L2922.48 1962.49 L2922.48 1962.49 L2959.98 1962.49 L2959.98 1962.49 L2964.68 1962.49 L2964.68 1962.49 L2969.26 1962.49 L2969.26 1962.49 L2983.37 1962.49 L2983.37 1962.49 L2992.77 1962.49 L2992.77 1962.49 L3016.16 1962.49 L3016.16 1962.49 L3030.14 1962.49 L3030.14 1962.49 L3034.85 1962.49 L3034.85 1962.49 L3053.53 1962.49 L3053.53 1962.49 L3067.64 1962.49 L3067.64 1962.49 L3072.34 1962.49 L3072.34 1962.49 L3095.73 1962.49 L3095.73 1962.49 L3100.43 1962.49 L3100.43 1962.49 L3105.14 1962.49 L3105.14 1962.49 L3161.32 1962.49 L3161.32 1962.49 L3217.50 1962.49 L3217.50 1962.49 L3264.28 1962.49 L3264.28 1962.49 L3282.96 1962.49 L3282.96 1962.49 L3287.67 1962.49 L3287.67 1962.49 L3306.35 1962.49 L3306.35 1962.49 L3311.06 1962.49 L3311.06 1962.49 L3315.76 1962.49 L3315.76 1962.49 L3325.16 1962.49 L3325.16 1962.49 L3376.64 1962.49 L3376.64 1962.49 L3409.44 1962.49 L3409.44 1962.49 L3414.14 1962.49 L3414.14 1962.49 L3428.12 1962.49 L3428.12 1962.49 L3437.53 1962.49 L3437.53 1962.49 L3456.21 1962.49 L3456.21 1962.49 L3474.90 1962.49 L3474.90 1962.49 L3512.40 1962.49 L3512.40 1962.49 L3535.79 1962.49 L3535.79 1962.49 L3545.19 1962.49 L3545.19 1962.49 L3554.60 1962.49 L3554.60 1962.49 L3601.37 1962.49 L3601.37 1962.49 L3624.76 1962.49 L3624.76 1962.49 L3634.17 1962.49 L3634.17 1962.49 L3638.87 1962.49 L3638.87 1962.49 L3657.56 1962.49 L3657.56 1962.49" stroke-linejoin="round" style="fill:none;stroke:#1A476F;stroke-width:8.64"/>
	<path d=" M375.58 2170.40 L375.58 2170.40 L375.58 2170.40 L516.04 2170.40 L516.04 2170.40 L871.82 2170.40 L871.82 2170.40 L1007.57 2170.40 L1007.57 2170.40 L1574.10 2170.40 L1574.10 2170.40 L1934.58 2170.40 L1934.58 2170.40 L1976.78 2170.40 L1976.78 2170.40 L2529.20 2170.40 L2529.20 2170.40 L2557.29 2170.40 L2557.29 2170.40 L3217.50 2170.40 L3217.50 2170.40 L3456.21 2170.40 L3456.21 2170.40 L3610.78 2170.40 L3610.78 2170.40" stroke-linejoin="round" style="fill:none;stroke:#90353B;stroke-width:8.64"/>
	<line x1="312.22" y1="2233.63" x2="312.22" y2="275.35" style="stroke:#000000;stroke-width:5.76"/>
	<line x1="312.22" y1="2170.27" x2="272.25" y2="2170.27" style="stroke:#000000;stroke-width:5.76"/>
	<text x="252.33" y="2205.30" style="font-family:'Helvetica';font-size:99.99px;fill:#000000" text-anchor="end">0.00</text>
	<line x1="312.22" y1="1987.12" x2="272.25" y2="1987.12" style="stroke:#000000;stroke-width:5.76"/>
	<text x="252.33" y="2022.14" style="font-family:'Helvetica';font-size:99.99px;fill:#000000" text-anchor="end">0.02</text>
	<line x1="312.22" y1="1803.96" x2="272.25" y2="1803.96" style="stroke:#000000;stroke-width:5.76"/>
	<text x="252.33" y="1838.99" style="font-family:'Helvetica';font-size:99.99px;fill:#000000" text-anchor="end">0.04</text>
	<line x1="312.22" y1="1620.80" x2="272.25" y2="1620.80" style="stroke:#000000;stroke-width:5.76"/>
	<text x="252.33" y="1655.83" style="font-family:'Helvetica';font-size:99.99px;fill:#000000" text-anchor="end">0.06</text>
	<line x1="312.22" y1="1437.65" x2="272.25" y2="1437.65" style="stroke:#000000;stroke-width:5.76"/>
	<text x="252.33" y="1472.68" style="font-family:'Helvetica';font-size:99.99px;fill:#000000" text-anchor="end">0.08</text>
	<line x1="312.22" y1="1254.49" x2="272.25" y2="1254.49" style="stroke:#000000;stroke-width:5.76"/>
	<text x="252.33" y="1289.52" style="font-family:'Helvetica';font-size:99.99px;fill:#000000" text-anchor="end">0.10</text>
	<line x1="312.22" y1="1071.34" x2="272.25" y2="1071.34" style="stroke:#000000;stroke-width:5.76"/>
	<text x="252.33" y="1106.37" style="font-family:'Helvetica';font-size:99.99px;fill:#000000" text-anchor="end">0.12</text>
	<line x1="312.22" y1="888.18" x2="272.25" y2="888.18" style="stroke:#000000;stroke-width:5.76"/>
	<text x="252.33" y="923.21" style="font-family:'Helvetica';font-size:99.99px;fill:#000000" text-anchor="end">0.14</text>
	<line x1="312.22" y1="705.03" x2="272.25" y2="705.03" style="stroke:#000000;stroke-width:5.76"/>
	<text x="252.33" y="740.05" style="font-family:'Helvetica';font-size:99.99px;fill:#000000" text-anchor="end">0.16</text>
	<line x1="312.22" y1="521.87" x2="272.25" y2="521.87" style="stroke:#000000;stroke-width:5.76"/>
	<text x="252.33" y="556.90" style="font-family:'Helvetica';font-size:99.99px;fill:#000000" text-anchor="end">0.18</text>
	<line x1="312.22" y1="338.71" x2="272.25" y2="338.71" style="stroke:#000000;stroke-width:5.76"/>
	<text x="252.33" y="373.74" style="font-family:'Helvetica';font-size:99.99px;fill:#000000" text-anchor="end">0.20</text>
	<text x="190.71" y="1254.49" style="font-family:'Helvetica';font-size:99.99px;fill:#000000" transform="rotate(-90 190.71,1254.49)" text-anchor="middle">Cumulative AKI</text>
	<line x1="312.22" y1="2233.63" x2="3859.02" y2="2233.63" style="stroke:#000000;stroke-width:5.76"/>
	<line x1="375.58" y1="2233.63" x2="375.58" y2="2273.73" style="stroke:#000000;stroke-width:5.76"/>
	<text x="375.58" y="2363.59" style="font-family:'Helvetica';font-size:99.99px;fill:#000000" text-anchor="middle">0</text>
	<line x1="1230.69" y1="2233.63" x2="1230.69" y2="2273.73" style="stroke:#000000;stroke-width:5.76"/>
	<text x="1230.69" y="2363.59" style="font-family:'Helvetica';font-size:99.99px;fill:#000000" text-anchor="middle">.5</text>
	<line x1="2085.68" y1="2233.63" x2="2085.68" y2="2273.73" style="stroke:#000000;stroke-width:5.76"/>
	<text x="2085.68" y="2363.59" style="font-family:'Helvetica';font-size:99.99px;fill:#000000" text-anchor="middle">1</text>
	<line x1="2940.67" y1="2233.63" x2="2940.67" y2="2273.73" style="stroke:#000000;stroke-width:5.76"/>
	<text x="2940.67" y="2363.59" style="font-family:'Helvetica';font-size:99.99px;fill:#000000" text-anchor="middle">1.5</text>
	<line x1="3795.78" y1="2233.63" x2="3795.78" y2="2273.73" style="stroke:#000000;stroke-width:5.76"/>
	<text x="3795.78" y="2363.59" style="font-family:'Helvetica';font-size:99.99px;fill:#000000" text-anchor="middle">2</text>
	<text x="2085.68" y="2473.60" style="font-family:'Helvetica';font-size:99.99px;fill:#000000" text-anchor="middle">Follow-up (years)</text>
	<rect x="346.87" y="2558.24" width="3477.62" height="186.37" style="fill:#FFFFFF"/>
	<rect x="349.75" y="2561.12" width="3471.86" height="180.61" style="fill:none;stroke:#000000;stroke-width:5.76"/>
	<line x1="390.06" y1="2651.43" x2="572.84" y2="2651.43" style="stroke:#1A476F;stroke-width:8.64"/>
	<line x1="2154.74" y1="2651.43" x2="2337.64" y2="2651.43" style="stroke:#90353B;stroke-width:8.64"/>
	<text x="602.17" y="2686.46" style="font-family:'Helvetica';font-size:99.99px;fill:#000000">covid_acute_kidney_injury = COVID-19 without acute kidney injury</text>
	<text x="2366.97" y="2686.46" style="font-family:'Helvetica';font-size:99.99px;fill:#000000">covid_acute_kidney_injury = COVID-19 with acute kidney injury</text>
	<text x="2085.68" y="215.98" style="font-family:'Helvetica';font-size:139.96px;fill:#1E2D53" text-anchor="middle">Cumulative AKI after SARS-CoV-2 survival by covid_acute_kidney_injury</text>
</svg>
