<?xml version="1.0" encoding="UTF-8" standalone="no"?>
<!-- This is a Stata 17.0 generated SVG file (http://www.stata.com) -->

<svg version="1.1" width="5.500in" height="4.000in" viewBox="0 0 3960 2880" xmlns="http://www.w3.org/2000/svg" xmlns:xlink="http://www.w3.org/1999/xlink">
	<desc>Stata Graph - Graph</desc>
	<rect x="0" y="0" width="3960" height="2880" style="fill:#EAF2F3;stroke:none"/>
	<rect x="0.00" y="0.00" width="3959.88" height="2880.00" style="fill:#EAF2F3"/>
	<rect x="2.88" y="2.88" width="3954.12" height="2874.24" style="fill:none;stroke:#EAF2F3;stroke-width:5.76"/>
	<rect x="360.11" y="275.35" width="3498.91" height="1818.32" style="fill:#FFFFFF"/>
	<rect x="362.99" y="278.23" width="3493.15" height="1812.56" style="fill:none;stroke:#FFFFFF;stroke-width:5.76"/>
	<line x1="360.11" y1="2030.31" x2="3859.02" y2="2030.31" style="stroke:#EAF2F3;stroke-width:8.64"/>
	<line x1="360.11" y1="1861.13" x2="3859.02" y2="1861.13" style="stroke:#EAF2F3;stroke-width:8.64"/>
	<line x1="360.11" y1="1691.96" x2="3859.02" y2="1691.96" style="stroke:#EAF2F3;stroke-width:8.64"/>
	<line x1="360.11" y1="1522.79" x2="3859.02" y2="1522.79" style="stroke:#EAF2F3;stroke-width:8.64"/>
	<line x1="360.11" y1="1353.74" x2="3859.02" y2="1353.74" style="stroke:#EAF2F3;stroke-width:8.64"/>
	<line x1="360.11" y1="1184.57" x2="3859.02" y2="1184.57" style="stroke:#EAF2F3;stroke-width:8.64"/>
	<line x1="360.11" y1="1015.40" x2="3859.02" y2="1015.40" style="stroke:#EAF2F3;stroke-width:8.64"/>
	<line x1="360.11" y1="846.23" x2="3859.02" y2="846.23" style="stroke:#EAF2F3;stroke-width:8.64"/>
	<line x1="360.11" y1="677.06" x2="3859.02" y2="677.06" style="stroke:#EAF2F3;stroke-width:8.64"/>
	<line x1="360.11" y1="507.89" x2="3859.02" y2="507.89" style="stroke:#EAF2F3;stroke-width:8.64"/>
	<path d=" M423.47 2030.43 L423.47 2030.43 L423.47 2030.43 L423.47 2030.43 L423.47 2030.43 L451.19 2030.43 L451.19 2030.43 L455.77 2030.43 L455.77 2030.43 L474.21 2030.43 L474.21 2030.43 L515.79 2030.43 L515.79 2030.43 L520.37 2030.43 L520.37 2030.43 L561.95 2030.43 L561.95 2030.43 L584.97 2030.43 L584.97 1975.48 L644.99 1975.48 L644.99 1975.48 L658.85 1975.48 L658.85 1920.17 L672.71 1920.17 L672.71 1864.85 L681.99 1864.85 L681.99 1864.85 L765.02 1864.85 L765.02 1864.85 L820.46 1864.85 L820.46 1864.85 L866.62 1864.85 L866.62 1864.85 L875.78 1864.85 L875.78 1864.85 L894.34 1864.85 L894.34 1864.85 L912.78 1864.85 L912.78 1864.85 L921.94 1864.85 L921.94 1864.85 L945.08 1864.85 L945.08 1864.85 L954.36 1864.85 L954.36 1864.85 L972.80 1864.85 L972.80 1864.85 L977.38 1864.85 L977.38 1864.85 L986.66 1864.85 L986.66 1864.85 L1005.10 1864.85 L1005.10 1864.85 L1046.68 1864.85 L1046.68 1864.85 L1055.84 1864.85 L1055.84 1864.85 L1097.42 1864.85 L1097.42 1864.85 L1134.29 1864.85 L1134.29 1864.85 L1157.43 1864.85 L1157.43 1864.85 L1226.73 1864.85 L1226.73 1864.85 L1235.89 1864.85 L1235.89 1864.85 L1259.03 1864.85 L1259.03 1864.85 L1277.47 1864.85 L1277.47 1864.85 L1286.63 1864.85 L1286.63 1864.85 L1291.33 1864.85 L1291.33 1864.85 L1323.63 1864.85 L1323.63 1864.85 L1328.21 1864.85 L1328.21 1864.85 L1379.07 1864.85 L1379.07 1864.85 L1383.65 1864.85 L1383.65 1864.85 L1411.37 1864.85 L1411.37 1864.85 L1425.23 1864.85 L1425.23 1864.85 L1434.39 1864.85 L1434.39 1864.85 L1438.97 1864.85 L1438.97 1864.85 L1448.25 1864.85 L1448.25 1864.85 L1480.55 1864.85 L1480.55 1864.85 L1508.27 1864.85 L1508.27 1864.85 L1522.13 1864.85 L1522.13 1864.85 L1545.14 1864.85 L1545.14 1864.85 L1577.57 1864.85 L1577.57 1864.85 L1596.00 1864.85 L1596.00 1864.85 L1605.16 1864.85 L1605.16 1864.85 L1609.86 1864.85 L1609.86 1864.85 L1656.02 1864.85 L1656.02 1864.85 L1669.88 1864.85 L1669.88 1864.85 L1683.74 1864.85 L1683.74 1864.85 L1702.18 1864.85 L1702.18 1864.85 L1706.76 1864.85 L1706.76 1864.85 L1762.20 1864.85 L1762.20 1864.85 L1803.66 1864.85 L1803.66 1864.85 L1831.38 1864.85 L1831.38 1864.85 L1863.68 1864.85 L1863.68 1864.85 L1891.40 1864.85 L1891.40 1864.85 L1896.10 1864.85 L1896.10 1864.85 L1909.83 1864.85 L1909.83 1864.85 L1914.54 1864.85 L1914.54 1864.85 L1919.12 1864.85 L1919.12 1864.85 L1928.40 1864.85 L1928.40 1864.85 L1946.84 1864.85 L1946.84 1864.85 L1960.70 1864.85 L1960.70 1864.85 L1965.27 1864.85 L1965.27 1864.85 L2011.43 1864.85 L2011.43 1864.85 L2016.01 1864.85 L2016.01 1864.85 L2066.87 1864.85 L2066.87 1864.85 L2080.73 1864.85 L2080.73 1864.85 L2099.17 1864.85 L2099.17 1864.85 L2108.45 1864.85 L2108.45 1864.85 L2131.47 1864.85 L2131.47 1864.85 L2168.35 1864.85 L2168.35 1864.85 L2182.21 1864.85 L2182.21 1864.85 L2196.07 1864.85 L2196.07 1864.85 L2214.51 1864.85 L2214.51 1864.85 L2242.23 1864.85 L2242.23 1864.85 L2265.37 1864.85 L2265.37 1864.85 L2274.53 1864.85 L2274.53 1864.85 L2288.39 1864.85 L2288.39 1864.85 L2293.09 1864.85 L2293.09 1864.85 L2320.68 1864.85 L2320.68 1864.85 L2376.12 1864.85 L2376.12 1864.85 L2403.84 1864.85 L2403.84 1864.85 L2413.13 1864.85 L2413.13 1864.85 L2426.86 1864.85 L2426.86 1864.85 L2482.30 1864.85 L2482.30 1864.85 L2523.88 1864.85 L2523.88 1864.85 L2546.90 1864.85 L2546.90 1864.85 L2551.60 1864.85 L2551.60 1864.85 L2556.18 1864.85 L2556.18 1864.85 L2560.76 1864.85 L2560.76 1864.85 L2574.62 1864.85 L2574.62 1864.85 L2579.20 1864.85 L2579.20 1864.85 L2597.76 1864.85 L2597.76 1864.85 L2620.78 1864.85 L2620.78 1864.85 L2662.36 1864.85 L2662.36 1864.85 L2726.96 1864.85 L2726.96 1864.85 L2773.11 1864.85 L2773.11 1864.85 L2782.40 1864.85 L2782.40 1864.85 L2833.13 1864.85 L2833.13 1864.85 L2925.45 1864.85 L2925.45 1864.85 L2971.61 1864.85 L2971.61 1864.85 L2980.89 1864.85 L2980.89 1864.85 L2994.75 1864.85 L2994.75 1864.85 L3003.91 1864.85 L3003.91 1864.85 L3027.05 1864.85 L3027.05 1864.85 L3040.91 1864.85 L3040.91 1864.85 L3045.49 1864.85 L3045.49 1864.85 L3063.93 1864.85 L3063.93 1864.85 L3077.79 1864.85 L3077.79 1864.85 L3082.49 1864.85 L3082.49 1864.85 L3105.51 1864.85 L3105.51 1864.85 L3110.09 1864.85 L3110.09 1864.85 L3114.79 1864.85 L3114.79 1864.85 L3170.10 1864.85 L3170.10 1864.85 L3225.54 1864.85 L3225.54 1864.85 L3271.70 1864.85 L3271.70 1864.85 L3290.14 1864.85 L3290.14 1864.85 L3294.84 1864.85 L3294.84 1864.85 L3313.28 1864.85 L3313.28 1864.85 L3322.44 1864.85 L3322.44 1864.85 L3331.72 1864.85 L3331.72 1864.85 L3382.46 1864.85 L3382.46 1864.85 L3419.46 1864.85 L3419.46 1864.85 L3433.32 1864.85 L3433.32 1864.85 L3460.92 1864.85 L3460.92 1864.85 L3479.48 1864.85 L3479.48 1864.85 L3516.36 1864.85 L3516.36 1864.85 L3539.50 1864.85 L3539.50 1864.85 L3548.66 1864.85 L3548.66 1864.85 L3557.94 1864.85 L3557.94 1864.85 L3604.10 1864.85 L3604.10 1864.85 L3613.25 1864.85 L3613.25 1864.85 L3627.11 1864.85 L3627.11 1864.85 L3640.97 1864.85 L3640.97 1864.85 L3659.54 1864.85 L3659.54 1864.85" stroke-linejoin="round" style="fill:none;stroke:#1A476F;stroke-width:8.64"/>
	<path d=" M423.47 2030.43 L423.47 2030.43 L423.47 2030.43 L423.47 2030.43 L423.47 2030.43 L428.05 2030.43 L428.05 2030.43 L663.42 2030.43 L663.42 2030.43 L889.64 2030.43 L889.64 2030.43 L1083.56 2030.43 L1083.56 2030.43 L1235.89 2030.43 L1235.89 2030.43 L1355.93 2030.43 L1355.93 2030.43 L1462.11 2030.43 L1462.11 2030.43 L1739.06 2030.43 L1739.06 2030.43 L1951.41 2030.43 L1951.41 2030.43 L2043.73 2030.43 L2043.73 2030.43 L2246.93 2030.43 L2246.93 2030.43 L2491.58 2030.43 L2491.58 2030.43 L2542.32 2030.43 L2542.32 2030.43 L2768.54 2030.43 L2768.54 2030.43 L3045.49 2030.43 L3045.49 2030.43 L3114.79 2030.43 L3114.79 2030.43 L3414.76 2030.43 L3414.76 2030.43" stroke-linejoin="round" style="fill:none;stroke:#90353B;stroke-width:8.64"/>
	<path d=" M423.47 2030.43 L423.47 2030.43 L423.47 2030.43 L423.47 2030.43 L423.47 2030.43 L534.23 2030.43 L534.23 2030.43 L820.46 2030.43 L820.46 1532.82 L1055.84 1532.82 L1055.84 1532.82 L1175.87 1532.82 L1175.87 1532.82 L1231.31 1532.82 L1231.31 1532.82 L1596.00 1532.82 L1596.00 1532.82 L2002.28 1532.82 L2002.28 1532.82 L2293.09 1532.82 L2293.09 1532.82 L2329.97 1532.82 L2329.97 1532.82 L2634.64 1532.82 L2634.64 1532.82 L2777.82 1532.82 L2777.82 1532.82 L2934.73 1532.82 L2934.73 1532.82 L2976.31 1532.82 L2976.31 1532.82 L3317.86 1532.82 L3317.86 1532.82 L3442.48 1532.82 L3442.48 1532.82 L3460.92 1532.82 L3460.92 1532.82 L3636.39 1532.82 L3636.39 1532.82" stroke-linejoin="round" style="fill:none;stroke:#55752F;stroke-width:8.64"/>
	<line x1="360.11" y1="2093.67" x2="360.11" y2="275.35" style="stroke:#000000;stroke-width:5.76"/>
	<line x1="360.11" y1="2030.31" x2="320.14" y2="2030.31" style="stroke:#000000;stroke-width:5.76"/>
	<text x="300.09" y="2065.33" style="font-family:'Helvetica';font-size:99.99px;fill:#000000" text-anchor="end">0.00</text>
	<line x1="360.11" y1="1861.13" x2="320.14" y2="1861.13" style="stroke:#000000;stroke-width:5.76"/>
	<text x="300.09" y="1896.16" style="font-family:'Helvetica';font-size:99.99px;fill:#000000" text-anchor="end">0.02</text>
	<line x1="360.11" y1="1691.96" x2="320.14" y2="1691.96" style="stroke:#000000;stroke-width:5.76"/>
	<text x="300.09" y="1726.99" style="font-family:'Helvetica';font-size:99.99px;fill:#000000" text-anchor="end">0.04</text>
	<line x1="360.11" y1="1522.79" x2="320.14" y2="1522.79" style="stroke:#000000;stroke-width:5.76"/>
	<text x="300.09" y="1557.82" style="font-family:'Helvetica';font-size:99.99px;fill:#000000" text-anchor="end">0.06</text>
	<line x1="360.11" y1="1353.74" x2="320.14" y2="1353.74" style="stroke:#000000;stroke-width:5.76"/>
	<text x="300.09" y="1388.77" style="font-family:'Helvetica';font-size:99.99px;fill:#000000" text-anchor="end">0.08</text>
	<line x1="360.11" y1="1184.57" x2="320.14" y2="1184.57" style="stroke:#000000;stroke-width:5.76"/>
	<text x="300.09" y="1219.60" style="font-family:'Helvetica';font-size:99.99px;fill:#000000" text-anchor="end">0.10</text>
	<line x1="360.11" y1="1015.40" x2="320.14" y2="1015.40" style="stroke:#000000;stroke-width:5.76"/>
	<text x="300.09" y="1050.43" style="font-family:'Helvetica';font-size:99.99px;fill:#000000" text-anchor="end">0.12</text>
	<line x1="360.11" y1="846.23" x2="320.14" y2="846.23" style="stroke:#000000;stroke-width:5.76"/>
	<text x="300.09" y="881.26" style="font-family:'Helvetica';font-size:99.99px;fill:#000000" text-anchor="end">0.14</text>
	<line x1="360.11" y1="677.06" x2="320.14" y2="677.06" style="stroke:#000000;stroke-width:5.76"/>
	<text x="300.09" y="712.09" style="font-family:'Helvetica';font-size:99.99px;fill:#000000" text-anchor="end">0.16</text>
	<line x1="360.11" y1="507.89" x2="320.14" y2="507.89" style="stroke:#000000;stroke-width:5.76"/>
	<text x="300.09" y="542.91" style="font-family:'Helvetica';font-size:99.99px;fill:#000000" text-anchor="end">0.18</text>
	<line x1="360.11" y1="338.71" x2="320.14" y2="338.71" style="stroke:#000000;stroke-width:5.76"/>
	<text x="300.09" y="373.74" style="font-family:'Helvetica';font-size:99.99px;fill:#000000" text-anchor="end">0.20</text>
	<text x="190.71" y="1184.57" style="font-family:'Helvetica';font-size:99.99px;fill:#000000" transform="rotate(-90 190.71,1184.57)" text-anchor="middle">Cumulative AKI</text>
	<line x1="360.11" y1="2093.67" x2="3859.02" y2="2093.67" style="stroke:#000000;stroke-width:5.76"/>
	<line x1="423.47" y1="2093.67" x2="423.47" y2="2133.64" style="stroke:#000000;stroke-width:5.76"/>
	<text x="423.47" y="2223.62" style="font-family:'Helvetica';font-size:99.99px;fill:#000000" text-anchor="middle">0</text>
	<line x1="1266.58" y1="2093.67" x2="1266.58" y2="2133.64" style="stroke:#000000;stroke-width:5.76"/>
	<text x="1266.58" y="2223.62" style="font-family:'Helvetica';font-size:99.99px;fill:#000000" text-anchor="middle">.5</text>
	<line x1="2109.57" y1="2093.67" x2="2109.57" y2="2133.64" style="stroke:#000000;stroke-width:5.76"/>
	<text x="2109.57" y="2223.62" style="font-family:'Helvetica';font-size:99.99px;fill:#000000" text-anchor="middle">1</text>
	<line x1="2952.68" y1="2093.67" x2="2952.68" y2="2133.64" style="stroke:#000000;stroke-width:5.76"/>
	<text x="2952.68" y="2223.62" style="font-family:'Helvetica';font-size:99.99px;fill:#000000" text-anchor="middle">1.5</text>
	<line x1="3795.66" y1="2093.67" x2="3795.66" y2="2133.64" style="stroke:#000000;stroke-width:5.76"/>
	<text x="3795.66" y="2223.62" style="font-family:'Helvetica';font-size:99.99px;fill:#000000" text-anchor="middle">2</text>
	<text x="2109.57" y="2333.64" style="font-family:'Helvetica';font-size:99.99px;fill:#000000" text-anchor="middle">Follow-up (years)</text>
	<rect x="394.64" y="2418.27" width="3429.86" height="326.34" style="fill:#FFFFFF"/>
	<rect x="397.52" y="2421.15" width="3424.10" height="320.58" style="fill:none;stroke:#000000;stroke-width:5.76"/>
	<line x1="437.95" y1="2511.46" x2="663.18" y2="2511.46" style="stroke:#1A476F;stroke-width:8.64"/>
	<line x1="2235.05" y1="2511.46" x2="2460.40" y2="2511.46" style="stroke:#90353B;stroke-width:8.64"/>
	<line x1="437.95" y1="2651.43" x2="663.18" y2="2651.43" style="stroke:#55752F;stroke-width:8.64"/>
	<text x="699.31" y="2546.49" style="font-family:'Helvetica';font-size:99.99px;fill:#000000">covid_severity = SARS-CoV-2 without hospitalisation</text>
	<text x="2496.53" y="2546.49" style="font-family:'Helvetica';font-size:99.99px;fill:#000000">covid_severity = COVID-19 with hospitalisation</text>
	<text x="699.31" y="2686.46" style="font-family:'Helvetica';font-size:99.99px;fill:#000000">covid_severity = COVID-19 with critical care</text>
	<text x="2109.57" y="215.98" style="font-family:'Helvetica';font-size:139.96px;fill:#1E2D53" text-anchor="middle">Cumulative AKI after SARS-CoV-2 survival by covid_severity</text>
</svg>
