<?xml version="1.0" encoding="UTF-8" standalone="no"?>
<!-- This is a Stata 17.0 generated SVG file (http://www.stata.com) -->

<svg version="1.1" width="5.500in" height="4.000in" viewBox="0 0 3960 2880" xmlns="http://www.w3.org/2000/svg" xmlns:xlink="http://www.w3.org/1999/xlink">
	<desc>Stata Graph - Graph</desc>
	<rect x="0" y="0" width="3960" height="2880" style="fill:#EAF2F3;stroke:none"/>
	<rect x="0.00" y="0.00" width="3959.88" height="2880.00" style="fill:#EAF2F3"/>
	<rect x="2.88" y="2.88" width="3954.12" height="2874.24" style="fill:none;stroke:#EAF2F3;stroke-width:5.76"/>
	<rect x="339.82" y="275.35" width="3519.20" height="1678.35" style="fill:#FFFFFF"/>
	<rect x="342.70" y="278.23" width="3513.44" height="1672.59" style="fill:none;stroke:#FFFFFF;stroke-width:5.76"/>
	<line x1="339.82" y1="1890.34" x2="3859.02" y2="1890.34" style="stroke:#EAF2F3;stroke-width:8.64"/>
	<line x1="339.82" y1="1735.15" x2="3859.02" y2="1735.15" style="stroke:#EAF2F3;stroke-width:8.64"/>
	<line x1="339.82" y1="1579.97" x2="3859.02" y2="1579.97" style="stroke:#EAF2F3;stroke-width:8.64"/>
	<line x1="339.82" y1="1424.90" x2="3859.02" y2="1424.90" style="stroke:#EAF2F3;stroke-width:8.64"/>
	<line x1="339.82" y1="1269.71" x2="3859.02" y2="1269.71" style="stroke:#EAF2F3;stroke-width:8.64"/>
	<line x1="339.82" y1="1114.53" x2="3859.02" y2="1114.53" style="stroke:#EAF2F3;stroke-width:8.64"/>
	<line x1="339.82" y1="959.34" x2="3859.02" y2="959.34" style="stroke:#EAF2F3;stroke-width:8.64"/>
	<line x1="339.82" y1="804.15" x2="3859.02" y2="804.15" style="stroke:#EAF2F3;stroke-width:8.64"/>
	<line x1="339.82" y1="649.09" x2="3859.02" y2="649.09" style="stroke:#EAF2F3;stroke-width:8.64"/>
	<line x1="339.82" y1="493.90" x2="3859.02" y2="493.90" style="stroke:#EAF2F3;stroke-width:8.64"/>
	<path d=" M403.05 1890.34 L403.05 1890.34 L403.05 1890.34 L403.05 1890.34 L403.05 1890.34 L403.05 1890.34 L403.05 1890.34 L403.05 1890.34 L403.05 1890.34 L1819.62 1890.34 L1819.62 1890.34 L2321.18 1890.34 L2321.18 1890.34 L2590.46 1890.34 L2590.46 1890.34 L3537.89 1890.34 L3537.89 1890.34" stroke-linejoin="round" style="fill:none;stroke:#1A476F;stroke-width:8.64"/>
	<path d=" M403.05 1890.34 L403.05 1890.34 L403.05 1890.34 L403.05 1890.34 L403.05 1890.34 L403.05 1890.34 L403.05 1890.34 L403.05 1890.34 L403.05 1890.34 L407.76 1890.34 L407.76 1890.34 L1369.05 1890.34 L1369.05 1890.34 L1879.89 1890.34 L1879.89 1890.34 L3658.67 1890.34 L3658.67 1890.34" stroke-linejoin="round" style="fill:none;stroke:#90353B;stroke-width:8.64"/>
	<path d=" M403.05 1890.34 L403.05 1890.34 L403.05 1890.34 L403.05 1890.34 L403.05 1890.34 L403.05 1890.34 L403.05 1890.34 L403.05 1890.34 L403.05 1890.34 L430.90 1890.34 L430.90 1890.34 L514.55 1890.34 L514.55 1890.34 L802.52 1890.34 L802.52 1028.39 L1220.42 1028.39 L1220.42 1028.39 L1448.00 1028.39 L1448.00 1028.39 L2237.52 1028.39 L2237.52 1028.39 L2395.43 1028.39 L2395.43 1028.39 L2567.32 1028.39 L2567.32 1028.39 L2655.55 1028.39 L2655.55 1028.39 L3022.35 1028.39 L3022.35 1028.39 L3431.09 1028.39 L3431.09 1028.39" stroke-linejoin="round" style="fill:none;stroke:#55752F;stroke-width:8.64"/>
	<path d=" M403.05 1890.34 L403.05 1890.34 L403.05 1890.34 L403.05 1890.34 L403.05 1890.34 L403.05 1890.34 L403.05 1890.34 L403.05 1890.34 L403.05 1890.34 L454.16 1890.34 L454.16 1890.34 L500.57 1890.34 L500.57 1890.34 L644.61 1890.34 L644.61 1890.34 L848.93 1890.34 L848.93 1890.34 L858.21 1890.34 L858.21 1890.34 L937.16 1890.34 L937.16 1890.34 L960.42 1890.34 L960.42 1890.34 L1081.20 1890.34 L1081.20 1890.34 L1262.25 1890.34 L1262.25 1890.34 L1308.66 1890.34 L1308.66 1890.34 L1313.36 1890.34 L1313.36 1890.34 L1341.20 1890.34 L1341.20 1890.34 L1364.47 1890.34 L1364.47 1890.34 L1410.87 1890.34 L1410.87 1890.34 L1420.16 1890.34 L1420.16 1890.34 L1592.04 1890.34 L1592.04 1890.34 L1596.62 1890.34 L1596.62 1890.34 L1657.01 1890.34 L1657.01 1890.34 L1749.95 1890.34 L1749.95 1890.34 L1884.59 1890.34 L1884.59 1890.34 L1940.28 1890.34 L1940.28 1890.34 L1954.26 1890.34 L1954.26 1890.34 L1991.39 1890.34 L1991.39 1890.34 L2056.48 1890.34 L2056.48 1890.34 L2088.90 1890.34 L2088.90 1890.34 L2172.55 1890.34 L2172.55 1890.34 L2232.95 1890.34 L2232.95 1890.34 L2516.21 1890.34 L2516.21 1890.34 L2567.32 1890.34 L2567.32 1890.34 L2571.90 1890.34 L2571.90 1890.34 L2627.71 1890.34 L2627.71 1890.34 L2720.52 1890.34 L2720.52 1890.34 L2971.36 1890.34 L2971.36 1890.34 L2975.94 1890.34 L2975.94 1890.34 L2989.92 1890.34 L2989.92 1890.34 L3036.33 1890.34 L3036.33 1890.34 L3110.70 1890.34 L3110.70 1890.34 L3222.08 1890.34 L3222.08 1890.34 L3268.49 1890.34 L3268.49 1890.34 L3291.75 1890.34 L3291.75 1890.34 L3412.53 1890.34 L3412.53 1890.34 L3547.17 1890.34 L3547.17 1890.34 L3602.98 1890.34 L3602.98 1890.34" stroke-linejoin="round" style="fill:none;stroke:#E37E00;stroke-width:8.64"/>
	<path d=" M403.05 1890.34 L403.05 1890.34 L403.05 1890.34 L403.05 1890.34 L403.05 1890.34 L403.05 1890.34 L403.05 1890.34 L403.05 1890.34 L403.05 1890.34 L435.60 1890.34 L435.60 1890.34 L495.99 1890.34 L495.99 1890.34 L542.40 1890.34 L542.40 1890.34 L565.66 1890.34 L565.66 1830.20 L626.05 1830.20 L626.05 1830.20 L639.91 1830.20 L639.91 1769.68 L653.90 1769.68 L653.90 1709.04 L663.18 1709.04 L663.18 1709.04 L746.71 1709.04 L746.71 1709.04 L802.52 1709.04 L802.52 1709.04 L872.19 1709.04 L872.19 1709.04 L876.77 1709.04 L876.77 1709.04 L895.33 1709.04 L895.33 1709.04 L904.61 1709.04 L904.61 1709.04 L927.88 1709.04 L927.88 1709.04 L955.72 1709.04 L955.72 1709.04 L969.71 1709.04 L969.71 1709.04 L988.27 1709.04 L988.27 1709.04 L1030.10 1709.04 L1030.10 1709.04 L1039.38 1709.04 L1039.38 1709.04 L1067.22 1709.04 L1067.22 1709.04 L1118.33 1709.04 L1118.33 1709.04 L1141.47 1709.04 L1141.47 1709.04 L1160.03 1709.04 L1160.03 1709.04 L1211.14 1709.04 L1211.14 1709.04 L1215.84 1709.04 L1215.84 1709.04 L1220.42 1709.04 L1220.42 1709.04 L1243.69 1709.04 L1243.69 1709.04 L1271.53 1709.04 L1271.53 1709.04 L1276.23 1709.04 L1276.23 1709.04 L1396.89 1709.04 L1396.89 1709.04 L1420.16 1709.04 L1420.16 1709.04 L1424.86 1709.04 L1424.86 1709.04 L1434.14 1709.04 L1434.14 1709.04 L1466.56 1709.04 L1466.56 1709.04 L1494.53 1709.04 L1494.53 1709.04 L1508.39 1709.04 L1508.39 1709.04 L1531.65 1709.04 L1531.65 1709.04 L1564.08 1709.04 L1564.08 1709.04 L1582.76 1709.04 L1582.76 1709.04 L1643.03 1709.04 L1643.03 1709.04 L1671.00 1709.04 L1671.00 1709.04 L1689.56 1709.04 L1689.56 1709.04 L1694.14 1709.04 L1694.14 1709.04 L1726.68 1709.04 L1726.68 1709.04 L1791.65 1709.04 L1791.65 1709.04 L1852.04 1709.04 L1852.04 1709.04 L1898.57 1709.04 L1898.57 1709.04 L1903.15 1709.04 L1903.15 1709.04 L1907.85 1709.04 L1907.85 1709.04 L1917.14 1709.04 L1917.14 1709.04 L1935.70 1709.04 L1935.70 1709.04 L1949.56 1709.04 L1949.56 1709.04 L2000.67 1709.04 L2000.67 1709.04 L2005.37 1709.04 L2005.37 1709.04 L2033.21 1709.04 L2033.21 1709.04 L2070.34 1709.04 L2070.34 1709.04 L2098.18 1709.04 L2098.18 1709.04 L2121.45 1709.04 L2121.45 1709.04 L2158.57 1709.04 L2158.57 1709.04 L2186.42 1709.04 L2186.42 1709.04 L2204.98 1709.04 L2204.98 1709.04 L2256.09 1709.04 L2256.09 1709.04 L2265.37 1709.04 L2265.37 1709.04 L2279.35 1709.04 L2279.35 1709.04 L2283.93 1709.04 L2283.93 1709.04 L2311.90 1709.04 L2311.90 1709.04 L2321.18 1709.04 L2321.18 1709.04 L2367.59 1709.04 L2367.59 1709.04 L2395.43 1709.04 L2395.43 1709.04 L2404.71 1709.04 L2404.71 1709.04 L2418.69 1709.04 L2418.69 1709.04 L2474.38 1709.04 L2474.38 1709.04 L2483.66 1709.04 L2483.66 1709.04 L2516.21 1709.04 L2516.21 1709.04 L2534.77 1709.04 L2534.77 1709.04 L2539.47 1709.04 L2539.47 1709.04 L2544.05 1709.04 L2544.05 1709.04 L2548.76 1709.04 L2548.76 1709.04 L2553.33 1709.04 L2553.33 1709.04 L2613.72 1709.04 L2613.72 1709.04 L2762.35 1709.04 L2762.35 1709.04 L2766.93 1709.04 L2766.93 1709.04 L2771.63 1709.04 L2771.63 1709.04 L2776.21 1709.04 L2776.21 1709.04 L2827.32 1709.04 L2827.32 1709.04 L2920.25 1709.04 L2920.25 1709.04 L2929.53 1709.04 L2929.53 1709.04 L2966.66 1709.04 L2966.66 1709.04 L2999.21 1709.04 L2999.21 1709.04 L3041.03 1709.04 L3041.03 1709.04 L3059.60 1709.04 L3059.60 1709.04 L3073.46 1709.04 L3073.46 1709.04 L3078.16 1709.04 L3078.16 1709.04 L3101.30 1709.04 L3101.30 1709.04 L3106.00 1709.04 L3106.00 1709.04 L3110.70 1709.04 L3110.70 1709.04 L3166.39 1709.04 L3166.39 1709.04 L3222.08 1709.04 L3222.08 1709.04 L3287.17 1709.04 L3287.17 1709.04 L3310.31 1709.04 L3310.31 1709.04 L3315.02 1709.04 L3315.02 1709.04 L3319.59 1709.04 L3319.59 1709.04 L3328.88 1709.04 L3328.88 1709.04 L3379.98 1709.04 L3379.98 1709.04 L3412.53 1709.04 L3412.53 1709.04 L3417.11 1709.04 L3417.11 1709.04 L3440.37 1709.04 L3440.37 1709.04 L3458.94 1709.04 L3458.94 1709.04 L3477.50 1709.04 L3477.50 1709.04 L3514.75 1709.04 L3514.75 1709.04 L3537.89 1709.04 L3537.89 1709.04 L3556.45 1709.04 L3556.45 1709.04 L3602.98 1709.04 L3602.98 1709.04 L3612.26 1709.04 L3612.26 1709.04 L3626.12 1709.04 L3626.12 1709.04 L3635.40 1709.04 L3635.40 1709.04 L3640.11 1709.04 L3640.11 1709.04" stroke-linejoin="round" style="fill:none;stroke:#6E8E84;stroke-width:8.64"/>
	<line x1="339.82" y1="1953.70" x2="339.82" y2="275.35" style="stroke:#000000;stroke-width:5.76"/>
	<line x1="339.82" y1="1890.34" x2="299.85" y2="1890.34" style="stroke:#000000;stroke-width:5.76"/>
	<text x="279.80" y="1925.37" style="font-family:'Helvetica';font-size:99.99px;fill:#000000" text-anchor="end">0.00</text>
	<line x1="339.82" y1="1735.15" x2="299.85" y2="1735.15" style="stroke:#000000;stroke-width:5.76"/>
	<text x="279.80" y="1770.18" style="font-family:'Helvetica';font-size:99.99px;fill:#000000" text-anchor="end">0.02</text>
	<line x1="339.82" y1="1579.97" x2="299.85" y2="1579.97" style="stroke:#000000;stroke-width:5.76"/>
	<text x="279.80" y="1614.99" style="font-family:'Helvetica';font-size:99.99px;fill:#000000" text-anchor="end">0.04</text>
	<line x1="339.82" y1="1424.90" x2="299.85" y2="1424.90" style="stroke:#000000;stroke-width:5.76"/>
	<text x="279.80" y="1459.93" style="font-family:'Helvetica';font-size:99.99px;fill:#000000" text-anchor="end">0.06</text>
	<line x1="339.82" y1="1269.71" x2="299.85" y2="1269.71" style="stroke:#000000;stroke-width:5.76"/>
	<text x="279.80" y="1304.74" style="font-family:'Helvetica';font-size:99.99px;fill:#000000" text-anchor="end">0.08</text>
	<line x1="339.82" y1="1114.53" x2="299.85" y2="1114.53" style="stroke:#000000;stroke-width:5.76"/>
	<text x="279.80" y="1149.56" style="font-family:'Helvetica';font-size:99.99px;fill:#000000" text-anchor="end">0.10</text>
	<line x1="339.82" y1="959.34" x2="299.85" y2="959.34" style="stroke:#000000;stroke-width:5.76"/>
	<text x="279.80" y="994.37" style="font-family:'Helvetica';font-size:99.99px;fill:#000000" text-anchor="end">0.12</text>
	<line x1="339.82" y1="804.15" x2="299.85" y2="804.15" style="stroke:#000000;stroke-width:5.76"/>
	<text x="279.80" y="839.18" style="font-family:'Helvetica';font-size:99.99px;fill:#000000" text-anchor="end">0.14</text>
	<line x1="339.82" y1="649.09" x2="299.85" y2="649.09" style="stroke:#000000;stroke-width:5.76"/>
	<text x="279.80" y="684.12" style="font-family:'Helvetica';font-size:99.99px;fill:#000000" text-anchor="end">0.16</text>
	<line x1="339.82" y1="493.90" x2="299.85" y2="493.90" style="stroke:#000000;stroke-width:5.76"/>
	<text x="279.80" y="528.93" style="font-family:'Helvetica';font-size:99.99px;fill:#000000" text-anchor="end">0.18</text>
	<line x1="339.82" y1="338.71" x2="299.85" y2="338.71" style="stroke:#000000;stroke-width:5.76"/>
	<text x="279.80" y="373.74" style="font-family:'Helvetica';font-size:99.99px;fill:#000000" text-anchor="end">0.20</text>
	<text x="190.71" y="1114.53" style="font-family:'Helvetica';font-size:99.99px;fill:#000000" transform="rotate(-90 190.71,1114.53)" text-anchor="middle">Cumulative AKI</text>
	<line x1="339.82" y1="1953.70" x2="3859.02" y2="1953.70" style="stroke:#000000;stroke-width:5.76"/>
	<line x1="403.18" y1="1953.70" x2="403.18" y2="1993.67" style="stroke:#000000;stroke-width:5.76"/>
	<text x="403.18" y="2083.66" style="font-family:'Helvetica';font-size:99.99px;fill:#000000" text-anchor="middle">0</text>
	<line x1="1251.24" y1="1953.70" x2="1251.24" y2="1993.67" style="stroke:#000000;stroke-width:5.76"/>
	<text x="1251.24" y="2083.66" style="font-family:'Helvetica';font-size:99.99px;fill:#000000" text-anchor="middle">.5</text>
	<line x1="2099.42" y1="1953.70" x2="2099.42" y2="1993.67" style="stroke:#000000;stroke-width:5.76"/>
	<text x="2099.42" y="2083.66" style="font-family:'Helvetica';font-size:99.99px;fill:#000000" text-anchor="middle">1</text>
	<line x1="2947.60" y1="1953.70" x2="2947.60" y2="1993.67" style="stroke:#000000;stroke-width:5.76"/>
	<text x="2947.60" y="2083.66" style="font-family:'Helvetica';font-size:99.99px;fill:#000000" text-anchor="middle">1.5</text>
	<line x1="3795.66" y1="1953.70" x2="3795.66" y2="1993.67" style="stroke:#000000;stroke-width:5.76"/>
	<text x="3795.66" y="2083.66" style="font-family:'Helvetica';font-size:99.99px;fill:#000000" text-anchor="middle">2</text>
	<text x="2099.42" y="2193.67" style="font-family:'Helvetica';font-size:99.99px;fill:#000000" text-anchor="middle">Follow-up (years)</text>
	<rect x="374.34" y="2278.31" width="3450.15" height="466.30" style="fill:#FFFFFF"/>
	<rect x="377.22" y="2281.19" width="3444.39" height="460.54" style="fill:none;stroke:#000000;stroke-width:5.76"/>
	<line x1="417.53" y1="2371.50" x2="624.81" y2="2371.50" style="stroke:#1A476F;stroke-width:8.64"/>
	<line x1="2138.15" y1="2371.50" x2="2345.43" y2="2371.50" style="stroke:#90353B;stroke-width:8.64"/>
	<line x1="417.53" y1="2511.46" x2="624.81" y2="2511.46" style="stroke:#55752F;stroke-width:8.64"/>
	<line x1="2138.15" y1="2511.46" x2="2345.43" y2="2511.46" style="stroke:#E37E00;stroke-width:8.64"/>
	<line x1="417.53" y1="2651.43" x2="624.81" y2="2651.43" style="stroke:#6E8E84;stroke-width:8.64"/>
	<text x="657.98" y="2406.52" style="font-family:'Helvetica';font-size:99.99px;fill:#000000">covid_vax_status = SARS-CoV-2 pre-vaccination</text>
	<text x="2378.60" y="2406.52" style="font-family:'Helvetica';font-size:99.99px;fill:#000000">covid_vax_status = SARS-CoV-2 after 1 vaccine dose</text>
	<text x="657.98" y="2546.49" style="font-family:'Helvetica';font-size:99.99px;fill:#000000">covid_vax_status = SARS-CoV-2 after 2 vaccine doses</text>
	<text x="2378.60" y="2546.49" style="font-family:'Helvetica';font-size:99.99px;fill:#000000">covid_vax_status = SARS-CoV-2 after 3 vaccine doses</text>
	<text x="657.98" y="2686.46" style="font-family:'Helvetica';font-size:99.99px;fill:#000000">covid_vax_status = SARS-CoV-2 after 4 vaccine doses</text>
	<text x="2099.42" y="215.98" style="font-family:'Helvetica';font-size:139.96px;fill:#1E2D53" text-anchor="middle">Cumulative AKI after SARS-CoV-2 survival by covid_vax_status</text>
</svg>
