<?xml version="1.0" encoding="UTF-8" standalone="no"?>
<!-- This is a Stata 17.0 generated SVG file (http://www.stata.com) -->

<svg version="1.1" width="5.500in" height="4.000in" viewBox="0 0 3960 2880" xmlns="http://www.w3.org/2000/svg" xmlns:xlink="http://www.w3.org/1999/xlink">
	<desc>Stata Graph - Graph</desc>
	<rect x="0" y="0" width="3960" height="2880" style="fill:#EAF2F3;stroke:none"/>
	<rect x="0.00" y="0.00" width="3959.88" height="2880.00" style="fill:#EAF2F3"/>
	<rect x="2.88" y="2.88" width="3954.12" height="2874.24" style="fill:none;stroke:#EAF2F3;stroke-width:5.76"/>
	<rect x="312.22" y="275.35" width="3546.80" height="1958.28" style="fill:#FFFFFF"/>
	<rect x="315.10" y="278.23" width="3541.04" height="1952.52" style="fill:none;stroke:#FFFFFF;stroke-width:5.76"/>
	<line x1="312.22" y1="2170.27" x2="3859.02" y2="2170.27" style="stroke:#EAF2F3;stroke-width:8.64"/>
	<line x1="312.22" y1="2115.32" x2="3859.02" y2="2115.32" style="stroke:#EAF2F3;stroke-width:8.64"/>
	<line x1="312.22" y1="2060.38" x2="3859.02" y2="2060.38" style="stroke:#EAF2F3;stroke-width:8.64"/>
	<line x1="312.22" y1="2005.43" x2="3859.02" y2="2005.43" style="stroke:#EAF2F3;stroke-width:8.64"/>
	<line x1="312.22" y1="1950.48" x2="3859.02" y2="1950.48" style="stroke:#EAF2F3;stroke-width:8.64"/>
	<line x1="312.22" y1="1895.54" x2="3859.02" y2="1895.54" style="stroke:#EAF2F3;stroke-width:8.64"/>
	<line x1="312.22" y1="1840.59" x2="3859.02" y2="1840.59" style="stroke:#EAF2F3;stroke-width:8.64"/>
	<line x1="312.22" y1="1785.64" x2="3859.02" y2="1785.64" style="stroke:#EAF2F3;stroke-width:8.64"/>
	<line x1="312.22" y1="1730.70" x2="3859.02" y2="1730.70" style="stroke:#EAF2F3;stroke-width:8.64"/>
	<line x1="312.22" y1="1675.75" x2="3859.02" y2="1675.75" style="stroke:#EAF2F3;stroke-width:8.64"/>
	<line x1="312.22" y1="1620.80" x2="3859.02" y2="1620.80" style="stroke:#EAF2F3;stroke-width:8.64"/>
	<path d=" M375.58 2170.40 L375.58 2170.40 L375.58 2170.40 L380.28 2170.40 L380.28 2170.40 L403.67 2170.40 L403.67 2170.40 L455.15 2170.40 L455.15 2144.90 L459.86 2144.90 L459.86 2119.53 L469.26 2119.53 L469.26 2094.04 L487.95 2094.04 L487.95 2094.04 L501.93 2094.04 L501.93 2068.42 L516.04 2068.42 L516.04 2042.68 L544.13 2042.68 L544.13 2017.06 L558.11 2017.06 L558.11 1991.32 L562.82 1991.32 L562.82 1965.71 L567.52 1965.71 L567.52 1939.97 L586.20 1939.97 L586.20 1888.61 L614.29 1888.61 L614.29 1862.87 L642.39 1862.87 L642.39 1837.25 L670.48 1837.25 L670.48 1785.89 L693.99 1785.89 L693.99 1760.15 L703.27 1760.15 L703.27 1734.53 L778.26 1734.53 L778.26 1708.79 L801.65 1708.79 L801.65 1683.18 L825.04 1683.18 L825.04 1657.44 L843.73 1657.44 L843.73 1631.45 L848.43 1631.45 L848.43 1631.45 L881.22 1631.45 L881.22 1631.45 L885.93 1631.45 L885.93 1604.59 L890.63 1604.59 L890.63 1577.61 L923.30 1577.61 L923.30 1550.64 L937.41 1550.64 L937.41 1523.78 L974.90 1523.78 L974.90 1523.78 L1016.98 1523.78 L1016.98 1496.43 L1045.07 1496.43 L1045.07 1496.43 L1077.86 1496.43 L1077.86 1468.46 L1101.25 1468.46 L1101.25 1440.37 L1190.23 1440.37 L1190.23 1412.40 L1194.93 1412.40 L1194.93 1412.40 L1199.63 1412.40 L1199.63 1412.40 L1223.02 1412.40 L1223.02 1383.20 L1255.82 1383.20 L1255.82 1353.87 L1288.48 1353.87 L1288.48 1324.66 L1293.19 1324.66 L1293.19 1324.66 L1307.30 1324.66 L1307.30 1294.47 L1321.28 1294.47 L1321.28 1294.47 L1344.67 1294.47 L1344.67 1263.77 L1349.37 1263.77 L1349.37 1263.77 L1377.46 1263.77 L1377.46 1263.77 L1400.85 1263.77 L1400.85 1263.77 L1405.55 1263.77 L1405.55 1263.77 L1414.96 1263.77 L1414.96 1263.77 L1424.36 1263.77 L1424.36 1229.62 L1485.12 1229.62 L1485.12 1195.59 L1489.83 1195.59 L1489.83 1195.59 L1546.01 1195.59 L1546.01 1195.59 L1564.82 1195.59 L1564.82 1195.59 L1578.80 1195.59 L1578.80 1195.59 L1658.37 1195.59 L1658.37 1158.71 L1677.18 1158.71 L1677.18 1158.71 L1686.47 1158.71 L1686.47 1120.96 L1695.87 1120.96 L1695.87 1083.22 L1709.85 1083.22 L1709.85 1083.22 L1770.74 1083.22 L1770.74 1044.61 L1784.85 1044.61 L1784.85 1006.00 L1892.51 1006.00 L1892.51 1006.00 L1901.91 1006.00 L1901.91 1006.00 L1920.60 1006.00 L1920.60 1006.00 L1939.29 1006.00 L1939.29 1006.00 L1986.19 1006.00 L1986.19 1006.00 L1990.77 1006.00 L1990.77 1006.00 L2075.04 1006.00 L2075.04 1006.00 L2107.83 1006.00 L2107.83 1006.00 L2131.22 1006.00 L2131.22 1006.00 L2135.93 1006.00 L2135.93 956.49 L2173.42 956.49 L2173.42 906.99 L2248.29 906.99 L2248.29 857.61 L2271.68 857.61 L2271.68 857.61 L2281.08 857.61 L2281.08 857.61 L2299.77 857.61 L2299.77 857.61 L2384.04 857.61 L2384.04 802.42 L2407.43 802.42 L2407.43 802.42 L2459.04 802.42 L2459.04 744.87 L2473.02 744.87 L2473.02 744.87 L2505.81 744.87 L2505.81 684.85 L2533.91 684.85 L2533.91 684.85 L2562.00 684.85 L2562.00 684.85 L2604.07 684.85 L2604.07 684.85 L2763.34 684.85 L2763.34 684.85 L2805.41 684.85 L2805.41 610.60 L2983.37 610.60 L2983.37 610.60 L3034.85 610.60 L3034.85 610.60 L3053.53 610.60 L3053.53 610.60 L3067.64 610.60 L3067.64 610.60 L3105.14 610.60 L3105.14 610.60 L3161.32 610.60 L3161.32 610.60 L3165.90 610.60 L3165.90 610.60 L3217.50 610.60 L3217.50 610.60 L3287.67 610.60 L3287.67 610.60 L3306.35 610.60 L3306.35 610.60 L3409.44 610.60 L3409.44 610.60 L3512.40 610.60 L3512.40 610.60 L3535.79 610.60 L3535.79 610.60 L3554.60 610.60 L3554.60 610.60 L3624.76 610.60 L3624.76 610.60 L3634.17 610.60 L3634.17 610.60" stroke-linejoin="round" style="fill:none;stroke:#1A476F;stroke-width:8.64"/>
	<path d=" M375.58 2170.40 L375.58 2170.40 L375.58 2170.40 L441.17 2170.40 L441.17 1712.51 L637.81 1712.51 L637.81 1254.62 L1110.66 1254.62 L1110.66 796.73 L1976.78 796.73 L1976.78 338.84 L2529.20 338.84 L2529.20 338.84 L3456.21 338.84 L3456.21 338.84" stroke-linejoin="round" style="fill:none;stroke:#90353B;stroke-width:8.64"/>
	<line x1="312.22" y1="2233.63" x2="312.22" y2="275.35" style="stroke:#000000;stroke-width:5.76"/>
	<line x1="312.22" y1="2170.27" x2="272.25" y2="2170.27" style="stroke:#000000;stroke-width:5.76"/>
	<text x="252.33" y="2205.30" style="font-family:'Helvetica';font-size:99.99px;fill:#000000" text-anchor="end">0.00</text>
	<line x1="312.22" y1="2115.32" x2="272.25" y2="2115.32" style="stroke:#000000;stroke-width:5.76"/>
	<text x="252.33" y="2150.35" style="font-family:'Helvetica';font-size:99.99px;fill:#000000" text-anchor="end">0.02</text>
	<line x1="312.22" y1="2060.38" x2="272.25" y2="2060.38" style="stroke:#000000;stroke-width:5.76"/>
	<text x="252.33" y="2095.41" style="font-family:'Helvetica';font-size:99.99px;fill:#000000" text-anchor="end">0.04</text>
	<line x1="312.22" y1="2005.43" x2="272.25" y2="2005.43" style="stroke:#000000;stroke-width:5.76"/>
	<text x="252.33" y="2040.46" style="font-family:'Helvetica';font-size:99.99px;fill:#000000" text-anchor="end">0.06</text>
	<line x1="312.22" y1="1950.48" x2="272.25" y2="1950.48" style="stroke:#000000;stroke-width:5.76"/>
	<text x="252.33" y="1985.51" style="font-family:'Helvetica';font-size:99.99px;fill:#000000" text-anchor="end">0.08</text>
	<line x1="312.22" y1="1895.54" x2="272.25" y2="1895.54" style="stroke:#000000;stroke-width:5.76"/>
	<text x="252.33" y="1930.57" style="font-family:'Helvetica';font-size:99.99px;fill:#000000" text-anchor="end">0.10</text>
	<line x1="312.22" y1="1840.59" x2="272.25" y2="1840.59" style="stroke:#000000;stroke-width:5.76"/>
	<text x="252.33" y="1875.62" style="font-family:'Helvetica';font-size:99.99px;fill:#000000" text-anchor="end">0.12</text>
	<line x1="312.22" y1="1785.64" x2="272.25" y2="1785.64" style="stroke:#000000;stroke-width:5.76"/>
	<text x="252.33" y="1820.67" style="font-family:'Helvetica';font-size:99.99px;fill:#000000" text-anchor="end">0.14</text>
	<line x1="312.22" y1="1730.70" x2="272.25" y2="1730.70" style="stroke:#000000;stroke-width:5.76"/>
	<text x="252.33" y="1765.73" style="font-family:'Helvetica';font-size:99.99px;fill:#000000" text-anchor="end">0.16</text>
	<line x1="312.22" y1="1675.75" x2="272.25" y2="1675.75" style="stroke:#000000;stroke-width:5.76"/>
	<text x="252.33" y="1710.78" style="font-family:'Helvetica';font-size:99.99px;fill:#000000" text-anchor="end">0.18</text>
	<line x1="312.22" y1="1620.80" x2="272.25" y2="1620.80" style="stroke:#000000;stroke-width:5.76"/>
	<text x="252.33" y="1655.83" style="font-family:'Helvetica';font-size:99.99px;fill:#000000" text-anchor="end">0.20</text>
	<text x="190.71" y="1254.49" style="font-family:'Helvetica';font-size:99.99px;fill:#000000" transform="rotate(-90 190.71,1254.49)" text-anchor="middle">Cumulative 50% eGFR reduction</text>
	<line x1="312.22" y1="2233.63" x2="3859.02" y2="2233.63" style="stroke:#000000;stroke-width:5.76"/>
	<line x1="375.58" y1="2233.63" x2="375.58" y2="2273.73" style="stroke:#000000;stroke-width:5.76"/>
	<text x="375.58" y="2363.59" style="font-family:'Helvetica';font-size:99.99px;fill:#000000" text-anchor="middle">0</text>
	<line x1="1230.69" y1="2233.63" x2="1230.69" y2="2273.73" style="stroke:#000000;stroke-width:5.76"/>
	<text x="1230.69" y="2363.59" style="font-family:'Helvetica';font-size:99.99px;fill:#000000" text-anchor="middle">.5</text>
	<line x1="2085.68" y1="2233.63" x2="2085.68" y2="2273.73" style="stroke:#000000;stroke-width:5.76"/>
	<text x="2085.68" y="2363.59" style="font-family:'Helvetica';font-size:99.99px;fill:#000000" text-anchor="middle">1</text>
	<line x1="2940.67" y1="2233.63" x2="2940.67" y2="2273.73" style="stroke:#000000;stroke-width:5.76"/>
	<text x="2940.67" y="2363.59" style="font-family:'Helvetica';font-size:99.99px;fill:#000000" text-anchor="middle">1.5</text>
	<line x1="3795.78" y1="2233.63" x2="3795.78" y2="2273.73" style="stroke:#000000;stroke-width:5.76"/>
	<text x="3795.78" y="2363.59" style="font-family:'Helvetica';font-size:99.99px;fill:#000000" text-anchor="middle">2</text>
	<text x="2085.68" y="2473.60" style="font-family:'Helvetica';font-size:99.99px;fill:#000000" text-anchor="middle">Follow-up (years)</text>
	<rect x="346.87" y="2558.24" width="3477.62" height="186.37" style="fill:#FFFFFF"/>
	<rect x="349.75" y="2561.12" width="3471.86" height="180.61" style="fill:none;stroke:#000000;stroke-width:5.76"/>
	<line x1="390.06" y1="2651.43" x2="572.84" y2="2651.43" style="stroke:#1A476F;stroke-width:8.64"/>
	<line x1="2154.74" y1="2651.43" x2="2337.64" y2="2651.43" style="stroke:#90353B;stroke-width:8.64"/>
	<text x="602.17" y="2686.46" style="font-family:'Helvetica';font-size:99.99px;fill:#000000">covid_acute_kidney_injury = COVID-19 without acute kidney injury</text>
	<text x="2366.97" y="2686.46" style="font-family:'Helvetica';font-size:99.99px;fill:#000000">covid_acute_kidney_injury = COVID-19 with acute kidney injury</text>
	<text x="2085.68" y="215.98" style="font-family:'Helvetica';font-size:139.96px;fill:#1E2D53" text-anchor="middle">Cumulative 50% eGFR reduction after SARS-CoV-2 survival by covid_acute_kidney_injury</text>
</svg>
