<?xml version="1.0" encoding="UTF-8" standalone="no"?>
<!-- This is a Stata 17.0 generated SVG file (http://www.stata.com) -->

<svg version="1.1" width="5.500in" height="4.000in" viewBox="0 0 3960 2880" xmlns="http://www.w3.org/2000/svg" xmlns:xlink="http://www.w3.org/1999/xlink">
	<desc>Stata Graph - Graph</desc>
	<rect x="0" y="0" width="3960" height="2880" style="fill:#EAF2F3;stroke:none"/>
	<rect x="0.00" y="0.00" width="3959.88" height="2880.00" style="fill:#EAF2F3"/>
	<rect x="2.88" y="2.88" width="3954.12" height="2874.24" style="fill:none;stroke:#EAF2F3;stroke-width:5.76"/>
	<rect x="360.11" y="275.35" width="3498.91" height="1818.32" style="fill:#FFFFFF"/>
	<rect x="362.99" y="278.23" width="3493.15" height="1812.56" style="fill:none;stroke:#FFFFFF;stroke-width:5.76"/>
	<line x1="360.11" y1="2030.31" x2="3859.02" y2="2030.31" style="stroke:#EAF2F3;stroke-width:8.64"/>
	<line x1="360.11" y1="1978.45" x2="3859.02" y2="1978.45" style="stroke:#EAF2F3;stroke-width:8.64"/>
	<line x1="360.11" y1="1926.72" x2="3859.02" y2="1926.72" style="stroke:#EAF2F3;stroke-width:8.64"/>
	<line x1="360.11" y1="1874.87" x2="3859.02" y2="1874.87" style="stroke:#EAF2F3;stroke-width:8.64"/>
	<line x1="360.11" y1="1823.02" x2="3859.02" y2="1823.02" style="stroke:#EAF2F3;stroke-width:8.64"/>
	<line x1="360.11" y1="1771.17" x2="3859.02" y2="1771.17" style="stroke:#EAF2F3;stroke-width:8.64"/>
	<line x1="360.11" y1="1719.31" x2="3859.02" y2="1719.31" style="stroke:#EAF2F3;stroke-width:8.64"/>
	<line x1="360.11" y1="1667.58" x2="3859.02" y2="1667.58" style="stroke:#EAF2F3;stroke-width:8.64"/>
	<line x1="360.11" y1="1615.73" x2="3859.02" y2="1615.73" style="stroke:#EAF2F3;stroke-width:8.64"/>
	<line x1="360.11" y1="1563.88" x2="3859.02" y2="1563.88" style="stroke:#EAF2F3;stroke-width:8.64"/>
	<line x1="360.11" y1="1512.02" x2="3859.02" y2="1512.02" style="stroke:#EAF2F3;stroke-width:8.64"/>
	<path d=" M423.47 2030.43 L423.47 2030.43 L423.47 2030.43 L423.47 2030.43 L423.47 2030.43 L451.19 2030.43 L451.19 2030.43 L488.07 2030.43 L488.07 2001.60 L501.93 2001.60 L501.93 1972.76 L506.51 1972.76 L506.51 1944.05 L515.79 1944.05 L515.79 1915.21 L548.09 1915.21 L548.09 1886.38 L589.67 1886.38 L589.67 1857.67 L603.53 1857.67 L603.53 1828.83 L612.69 1828.83 L612.69 1800.00 L631.13 1800.00 L631.13 1742.45 L658.85 1742.45 L658.85 1713.62 L681.99 1713.62 L681.99 1684.91 L686.57 1684.91 L686.57 1656.07 L714.29 1656.07 L714.29 1598.53 L737.30 1598.53 L737.30 1569.69 L746.58 1569.69 L746.58 1540.86 L820.46 1540.86 L820.46 1512.15 L866.62 1512.15 L866.62 1512.15 L885.06 1512.15 L885.06 1482.94 L889.64 1482.94 L889.64 1482.94 L921.94 1482.94 L921.94 1482.94 L926.64 1482.94 L926.64 1452.87 L931.22 1452.87 L931.22 1422.80 L963.52 1422.80 L963.52 1392.73 L977.38 1392.73 L977.38 1362.65 L1014.38 1362.65 L1014.38 1362.65 L1055.84 1362.65 L1055.84 1332.09 L1115.85 1332.09 L1115.85 1301.64 L1138.99 1301.64 L1138.99 1271.08 L1148.15 1271.08 L1148.15 1240.51 L1226.73 1240.51 L1226.73 1240.51 L1259.03 1240.51 L1259.03 1209.45 L1291.33 1209.45 L1291.33 1178.38 L1323.63 1178.38 L1323.63 1147.32 L1328.21 1147.32 L1328.21 1147.32 L1342.07 1147.32 L1342.07 1115.15 L1379.07 1115.15 L1379.07 1115.15 L1383.65 1115.15 L1383.65 1115.15 L1411.37 1115.15 L1411.37 1115.15 L1434.39 1115.15 L1434.39 1115.15 L1438.97 1115.15 L1438.97 1115.15 L1448.25 1115.15 L1448.25 1115.15 L1457.53 1115.15 L1457.53 1078.64 L1517.55 1078.64 L1517.55 1042.26 L1522.13 1042.26 L1522.13 1042.26 L1577.57 1042.26 L1577.57 1042.26 L1596.00 1042.26 L1596.00 1042.26 L1609.86 1042.26 L1609.86 1042.26 L1688.32 1042.26 L1688.32 1002.16 L1706.76 1002.16 L1706.76 1002.16 L1716.04 1002.16 L1716.04 961.07 L1725.20 961.07 L1725.20 919.86 L1812.94 919.86 L1812.94 878.78 L1919.12 878.78 L1919.12 878.78 L1928.40 878.78 L1928.40 878.78 L1946.84 878.78 L1946.84 878.78 L1965.27 878.78 L1965.27 878.78 L2011.43 878.78 L2011.43 878.78 L2016.01 878.78 L2016.01 878.78 L2099.17 878.78 L2099.17 878.78 L2131.47 878.78 L2131.47 878.78 L2154.61 878.78 L2154.61 878.78 L2159.19 878.78 L2159.19 823.33 L2269.95 823.33 L2269.95 768.02 L2302.25 768.02 L2302.25 768.02 L2320.68 768.02 L2320.68 768.02 L2403.84 768.02 L2403.84 707.62 L2426.86 707.62 L2426.86 707.62 L2477.72 707.62 L2477.72 644.14 L2523.88 644.14 L2523.88 580.78 L2546.90 580.78 L2546.90 580.78 L2551.60 580.78 L2551.60 580.78 L2579.20 580.78 L2579.20 580.78 L2620.78 580.78 L2620.78 580.78 L2994.75 580.78 L2994.75 580.78 L3045.49 580.78 L3045.49 580.78 L3063.93 580.78 L3063.93 580.78 L3077.79 580.78 L3077.79 580.78 L3114.79 580.78 L3114.79 580.78 L3170.10 580.78 L3170.10 580.78 L3225.54 580.78 L3225.54 580.78 L3294.84 580.78 L3294.84 580.78 L3313.28 580.78 L3313.28 580.78 L3460.92 580.78 L3460.92 580.78 L3516.36 580.78 L3516.36 580.78 L3539.50 580.78 L3539.50 580.78 L3557.94 580.78 L3557.94 580.78 L3627.11 580.78 L3627.11 580.78" stroke-linejoin="round" style="fill:none;stroke:#1A476F;stroke-width:8.64"/>
	<path d=" M423.47 2030.43 L423.47 2030.43 L423.47 2030.43 L423.47 2030.43 L423.47 2030.43 L428.05 2030.43 L428.05 2030.43 L608.11 2030.43 L608.11 1794.80 L866.62 1794.80 L866.62 1559.17 L889.64 1559.17 L889.64 1559.17 L1083.56 1559.17 L1083.56 1559.17 L1226.73 1559.17 L1226.73 1256.35 L1235.89 1256.35 L1235.89 1256.35 L1355.93 1256.35 L1355.93 1256.35 L1739.06 1256.35 L1739.06 1256.35 L1799.08 1256.35 L1799.08 650.57 L2491.58 650.57 L2491.58 650.57 L3414.76 650.57 L3414.76 650.57" stroke-linejoin="round" style="fill:none;stroke:#90353B;stroke-width:8.64"/>
	<path d=" M423.47 2030.43 L423.47 2030.43 L423.47 2030.43 L423.47 2030.43 L423.47 2030.43 L534.23 2030.43 L534.23 2030.43 L561.95 2030.43 L561.95 1814.48 L843.48 1814.48 L843.48 1598.53 L1055.84 1598.53 L1055.84 1598.53 L1231.31 1598.53 L1231.31 1598.53 L1379.07 1598.53 L1379.07 1328.50 L2002.28 1328.50 L2002.28 1058.59 L2196.07 1058.59 L2196.07 788.68 L2293.09 788.68 L2293.09 788.68 L2777.82 788.68 L2777.82 788.68 L2819.27 788.68 L2819.27 338.84 L3174.81 338.84 L3174.81 338.84 L3636.39 338.84 L3636.39 338.84" stroke-linejoin="round" style="fill:none;stroke:#55752F;stroke-width:8.64"/>
	<line x1="360.11" y1="2093.67" x2="360.11" y2="275.35" style="stroke:#000000;stroke-width:5.76"/>
	<line x1="360.11" y1="2030.31" x2="320.14" y2="2030.31" style="stroke:#000000;stroke-width:5.76"/>
	<text x="300.09" y="2065.33" style="font-family:'Helvetica';font-size:99.99px;fill:#000000" text-anchor="end">0.00</text>
	<line x1="360.11" y1="1978.45" x2="320.14" y2="1978.45" style="stroke:#000000;stroke-width:5.76"/>
	<text x="300.09" y="2013.48" style="font-family:'Helvetica';font-size:99.99px;fill:#000000" text-anchor="end">0.02</text>
	<line x1="360.11" y1="1926.72" x2="320.14" y2="1926.72" style="stroke:#000000;stroke-width:5.76"/>
	<text x="300.09" y="1961.75" style="font-family:'Helvetica';font-size:99.99px;fill:#000000" text-anchor="end">0.04</text>
	<line x1="360.11" y1="1874.87" x2="320.14" y2="1874.87" style="stroke:#000000;stroke-width:5.76"/>
	<text x="300.09" y="1909.90" style="font-family:'Helvetica';font-size:99.99px;fill:#000000" text-anchor="end">0.06</text>
	<line x1="360.11" y1="1823.02" x2="320.14" y2="1823.02" style="stroke:#000000;stroke-width:5.76"/>
	<text x="300.09" y="1858.05" style="font-family:'Helvetica';font-size:99.99px;fill:#000000" text-anchor="end">0.08</text>
	<line x1="360.11" y1="1771.17" x2="320.14" y2="1771.17" style="stroke:#000000;stroke-width:5.76"/>
	<text x="300.09" y="1806.19" style="font-family:'Helvetica';font-size:99.99px;fill:#000000" text-anchor="end">0.10</text>
	<line x1="360.11" y1="1719.31" x2="320.14" y2="1719.31" style="stroke:#000000;stroke-width:5.76"/>
	<text x="300.09" y="1754.34" style="font-family:'Helvetica';font-size:99.99px;fill:#000000" text-anchor="end">0.12</text>
	<line x1="360.11" y1="1667.58" x2="320.14" y2="1667.58" style="stroke:#000000;stroke-width:5.76"/>
	<text x="300.09" y="1702.61" style="font-family:'Helvetica';font-size:99.99px;fill:#000000" text-anchor="end">0.14</text>
	<line x1="360.11" y1="1615.73" x2="320.14" y2="1615.73" style="stroke:#000000;stroke-width:5.76"/>
	<text x="300.09" y="1650.76" style="font-family:'Helvetica';font-size:99.99px;fill:#000000" text-anchor="end">0.16</text>
	<line x1="360.11" y1="1563.88" x2="320.14" y2="1563.88" style="stroke:#000000;stroke-width:5.76"/>
	<text x="300.09" y="1598.91" style="font-family:'Helvetica';font-size:99.99px;fill:#000000" text-anchor="end">0.18</text>
	<line x1="360.11" y1="1512.02" x2="320.14" y2="1512.02" style="stroke:#000000;stroke-width:5.76"/>
	<text x="300.09" y="1547.05" style="font-family:'Helvetica';font-size:99.99px;fill:#000000" text-anchor="end">0.20</text>
	<text x="190.71" y="1184.57" style="font-family:'Helvetica';font-size:99.99px;fill:#000000" transform="rotate(-90 190.71,1184.57)" text-anchor="middle">Cumulative 50% eGFR reduction</text>
	<line x1="360.11" y1="2093.67" x2="3859.02" y2="2093.67" style="stroke:#000000;stroke-width:5.76"/>
	<line x1="423.47" y1="2093.67" x2="423.47" y2="2133.64" style="stroke:#000000;stroke-width:5.76"/>
	<text x="423.47" y="2223.62" style="font-family:'Helvetica';font-size:99.99px;fill:#000000" text-anchor="middle">0</text>
	<line x1="1266.58" y1="2093.67" x2="1266.58" y2="2133.64" style="stroke:#000000;stroke-width:5.76"/>
	<text x="1266.58" y="2223.62" style="font-family:'Helvetica';font-size:99.99px;fill:#000000" text-anchor="middle">.5</text>
	<line x1="2109.57" y1="2093.67" x2="2109.57" y2="2133.64" style="stroke:#000000;stroke-width:5.76"/>
	<text x="2109.57" y="2223.62" style="font-family:'Helvetica';font-size:99.99px;fill:#000000" text-anchor="middle">1</text>
	<line x1="2952.68" y1="2093.67" x2="2952.68" y2="2133.64" style="stroke:#000000;stroke-width:5.76"/>
	<text x="2952.68" y="2223.62" style="font-family:'Helvetica';font-size:99.99px;fill:#000000" text-anchor="middle">1.5</text>
	<line x1="3795.66" y1="2093.67" x2="3795.66" y2="2133.64" style="stroke:#000000;stroke-width:5.76"/>
	<text x="3795.66" y="2223.62" style="font-family:'Helvetica';font-size:99.99px;fill:#000000" text-anchor="middle">2</text>
	<text x="2109.57" y="2333.64" style="font-family:'Helvetica';font-size:99.99px;fill:#000000" text-anchor="middle">Follow-up (years)</text>
	<rect x="394.64" y="2418.27" width="3429.86" height="326.34" style="fill:#FFFFFF"/>
	<rect x="397.52" y="2421.15" width="3424.10" height="320.58" style="fill:none;stroke:#000000;stroke-width:5.76"/>
	<line x1="437.95" y1="2511.46" x2="663.18" y2="2511.46" style="stroke:#1A476F;stroke-width:8.64"/>
	<line x1="2235.05" y1="2511.46" x2="2460.40" y2="2511.46" style="stroke:#90353B;stroke-width:8.64"/>
	<line x1="437.95" y1="2651.43" x2="663.18" y2="2651.43" style="stroke:#55752F;stroke-width:8.64"/>
	<text x="699.31" y="2546.49" style="font-family:'Helvetica';font-size:99.99px;fill:#000000">covid_severity = SARS-CoV-2 without hospitalisation</text>
	<text x="2496.53" y="2546.49" style="font-family:'Helvetica';font-size:99.99px;fill:#000000">covid_severity = COVID-19 with hospitalisation</text>
	<text x="699.31" y="2686.46" style="font-family:'Helvetica';font-size:99.99px;fill:#000000">covid_severity = COVID-19 with critical care</text>
	<text x="2109.57" y="215.98" style="font-family:'Helvetica';font-size:139.96px;fill:#1E2D53" text-anchor="middle">Cumulative 50% eGFR reduction after SARS-CoV-2 survival by covid_severity</text>
</svg>
