<?xml version="1.0" encoding="UTF-8" standalone="no"?>
<!-- This is a Stata 17.0 generated SVG file (http://www.stata.com) -->

<svg version="1.1" width="5.500in" height="4.000in" viewBox="0 0 3960 2880" xmlns="http://www.w3.org/2000/svg" xmlns:xlink="http://www.w3.org/1999/xlink">
	<desc>Stata Graph - Graph</desc>
	<rect x="0" y="0" width="3960" height="2880" style="fill:#EAF2F3;stroke:none"/>
	<rect x="0.00" y="0.00" width="3959.88" height="2880.00" style="fill:#EAF2F3"/>
	<rect x="2.88" y="2.88" width="3954.12" height="2874.24" style="fill:none;stroke:#EAF2F3;stroke-width:5.76"/>
	<rect x="339.82" y="275.35" width="3519.20" height="1678.35" style="fill:#FFFFFF"/>
	<rect x="342.70" y="278.23" width="3513.44" height="1672.59" style="fill:none;stroke:#FFFFFF;stroke-width:5.76"/>
	<line x1="339.82" y1="1890.34" x2="3859.02" y2="1890.34" style="stroke:#EAF2F3;stroke-width:8.64"/>
	<line x1="339.82" y1="1859.28" x2="3859.02" y2="1859.28" style="stroke:#EAF2F3;stroke-width:8.64"/>
	<line x1="339.82" y1="1828.22" x2="3859.02" y2="1828.22" style="stroke:#EAF2F3;stroke-width:8.64"/>
	<line x1="339.82" y1="1797.28" x2="3859.02" y2="1797.28" style="stroke:#EAF2F3;stroke-width:8.64"/>
	<line x1="339.82" y1="1766.22" x2="3859.02" y2="1766.22" style="stroke:#EAF2F3;stroke-width:8.64"/>
	<line x1="339.82" y1="1735.15" x2="3859.02" y2="1735.15" style="stroke:#EAF2F3;stroke-width:8.64"/>
	<line x1="339.82" y1="1704.09" x2="3859.02" y2="1704.09" style="stroke:#EAF2F3;stroke-width:8.64"/>
	<line x1="339.82" y1="1673.15" x2="3859.02" y2="1673.15" style="stroke:#EAF2F3;stroke-width:8.64"/>
	<line x1="339.82" y1="1642.09" x2="3859.02" y2="1642.09" style="stroke:#EAF2F3;stroke-width:8.64"/>
	<line x1="339.82" y1="1611.03" x2="3859.02" y2="1611.03" style="stroke:#EAF2F3;stroke-width:8.64"/>
	<line x1="339.82" y1="1579.97" x2="3859.02" y2="1579.97" style="stroke:#EAF2F3;stroke-width:8.64"/>
	<path d=" M403.05 1890.34 L403.05 1890.34 L403.05 1890.34 L403.05 1890.34 L403.05 1890.34 L403.05 1890.34 L403.05 1890.34 L403.05 1890.34 L403.05 1890.34 L825.66 1890.34 L825.66 1114.53 L2469.80 1114.53 L2469.80 338.84" stroke-linejoin="round" style="fill:none;stroke:#1A476F;stroke-width:8.64"/>
	<path d=" M403.05 1890.34 L403.05 1890.34 L403.05 1890.34 L403.05 1890.34 L403.05 1890.34 L403.05 1890.34 L403.05 1890.34 L403.05 1890.34 L403.05 1890.34 L407.76 1890.34 L407.76 1890.34 L528.54 1890.34 L528.54 1502.50 L612.07 1502.50 L612.07 1114.53 L1369.05 1114.53 L1369.05 1114.53 L2144.71 1114.53 L2144.71 1114.53" stroke-linejoin="round" style="fill:none;stroke:#90353B;stroke-width:8.64"/>
	<path d=" M403.05 1890.34 L403.05 1890.34 L403.05 1890.34 L403.05 1890.34 L403.05 1890.34 L403.05 1890.34 L403.05 1890.34 L403.05 1890.34 L403.05 1890.34 L430.90 1890.34 L430.90 1890.34 L514.55 1890.34 L514.55 1890.34 L1211.14 1890.34 L1211.14 1502.50 L1327.34 1502.50 L1327.34 1114.53 L1443.42 1114.53 L1443.42 726.68 L3170.97 726.68 L3170.97 726.68" stroke-linejoin="round" style="fill:none;stroke:#55752F;stroke-width:8.64"/>
	<path d=" M403.05 1890.34 L403.05 1890.34 L403.05 1890.34 L403.05 1890.34 L403.05 1890.34 L403.05 1890.34 L403.05 1890.34 L403.05 1890.34 L403.05 1890.34 L588.80 1890.34 L588.80 1822.89 L663.18 1822.89 L663.18 1755.45 L667.76 1755.45 L667.76 1688.00 L695.72 1688.00 L695.72 1620.56 L848.93 1620.56 L848.93 1620.56 L872.19 1620.56 L872.19 1620.56 L960.42 1620.56 L960.42 1545.19 L1099.77 1545.19 L1099.77 1469.70 L1122.91 1469.70 L1122.91 1394.33 L1308.66 1394.33 L1308.66 1394.33 L1313.36 1394.33 L1313.36 1394.33 L1341.20 1394.33 L1341.20 1394.33 L1364.47 1394.33 L1364.47 1394.33 L1596.62 1394.33 L1596.62 1394.33 L1675.58 1394.33 L1675.58 1277.02 L1954.26 1277.02 L1954.26 1277.02 L1991.39 1277.02 L1991.39 1142.99 L2088.90 1142.99 L2088.90 1142.99 L2186.42 1142.99 L2186.42 982.23 L2571.90 982.23 L2571.90 982.23 L2989.92 982.23 L2989.92 982.23 L3291.75 982.23 L3291.75 982.23 L3412.53 982.23 L3412.53 982.23" stroke-linejoin="round" style="fill:none;stroke:#E37E00;stroke-width:8.64"/>
	<path d=" M403.05 1890.34 L403.05 1890.34 L403.05 1890.34 L403.05 1890.34 L403.05 1890.34 L403.05 1890.34 L403.05 1890.34 L403.05 1890.34 L403.05 1890.34 L468.15 1890.34 L468.15 1871.03 L482.01 1871.03 L482.01 1851.61 L486.71 1851.61 L486.71 1832.18 L495.99 1832.18 L495.99 1812.87 L542.40 1812.87 L542.40 1793.44 L570.24 1793.44 L570.24 1774.01 L584.22 1774.01 L584.22 1754.58 L593.51 1754.58 L593.51 1735.28 L612.07 1735.28 L612.07 1715.85 L639.91 1715.85 L639.91 1696.42 L695.72 1696.42 L695.72 1676.99 L718.86 1676.99 L718.86 1657.68 L728.15 1657.68 L728.15 1638.25 L802.52 1638.25 L802.52 1618.82 L848.93 1618.82 L848.93 1599.52 L867.49 1599.52 L867.49 1580.09 L872.19 1580.09 L872.19 1580.09 L904.61 1580.09 L904.61 1580.09 L909.32 1580.09 L909.32 1560.04 L913.89 1560.04 L913.89 1539.99 L946.44 1539.99 L946.44 1520.07 L997.55 1520.07 L997.55 1520.07 L1039.38 1520.07 L1039.38 1499.65 L1067.22 1499.65 L1067.22 1499.65 L1132.19 1499.65 L1132.19 1478.49 L1211.14 1478.49 L1211.14 1478.49 L1215.84 1478.49 L1215.84 1478.49 L1220.42 1478.49 L1220.42 1478.49 L1243.69 1478.49 L1243.69 1456.21 L1276.23 1456.21 L1276.23 1433.81 L1308.66 1433.81 L1308.66 1411.54 L1364.47 1411.54 L1364.47 1389.14 L1396.89 1389.14 L1396.89 1389.14 L1420.16 1389.14 L1420.16 1389.14 L1424.86 1389.14 L1424.86 1389.14 L1434.14 1389.14 L1434.14 1389.14 L1503.81 1389.14 L1503.81 1364.76 L1508.39 1364.76 L1508.39 1364.76 L1564.08 1364.76 L1564.08 1364.76 L1582.76 1364.76 L1582.76 1364.76 L1694.14 1364.76 L1694.14 1364.76 L1703.42 1364.76 L1703.42 1337.78 L1712.70 1337.78 L1712.70 1310.68 L1726.68 1310.68 L1726.68 1310.68 L1787.07 1310.68 L1787.07 1282.96 L1800.93 1282.96 L1800.93 1255.24 L1907.85 1255.24 L1907.85 1255.24 L1917.14 1255.24 L1917.14 1255.24 L1935.70 1255.24 L1935.70 1255.24 L2000.67 1255.24 L2000.67 1255.24 L2005.37 1255.24 L2005.37 1255.24 L2121.45 1255.24 L2121.45 1255.24 L2149.29 1255.24 L2149.29 1221.20 L2260.79 1221.20 L2260.79 1187.29 L2283.93 1187.29 L2283.93 1187.29 L2293.21 1187.29 L2293.21 1187.29 L2311.90 1187.29 L2311.90 1187.29 L2395.43 1187.29 L2395.43 1148.68 L2418.69 1148.68 L2418.69 1148.68 L2483.66 1148.68 L2483.66 1148.68 L2516.21 1148.68 L2516.21 1106.11 L2539.47 1106.11 L2539.47 1106.11 L2544.05 1106.11 L2544.05 1106.11 L2613.72 1106.11 L2613.72 1106.11 L2771.63 1106.11 L2771.63 1106.11 L2813.46 1106.11 L2813.46 1051.29 L3041.03 1051.29 L3041.03 1051.29 L3059.60 1051.29 L3059.60 1051.29 L3073.46 1051.29 L3073.46 1051.29 L3110.70 1051.29 L3110.70 1051.29 L3166.39 1051.29 L3166.39 1051.29 L3222.08 1051.29 L3222.08 1051.29 L3310.31 1051.29 L3310.31 1051.29 L3458.94 1051.29 L3458.94 1051.29 L3514.75 1051.29 L3514.75 1051.29 L3537.89 1051.29 L3537.89 1051.29 L3556.45 1051.29 L3556.45 1051.29 L3626.12 1051.29 L3626.12 1051.29 L3635.40 1051.29 L3635.40 1051.29" stroke-linejoin="round" style="fill:none;stroke:#6E8E84;stroke-width:8.64"/>
	<line x1="339.82" y1="1953.70" x2="339.82" y2="275.35" style="stroke:#000000;stroke-width:5.76"/>
	<line x1="339.82" y1="1890.34" x2="299.85" y2="1890.34" style="stroke:#000000;stroke-width:5.76"/>
	<text x="279.80" y="1925.37" style="font-family:'Helvetica';font-size:99.99px;fill:#000000" text-anchor="end">0.00</text>
	<line x1="339.82" y1="1859.28" x2="299.85" y2="1859.28" style="stroke:#000000;stroke-width:5.76"/>
	<text x="279.80" y="1894.31" style="font-family:'Helvetica';font-size:99.99px;fill:#000000" text-anchor="end">0.02</text>
	<line x1="339.82" y1="1828.22" x2="299.85" y2="1828.22" style="stroke:#000000;stroke-width:5.76"/>
	<text x="279.80" y="1863.24" style="font-family:'Helvetica';font-size:99.99px;fill:#000000" text-anchor="end">0.04</text>
	<line x1="339.82" y1="1797.28" x2="299.85" y2="1797.28" style="stroke:#000000;stroke-width:5.76"/>
	<text x="279.80" y="1832.31" style="font-family:'Helvetica';font-size:99.99px;fill:#000000" text-anchor="end">0.06</text>
	<line x1="339.82" y1="1766.22" x2="299.85" y2="1766.22" style="stroke:#000000;stroke-width:5.76"/>
	<text x="279.80" y="1801.24" style="font-family:'Helvetica';font-size:99.99px;fill:#000000" text-anchor="end">0.08</text>
	<line x1="339.82" y1="1735.15" x2="299.85" y2="1735.15" style="stroke:#000000;stroke-width:5.76"/>
	<text x="279.80" y="1770.18" style="font-family:'Helvetica';font-size:99.99px;fill:#000000" text-anchor="end">0.10</text>
	<line x1="339.82" y1="1704.09" x2="299.85" y2="1704.09" style="stroke:#000000;stroke-width:5.76"/>
	<text x="279.80" y="1739.12" style="font-family:'Helvetica';font-size:99.99px;fill:#000000" text-anchor="end">0.12</text>
	<line x1="339.82" y1="1673.15" x2="299.85" y2="1673.15" style="stroke:#000000;stroke-width:5.76"/>
	<text x="279.80" y="1708.18" style="font-family:'Helvetica';font-size:99.99px;fill:#000000" text-anchor="end">0.14</text>
	<line x1="339.82" y1="1642.09" x2="299.85" y2="1642.09" style="stroke:#000000;stroke-width:5.76"/>
	<text x="279.80" y="1677.12" style="font-family:'Helvetica';font-size:99.99px;fill:#000000" text-anchor="end">0.16</text>
	<line x1="339.82" y1="1611.03" x2="299.85" y2="1611.03" style="stroke:#000000;stroke-width:5.76"/>
	<text x="279.80" y="1646.06" style="font-family:'Helvetica';font-size:99.99px;fill:#000000" text-anchor="end">0.18</text>
	<line x1="339.82" y1="1579.97" x2="299.85" y2="1579.97" style="stroke:#000000;stroke-width:5.76"/>
	<text x="279.80" y="1614.99" style="font-family:'Helvetica';font-size:99.99px;fill:#000000" text-anchor="end">0.20</text>
	<text x="190.71" y="1114.53" style="font-family:'Helvetica';font-size:99.99px;fill:#000000" transform="rotate(-90 190.71,1114.53)" text-anchor="middle">Cumulative 50% eGFR reduction</text>
	<line x1="339.82" y1="1953.70" x2="3859.02" y2="1953.70" style="stroke:#000000;stroke-width:5.76"/>
	<line x1="403.18" y1="1953.70" x2="403.18" y2="1993.67" style="stroke:#000000;stroke-width:5.76"/>
	<text x="403.18" y="2083.66" style="font-family:'Helvetica';font-size:99.99px;fill:#000000" text-anchor="middle">0</text>
	<line x1="1251.24" y1="1953.70" x2="1251.24" y2="1993.67" style="stroke:#000000;stroke-width:5.76"/>
	<text x="1251.24" y="2083.66" style="font-family:'Helvetica';font-size:99.99px;fill:#000000" text-anchor="middle">.5</text>
	<line x1="2099.42" y1="1953.70" x2="2099.42" y2="1993.67" style="stroke:#000000;stroke-width:5.76"/>
	<text x="2099.42" y="2083.66" style="font-family:'Helvetica';font-size:99.99px;fill:#000000" text-anchor="middle">1</text>
	<line x1="2947.60" y1="1953.70" x2="2947.60" y2="1993.67" style="stroke:#000000;stroke-width:5.76"/>
	<text x="2947.60" y="2083.66" style="font-family:'Helvetica';font-size:99.99px;fill:#000000" text-anchor="middle">1.5</text>
	<line x1="3795.66" y1="1953.70" x2="3795.66" y2="1993.67" style="stroke:#000000;stroke-width:5.76"/>
	<text x="3795.66" y="2083.66" style="font-family:'Helvetica';font-size:99.99px;fill:#000000" text-anchor="middle">2</text>
	<text x="2099.42" y="2193.67" style="font-family:'Helvetica';font-size:99.99px;fill:#000000" text-anchor="middle">Follow-up (years)</text>
	<rect x="374.34" y="2278.31" width="3450.15" height="466.30" style="fill:#FFFFFF"/>
	<rect x="377.22" y="2281.19" width="3444.39" height="460.54" style="fill:none;stroke:#000000;stroke-width:5.76"/>
	<line x1="417.53" y1="2371.50" x2="624.81" y2="2371.50" style="stroke:#1A476F;stroke-width:8.64"/>
	<line x1="2138.15" y1="2371.50" x2="2345.43" y2="2371.50" style="stroke:#90353B;stroke-width:8.64"/>
	<line x1="417.53" y1="2511.46" x2="624.81" y2="2511.46" style="stroke:#55752F;stroke-width:8.64"/>
	<line x1="2138.15" y1="2511.46" x2="2345.43" y2="2511.46" style="stroke:#E37E00;stroke-width:8.64"/>
	<line x1="417.53" y1="2651.43" x2="624.81" y2="2651.43" style="stroke:#6E8E84;stroke-width:8.64"/>
	<text x="657.98" y="2406.52" style="font-family:'Helvetica';font-size:99.99px;fill:#000000">covid_vax_status = SARS-CoV-2 pre-vaccination</text>
	<text x="2378.60" y="2406.52" style="font-family:'Helvetica';font-size:99.99px;fill:#000000">covid_vax_status = SARS-CoV-2 after 1 vaccine dose</text>
	<text x="657.98" y="2546.49" style="font-family:'Helvetica';font-size:99.99px;fill:#000000">covid_vax_status = SARS-CoV-2 after 2 vaccine doses</text>
	<text x="2378.60" y="2546.49" style="font-family:'Helvetica';font-size:99.99px;fill:#000000">covid_vax_status = SARS-CoV-2 after 3 vaccine doses</text>
	<text x="657.98" y="2686.46" style="font-family:'Helvetica';font-size:99.99px;fill:#000000">covid_vax_status = SARS-CoV-2 after 4 vaccine doses</text>
	<text x="2099.42" y="215.98" style="font-family:'Helvetica';font-size:139.96px;fill:#1E2D53" text-anchor="middle">Cumulative 50% eGFR reduction after SARS-CoV-2 survival by covid_vax_status</text>
</svg>
