<?xml version="1.0" encoding="UTF-8" standalone="no"?>
<!-- This is a Stata 17.0 generated SVG file (http://www.stata.com) -->

<svg version="1.1" width="5.500in" height="4.000in" viewBox="0 0 3960 2880" xmlns="http://www.w3.org/2000/svg" xmlns:xlink="http://www.w3.org/1999/xlink">
	<desc>Stata Graph - Graph</desc>
	<rect x="0" y="0" width="3960" height="2880" style="fill:#EAF2F3;stroke:none"/>
	<rect x="0.00" y="0.00" width="3959.88" height="2880.00" style="fill:#EAF2F3"/>
	<rect x="2.88" y="2.88" width="3954.12" height="2874.24" style="fill:none;stroke:#EAF2F3;stroke-width:5.76"/>
	<rect x="343.41" y="275.35" width="3515.61" height="1678.35" style="fill:#FFFFFF"/>
	<rect x="346.29" y="278.23" width="3509.85" height="1672.59" style="fill:none;stroke:#FFFFFF;stroke-width:5.76"/>
	<line x1="343.41" y1="1890.34" x2="3859.02" y2="1890.34" style="stroke:#EAF2F3;stroke-width:8.64"/>
	<line x1="343.41" y1="1853.09" x2="3859.02" y2="1853.09" style="stroke:#EAF2F3;stroke-width:8.64"/>
	<line x1="343.41" y1="1815.84" x2="3859.02" y2="1815.84" style="stroke:#EAF2F3;stroke-width:8.64"/>
	<line x1="343.41" y1="1778.59" x2="3859.02" y2="1778.59" style="stroke:#EAF2F3;stroke-width:8.64"/>
	<line x1="343.41" y1="1741.34" x2="3859.02" y2="1741.34" style="stroke:#EAF2F3;stroke-width:8.64"/>
	<line x1="343.41" y1="1704.09" x2="3859.02" y2="1704.09" style="stroke:#EAF2F3;stroke-width:8.64"/>
	<line x1="343.41" y1="1666.84" x2="3859.02" y2="1666.84" style="stroke:#EAF2F3;stroke-width:8.64"/>
	<line x1="343.41" y1="1629.71" x2="3859.02" y2="1629.71" style="stroke:#EAF2F3;stroke-width:8.64"/>
	<line x1="343.41" y1="1592.46" x2="3859.02" y2="1592.46" style="stroke:#EAF2F3;stroke-width:8.64"/>
	<line x1="343.41" y1="1555.21" x2="3859.02" y2="1555.21" style="stroke:#EAF2F3;stroke-width:8.64"/>
	<line x1="343.41" y1="1517.96" x2="3859.02" y2="1517.96" style="stroke:#EAF2F3;stroke-width:8.64"/>
	<path d=" M406.77 1890.34 L406.77 1890.34 L406.77 1890.34 L406.77 1890.34 L406.77 1890.34 L406.77 1890.34 L406.77 1890.34 L406.77 1890.34 L406.77 1890.34 L406.77 1890.34 L406.77 1890.34 L596.97 1890.34 L596.97 1842.70 L615.53 1842.70 L615.53 1794.93 L698.94 1794.93 L698.94 1699.39 L722.21 1699.39 L722.21 1651.74 L912.41 1651.74 L912.41 1603.97 L949.53 1603.97 L949.53 1556.20 L1125.75 1556.20 L1125.75 1508.44 L1135.04 1508.44 L1135.04 1460.67 L1213.99 1460.67 L1213.99 1413.02 L1311.38 1413.02 L1311.38 1365.25 L1705.65 1365.25 L1705.65 1317.48 L1789.18 1317.48 L1789.18 1269.71 L1956.24 1269.71 L1956.24 1269.71 L1993.37 1269.71 L1993.37 1220.09 L2151.02 1220.09 L2151.02 1170.46 L2188.15 1170.46 L2188.15 1120.84 L2262.40 1120.84 L2262.40 1071.09 L2294.82 1071.09 L2294.82 1071.09 L2471.16 1071.09 L2471.16 1018.99 L2614.96 1018.99 L2614.96 1018.99 L2814.45 1018.99 L2814.45 963.92 L2990.79 963.92 L2990.79 963.92 L3041.78 963.92 L3041.78 963.92 L3060.34 963.92 L3060.34 963.92 L3074.32 963.92 L3074.32 963.92 L3111.32 963.92 L3111.32 963.92 L3167.01 963.92 L3167.01 963.92 L3171.71 963.92 L3171.71 963.92 L3222.70 963.92 L3222.70 963.92 L3292.25 963.92 L3292.25 963.92 L3310.81 963.92 L3310.81 963.92 L3412.90 963.92 L3412.90 963.92 L3459.31 963.92 L3459.31 963.92 L3515.00 963.92 L3515.00 963.92 L3538.14 963.92 L3538.14 963.92 L3556.70 963.92 L3556.70 963.92 L3626.37 963.92 L3626.37 963.92 L3635.65 963.92 L3635.65 963.92" stroke-linejoin="round" style="fill:none;stroke:#1A476F;stroke-width:8.64"/>
	<path d=" M406.77 1890.34 L406.77 1890.34 L406.77 1890.34 L406.77 1890.34 L406.77 1890.34 L406.77 1890.34 L406.77 1890.34 L406.77 1890.34 L406.77 1890.34 L406.77 1890.34 L406.77 1890.34 L587.69 1890.34 L587.69 1580.09 L671.10 1580.09 L671.10 1269.71 L852.02 1269.71 L852.02 959.46 L916.99 959.46 L916.99 649.09 L2517.57 649.09 L2517.57 338.84 L2772.74 338.84 L2772.74 338.84" stroke-linejoin="round" style="fill:none;stroke:#90353B;stroke-width:8.64"/>
	<path d=" M406.77 1890.34 L406.77 1890.34 L406.77 1890.34 L406.77 1890.34 L406.77 1890.34 L406.77 1890.34 L406.77 1890.34 L406.77 1890.34 L406.77 1890.34 L406.77 1890.34 L406.77 1890.34 L485.60 1890.34 L485.60 1757.43 L731.49 1757.43 L731.49 1624.39 L828.88 1624.39 L828.88 1491.36 L1042.22 1491.36 L1042.22 1358.45 L1329.94 1358.45 L1329.94 1225.41 L1445.90 1225.41 L1445.90 1092.38 L2285.54 1092.38 L2285.54 1092.38 L2313.38 1092.38 L2313.38 1092.38 L2396.91 1092.38 L2396.91 915.04 L2420.18 915.04 L2420.18 915.04 L2485.02 915.04 L2485.02 915.04 L2540.71 915.04 L2540.71 915.04 L2545.41 915.04 L2545.41 915.04 L2573.26 915.04 L2573.26 915.04" stroke-linejoin="round" style="fill:none;stroke:#55752F;stroke-width:8.64"/>
	<path d=" M406.77 1890.34 L406.77 1890.34 L406.77 1890.34 L406.77 1890.34 L406.77 1890.34 L406.77 1890.34 L406.77 1890.34 L406.77 1890.34 L406.77 1890.34 L406.77 1890.34 L406.77 1890.34 L532.00 1890.34 L532.00 1774.01 L592.27 1774.01 L592.27 1657.68 L643.25 1657.68 L643.25 1541.23 L1102.61 1541.23 L1102.61 1424.90 L1246.41 1424.90 L1246.41 1308.57 L1506.16 1308.57 L1506.16 1192.12 L1714.93 1192.12 L1714.93 1075.79 L1803.16 1075.79 L1803.16 959.46 L1909.83 959.46 L1909.83 959.46 L1919.12 959.46 L1919.12 959.46 L1937.68 959.46 L1937.68 959.46 L2002.65 959.46 L2002.65 959.46 L2007.23 959.46 L2007.23 959.46 L2090.76 959.46 L2090.76 959.46 L2123.18 959.46 L2123.18 959.46 L2146.44 959.46 L2146.44 959.46" stroke-linejoin="round" style="fill:none;stroke:#E37E00;stroke-width:8.64"/>
	<path d=" M406.77 1890.34 L406.77 1890.34 L406.77 1890.34 L406.77 1890.34 L406.77 1890.34 L406.77 1890.34 L406.77 1890.34 L406.77 1890.34 L406.77 1890.34 L406.77 1890.34 L406.77 1890.34 L490.17 1890.34 L490.17 1840.10 L499.46 1840.10 L499.46 1789.73 L545.86 1789.73 L545.86 1739.48 L573.71 1739.48 L573.71 1689.12 L615.53 1689.12 L615.53 1638.75 L666.52 1638.75 L666.52 1588.50 L805.74 1588.50 L805.74 1538.14 L852.02 1538.14 L852.02 1538.14 L870.58 1538.14 L870.58 1486.04 L875.28 1486.04 L875.28 1486.04 L907.71 1486.04 L907.71 1486.04 L963.39 1486.04 L963.39 1427.75 L1000.52 1427.75 L1000.52 1427.75 L1042.22 1427.75 L1042.22 1427.75 L1070.07 1427.75 L1070.07 1427.75 L1213.99 1427.75 L1213.99 1427.75 L1218.57 1427.75 L1218.57 1427.75 L1223.27 1427.75 L1223.27 1427.75 L1278.83 1427.75 L1278.83 1350.03 L1311.38 1350.03 L1311.38 1350.03 L1315.96 1350.03 L1315.96 1350.03 L1343.80 1350.03 L1343.80 1350.03 L1367.07 1350.03 L1367.07 1255.61 L1371.65 1255.61 L1371.65 1255.61 L1399.49 1255.61 L1399.49 1255.61 L1422.75 1255.61 L1422.75 1255.61 L1427.33 1255.61 L1427.33 1255.61 L1436.61 1255.61 L1436.61 1255.61 L1510.86 1255.61 L1510.86 1255.61 L1566.55 1255.61 L1566.55 1255.61 L1585.11 1255.61 L1585.11 1255.61 L1598.97 1255.61 L1598.97 1255.61 L1677.80 1255.61 L1677.80 846.60 L1696.37 846.60 L1696.37 846.60 L1728.91 846.60 L1728.91 846.60" stroke-linejoin="round" style="fill:none;stroke:#6E8E84;stroke-width:8.64"/>
	<path d=" M406.77 1890.34 L406.77 1890.34 L406.77 1890.34 L406.77 1890.34 L406.77 1890.34 L406.77 1890.34 L406.77 1890.34 L406.77 1890.34 L406.77 1890.34 L406.77 1890.34 L406.77 1890.34 L411.35 1890.34 L411.35 1890.34 L434.49 1890.34 L434.49 1890.34 L471.61 1890.34 L471.61 959.46 L518.02 959.46 L518.02 959.46" stroke-linejoin="round" style="fill:none;stroke:#C10534;stroke-width:8.64"/>
	<line x1="343.41" y1="1953.70" x2="343.41" y2="275.35" style="stroke:#000000;stroke-width:5.76"/>
	<line x1="343.41" y1="1890.34" x2="303.44" y2="1890.34" style="stroke:#000000;stroke-width:5.76"/>
	<text x="283.39" y="1925.37" style="font-family:'Helvetica';font-size:99.99px;fill:#000000" text-anchor="end">0.00</text>
	<line x1="343.41" y1="1853.09" x2="303.44" y2="1853.09" style="stroke:#000000;stroke-width:5.76"/>
	<text x="283.39" y="1888.12" style="font-family:'Helvetica';font-size:99.99px;fill:#000000" text-anchor="end">0.02</text>
	<line x1="343.41" y1="1815.84" x2="303.44" y2="1815.84" style="stroke:#000000;stroke-width:5.76"/>
	<text x="283.39" y="1850.87" style="font-family:'Helvetica';font-size:99.99px;fill:#000000" text-anchor="end">0.04</text>
	<line x1="343.41" y1="1778.59" x2="303.44" y2="1778.59" style="stroke:#000000;stroke-width:5.76"/>
	<text x="283.39" y="1813.62" style="font-family:'Helvetica';font-size:99.99px;fill:#000000" text-anchor="end">0.06</text>
	<line x1="343.41" y1="1741.34" x2="303.44" y2="1741.34" style="stroke:#000000;stroke-width:5.76"/>
	<text x="283.39" y="1776.37" style="font-family:'Helvetica';font-size:99.99px;fill:#000000" text-anchor="end">0.08</text>
	<line x1="343.41" y1="1704.09" x2="303.44" y2="1704.09" style="stroke:#000000;stroke-width:5.76"/>
	<text x="283.39" y="1739.12" style="font-family:'Helvetica';font-size:99.99px;fill:#000000" text-anchor="end">0.10</text>
	<line x1="343.41" y1="1666.84" x2="303.44" y2="1666.84" style="stroke:#000000;stroke-width:5.76"/>
	<text x="283.39" y="1701.87" style="font-family:'Helvetica';font-size:99.99px;fill:#000000" text-anchor="end">0.12</text>
	<line x1="343.41" y1="1629.71" x2="303.44" y2="1629.71" style="stroke:#000000;stroke-width:5.76"/>
	<text x="283.39" y="1664.74" style="font-family:'Helvetica';font-size:99.99px;fill:#000000" text-anchor="end">0.14</text>
	<line x1="343.41" y1="1592.46" x2="303.44" y2="1592.46" style="stroke:#000000;stroke-width:5.76"/>
	<text x="283.39" y="1627.49" style="font-family:'Helvetica';font-size:99.99px;fill:#000000" text-anchor="end">0.16</text>
	<line x1="343.41" y1="1555.21" x2="303.44" y2="1555.21" style="stroke:#000000;stroke-width:5.76"/>
	<text x="283.39" y="1590.24" style="font-family:'Helvetica';font-size:99.99px;fill:#000000" text-anchor="end">0.18</text>
	<line x1="343.41" y1="1517.96" x2="303.44" y2="1517.96" style="stroke:#000000;stroke-width:5.76"/>
	<text x="283.39" y="1552.99" style="font-family:'Helvetica';font-size:99.99px;fill:#000000" text-anchor="end">0.20</text>
	<text x="190.71" y="1114.53" style="font-family:'Helvetica';font-size:99.99px;fill:#000000" transform="rotate(-90 190.71,1114.53)" text-anchor="middle">Cumulative 50% eGFR reduction</text>
	<line x1="343.41" y1="1953.70" x2="3859.02" y2="1953.70" style="stroke:#000000;stroke-width:5.76"/>
	<line x1="406.77" y1="1953.70" x2="406.77" y2="1993.67" style="stroke:#000000;stroke-width:5.76"/>
	<text x="406.77" y="2083.66" style="font-family:'Helvetica';font-size:99.99px;fill:#000000" text-anchor="middle">0</text>
	<line x1="1253.96" y1="1953.70" x2="1253.96" y2="1993.67" style="stroke:#000000;stroke-width:5.76"/>
	<text x="1253.96" y="2083.66" style="font-family:'Helvetica';font-size:99.99px;fill:#000000" text-anchor="middle">.5</text>
	<line x1="2101.28" y1="1953.70" x2="2101.28" y2="1993.67" style="stroke:#000000;stroke-width:5.76"/>
	<text x="2101.28" y="2083.66" style="font-family:'Helvetica';font-size:99.99px;fill:#000000" text-anchor="middle">1</text>
	<line x1="2948.47" y1="1953.70" x2="2948.47" y2="1993.67" style="stroke:#000000;stroke-width:5.76"/>
	<text x="2948.47" y="2083.66" style="font-family:'Helvetica';font-size:99.99px;fill:#000000" text-anchor="middle">1.5</text>
	<line x1="3795.66" y1="1953.70" x2="3795.66" y2="1993.67" style="stroke:#000000;stroke-width:5.76"/>
	<text x="3795.66" y="2083.66" style="font-family:'Helvetica';font-size:99.99px;fill:#000000" text-anchor="middle">2</text>
	<text x="2101.28" y="2193.67" style="font-family:'Helvetica';font-size:99.99px;fill:#000000" text-anchor="middle">Follow-up (years)</text>
	<rect x="377.93" y="2278.31" width="3446.56" height="466.30" style="fill:#FFFFFF"/>
	<rect x="380.81" y="2281.19" width="3440.80" height="460.54" style="fill:none;stroke:#000000;stroke-width:5.76"/>
	<line x1="421.12" y1="2371.50" x2="631.62" y2="2371.50" style="stroke:#1A476F;stroke-width:8.64"/>
	<line x1="2168.47" y1="2371.50" x2="2378.85" y2="2371.50" style="stroke:#90353B;stroke-width:8.64"/>
	<line x1="421.12" y1="2511.46" x2="631.62" y2="2511.46" style="stroke:#55752F;stroke-width:8.64"/>
	<line x1="2168.47" y1="2511.46" x2="2378.85" y2="2511.46" style="stroke:#E37E00;stroke-width:8.64"/>
	<line x1="421.12" y1="2651.43" x2="631.62" y2="2651.43" style="stroke:#6E8E84;stroke-width:8.64"/>
	<line x1="2168.47" y1="2651.43" x2="2378.85" y2="2651.43" style="stroke:#C10534;stroke-width:8.64"/>
	<text x="665.28" y="2406.52" style="font-family:'Helvetica';font-size:99.99px;fill:#000000">calendar_period = February 2020 to June 2020</text>
	<text x="2412.63" y="2406.52" style="font-family:'Helvetica';font-size:99.99px;fill:#000000">calendar_period = July 2020 to August 2020</text>
	<text x="665.28" y="2546.49" style="font-family:'Helvetica';font-size:99.99px;fill:#000000">calendar_period = September 2020 to November 2020</text>
	<text x="2412.63" y="2546.49" style="font-family:'Helvetica';font-size:99.99px;fill:#000000">calendar_period = December 2020 to February 2021</text>
	<text x="665.28" y="2686.46" style="font-family:'Helvetica';font-size:99.99px;fill:#000000">calendar_period = March 2021 to November 2021</text>
	<text x="2412.63" y="2686.46" style="font-family:'Helvetica';font-size:99.99px;fill:#000000">calendar_period = December 2021 to January 2022</text>
	<text x="2101.28" y="215.98" style="font-family:'Helvetica';font-size:139.96px;fill:#1E2D53" text-anchor="middle">Cumulative 50% eGFR reduction after SARS-CoV-2 survival by calendar_period</text>
</svg>
