<?xml version="1.0" encoding="UTF-8" standalone="no"?>
<!-- This is a Stata 17.0 generated SVG file (http://www.stata.com) -->

<svg version="1.1" width="5.500in" height="4.000in" viewBox="0 0 3960 2880" xmlns="http://www.w3.org/2000/svg" xmlns:xlink="http://www.w3.org/1999/xlink">
	<desc>Stata Graph - Graph</desc>
	<rect x="0" y="0" width="3960" height="2880" style="fill:#EAF2F3;stroke:none"/>
	<rect x="0.00" y="0.00" width="3959.88" height="2880.00" style="fill:#EAF2F3"/>
	<rect x="2.88" y="2.88" width="3954.12" height="2874.24" style="fill:none;stroke:#EAF2F3;stroke-width:5.76"/>
	<rect x="335.12" y="275.35" width="3523.91" height="1958.28" style="fill:#FFFFFF"/>
	<rect x="337.99" y="278.23" width="3518.15" height="1952.52" style="fill:none;stroke:#FFFFFF;stroke-width:5.76"/>
	<line x1="335.12" y1="2170.27" x2="3859.02" y2="2170.27" style="stroke:#EAF2F3;stroke-width:8.64"/>
	<line x1="335.12" y1="2116.69" x2="3859.02" y2="2116.69" style="stroke:#EAF2F3;stroke-width:8.64"/>
	<line x1="335.12" y1="2062.98" x2="3859.02" y2="2062.98" style="stroke:#EAF2F3;stroke-width:8.64"/>
	<line x1="335.12" y1="2009.27" x2="3859.02" y2="2009.27" style="stroke:#EAF2F3;stroke-width:8.64"/>
	<line x1="335.12" y1="1955.68" x2="3859.02" y2="1955.68" style="stroke:#EAF2F3;stroke-width:8.64"/>
	<line x1="335.12" y1="1901.97" x2="3859.02" y2="1901.97" style="stroke:#EAF2F3;stroke-width:8.64"/>
	<line x1="335.12" y1="1848.26" x2="3859.02" y2="1848.26" style="stroke:#EAF2F3;stroke-width:8.64"/>
	<line x1="335.12" y1="1794.68" x2="3859.02" y2="1794.68" style="stroke:#EAF2F3;stroke-width:8.64"/>
	<line x1="335.12" y1="1740.97" x2="3859.02" y2="1740.97" style="stroke:#EAF2F3;stroke-width:8.64"/>
	<line x1="335.12" y1="1687.26" x2="3859.02" y2="1687.26" style="stroke:#EAF2F3;stroke-width:8.64"/>
	<line x1="335.12" y1="1633.67" x2="3859.02" y2="1633.67" style="stroke:#EAF2F3;stroke-width:8.64"/>
	<path d=" M398.48 2170.40 L398.48 2170.40 L398.48 2170.40 L403.18 2170.40 L403.18 2170.40 L426.32 2170.40 L426.32 2170.40 L463.57 2170.40 L463.57 2144.04 L477.55 2144.04 L477.55 2117.80 L482.13 2117.80 L482.13 2091.44 L491.54 2091.44 L491.54 2065.20 L510.10 2065.20 L510.10 2065.20 L579.89 2065.20 L579.89 2038.60 L584.47 2038.60 L584.47 2011.99 L607.74 2011.99 L607.74 1958.78 L635.70 1958.78 L635.70 1932.29 L658.85 1932.29 L658.85 1905.69 L663.55 1905.69 L663.55 1879.08 L691.52 1879.08 L691.52 1825.99 L714.66 1825.99 L714.66 1799.38 L724.06 1799.38 L724.06 1772.77 L798.44 1772.77 L798.44 1746.17 L821.70 1746.17 L821.70 1719.56 L844.97 1719.56 L844.97 1693.08 L863.53 1693.08 L863.53 1666.10 L868.23 1666.10 L868.23 1666.10 L905.36 1666.10 L905.36 1638.50 L910.06 1638.50 L910.06 1610.90 L942.60 1610.90 L942.60 1583.43 L956.59 1583.43 L956.59 1555.83 L993.71 1555.83 L993.71 1555.83 L1035.54 1555.83 L1035.54 1555.83 L1063.51 1555.83 L1063.51 1555.83 L1096.05 1555.83 L1096.05 1527.00 L1119.32 1527.00 L1119.32 1498.29 L1128.60 1498.29 L1128.60 1469.58 L1207.68 1469.58 L1207.68 1440.87 L1212.26 1440.87 L1212.26 1440.87 L1216.96 1440.87 L1216.96 1440.87 L1240.22 1440.87 L1240.22 1410.79 L1272.77 1410.79 L1272.77 1380.72 L1305.32 1380.72 L1305.32 1350.65 L1310.02 1350.65 L1310.02 1350.65 L1323.88 1350.65 L1323.88 1319.59 L1337.86 1319.59 L1337.86 1319.59 L1361.13 1319.59 L1361.13 1288.03 L1365.83 1288.03 L1365.83 1288.03 L1393.67 1288.03 L1393.67 1288.03 L1416.94 1288.03 L1416.94 1288.03 L1421.64 1288.03 L1421.64 1288.03 L1430.92 1288.03 L1430.92 1288.03 L1440.20 1288.03 L1440.20 1252.64 L1500.59 1252.64 L1500.59 1217.37 L1505.30 1217.37 L1505.30 1217.37 L1561.11 1217.37 L1561.11 1217.37 L1579.67 1217.37 L1579.67 1217.37 L1593.65 1217.37 L1593.65 1217.37 L1672.73 1217.37 L1672.73 1178.88 L1691.29 1178.88 L1691.29 1178.88 L1700.57 1178.88 L1700.57 1139.53 L1709.85 1139.53 L1709.85 1100.17 L1723.84 1100.17 L1723.84 1100.17 L1784.35 1100.17 L1784.35 1059.83 L1905.26 1059.83 L1905.26 1059.83 L1914.54 1059.83 L1914.54 1059.83 L1933.10 1059.83 L1933.10 1059.83 L1951.79 1059.83 L1951.79 1059.83 L1988.91 1059.83 L1988.91 1014.91 L1998.19 1014.91 L1998.19 1014.91 L2002.89 1014.91 L2002.89 1014.91 L2119.09 1014.91 L2119.09 1014.91 L2142.36 1014.91 L2142.36 1014.91 L2147.06 1014.91 L2147.06 964.04 L2184.31 964.04 L2184.31 913.06 L2258.69 913.06 L2258.69 862.07 L2281.95 862.07 L2281.95 862.07 L2291.23 862.07 L2291.23 862.07 L2309.79 862.07 L2309.79 862.07 L2393.57 862.07 L2393.57 804.77 L2416.84 804.77 L2416.84 804.77 L2467.95 804.77 L2467.95 744.87 L2481.93 744.87 L2481.93 744.87 L2514.48 744.87 L2514.48 682.01 L2537.74 682.01 L2537.74 682.01 L2570.29 682.01 L2570.29 682.01 L2612.11 682.01 L2612.11 682.01 L2770.27 682.01 L2770.27 682.01 L2988.81 682.01 L2988.81 682.01 L3039.92 682.01 L3039.92 682.01 L3058.61 682.01 L3058.61 682.01 L3072.47 682.01 L3072.47 682.01 L3109.71 682.01 L3109.71 682.01 L3165.53 682.01 L3165.53 682.01 L3170.23 682.01 L3170.23 682.01 L3221.34 682.01 L3221.34 682.01 L3291.13 682.01 L3291.13 682.01 L3412.04 682.01 L3412.04 682.01 L3458.44 682.01 L3458.44 682.01 L3514.25 682.01 L3514.25 682.01 L3537.52 682.01 L3537.52 682.01 L3556.20 682.01 L3556.20 682.01 L3625.88 682.01 L3625.88 682.01" stroke-linejoin="round" style="fill:none;stroke:#1A476F;stroke-width:8.64"/>
	<path d=" M398.48 2170.40 L398.48 2170.40 L398.48 2170.40 L524.08 2170.40 L524.08 1946.77 L537.94 1946.77 L537.94 1723.15 L565.91 1723.15 L565.91 1499.53 L589.17 1499.53 L589.17 1275.90 L900.78 1275.90 L900.78 1275.90 L1035.54 1275.90 L1035.54 1020.35 L1798.21 1020.35 L1798.21 764.68 L2086.55 764.68 L2086.55 764.68 L2542.32 764.68 L2542.32 764.68 L2812.10 764.68 L2812.10 338.84 L3309.69 338.84 L3309.69 338.84 L3635.28 338.84 L3635.28 338.84" stroke-linejoin="round" style="fill:none;stroke:#90353B;stroke-width:8.64"/>
	<line x1="335.12" y1="2233.63" x2="335.12" y2="275.35" style="stroke:#000000;stroke-width:5.76"/>
	<line x1="335.12" y1="2170.27" x2="295.14" y2="2170.27" style="stroke:#000000;stroke-width:5.76"/>
	<text x="275.22" y="2205.30" style="font-family:'Helvetica';font-size:99.99px;fill:#000000" text-anchor="end">0.00</text>
	<line x1="335.12" y1="2116.69" x2="295.14" y2="2116.69" style="stroke:#000000;stroke-width:5.76"/>
	<text x="275.22" y="2151.71" style="font-family:'Helvetica';font-size:99.99px;fill:#000000" text-anchor="end">0.02</text>
	<line x1="335.12" y1="2062.98" x2="295.14" y2="2062.98" style="stroke:#000000;stroke-width:5.76"/>
	<text x="275.22" y="2098.01" style="font-family:'Helvetica';font-size:99.99px;fill:#000000" text-anchor="end">0.04</text>
	<line x1="335.12" y1="2009.27" x2="295.14" y2="2009.27" style="stroke:#000000;stroke-width:5.76"/>
	<text x="275.22" y="2044.30" style="font-family:'Helvetica';font-size:99.99px;fill:#000000" text-anchor="end">0.06</text>
	<line x1="335.12" y1="1955.68" x2="295.14" y2="1955.68" style="stroke:#000000;stroke-width:5.76"/>
	<text x="275.22" y="1990.71" style="font-family:'Helvetica';font-size:99.99px;fill:#000000" text-anchor="end">0.08</text>
	<line x1="335.12" y1="1901.97" x2="295.14" y2="1901.97" style="stroke:#000000;stroke-width:5.76"/>
	<text x="275.22" y="1937.00" style="font-family:'Helvetica';font-size:99.99px;fill:#000000" text-anchor="end">0.10</text>
	<line x1="335.12" y1="1848.26" x2="295.14" y2="1848.26" style="stroke:#000000;stroke-width:5.76"/>
	<text x="275.22" y="1883.29" style="font-family:'Helvetica';font-size:99.99px;fill:#000000" text-anchor="end">0.12</text>
	<line x1="335.12" y1="1794.68" x2="295.14" y2="1794.68" style="stroke:#000000;stroke-width:5.76"/>
	<text x="275.22" y="1829.71" style="font-family:'Helvetica';font-size:99.99px;fill:#000000" text-anchor="end">0.14</text>
	<line x1="335.12" y1="1740.97" x2="295.14" y2="1740.97" style="stroke:#000000;stroke-width:5.76"/>
	<text x="275.22" y="1776.00" style="font-family:'Helvetica';font-size:99.99px;fill:#000000" text-anchor="end">0.16</text>
	<line x1="335.12" y1="1687.26" x2="295.14" y2="1687.26" style="stroke:#000000;stroke-width:5.76"/>
	<text x="275.22" y="1722.29" style="font-family:'Helvetica';font-size:99.99px;fill:#000000" text-anchor="end">0.18</text>
	<line x1="335.12" y1="1633.67" x2="295.14" y2="1633.67" style="stroke:#000000;stroke-width:5.76"/>
	<text x="275.22" y="1668.70" style="font-family:'Helvetica';font-size:99.99px;fill:#000000" text-anchor="end">0.20</text>
	<text x="190.71" y="1254.49" style="font-family:'Helvetica';font-size:99.99px;fill:#000000" transform="rotate(-90 190.71,1254.49)" text-anchor="middle">Cumulative 50% eGFR reduction</text>
	<line x1="335.12" y1="2233.63" x2="3859.02" y2="2233.63" style="stroke:#000000;stroke-width:5.76"/>
	<line x1="398.48" y1="2233.63" x2="398.48" y2="2273.73" style="stroke:#000000;stroke-width:5.76"/>
	<text x="398.48" y="2363.59" style="font-family:'Helvetica';font-size:99.99px;fill:#000000" text-anchor="middle">0</text>
	<line x1="1247.77" y1="2233.63" x2="1247.77" y2="2273.73" style="stroke:#000000;stroke-width:5.76"/>
	<text x="1247.77" y="2363.59" style="font-family:'Helvetica';font-size:99.99px;fill:#000000" text-anchor="middle">.5</text>
	<line x1="2097.07" y1="2233.63" x2="2097.07" y2="2273.73" style="stroke:#000000;stroke-width:5.76"/>
	<text x="2097.07" y="2363.59" style="font-family:'Helvetica';font-size:99.99px;fill:#000000" text-anchor="middle">1</text>
	<line x1="2946.49" y1="2233.63" x2="2946.49" y2="2273.73" style="stroke:#000000;stroke-width:5.76"/>
	<text x="2946.49" y="2363.59" style="font-family:'Helvetica';font-size:99.99px;fill:#000000" text-anchor="middle">1.5</text>
	<line x1="3795.78" y1="2233.63" x2="3795.78" y2="2273.73" style="stroke:#000000;stroke-width:5.76"/>
	<text x="3795.78" y="2363.59" style="font-family:'Helvetica';font-size:99.99px;fill:#000000" text-anchor="middle">2</text>
	<text x="2097.07" y="2473.60" style="font-family:'Helvetica';font-size:99.99px;fill:#000000" text-anchor="middle">Follow-up (years)</text>
	<rect x="369.77" y="2558.24" width="3454.73" height="186.37" style="fill:#FFFFFF"/>
	<rect x="372.64" y="2561.12" width="3448.97" height="180.61" style="fill:none;stroke:#000000;stroke-width:5.76"/>
	<line x1="412.95" y1="2651.43" x2="616.03" y2="2651.43" style="stroke:#1A476F;stroke-width:8.64"/>
	<line x1="2173.92" y1="2651.43" x2="2376.99" y2="2651.43" style="stroke:#90353B;stroke-width:8.64"/>
	<text x="648.57" y="2686.46" style="font-family:'Helvetica';font-size:99.99px;fill:#000000">covid_krt = COVID-19 without kidney replacement therapy</text>
	<text x="2409.54" y="2686.46" style="font-family:'Helvetica';font-size:99.99px;fill:#000000">covid_krt = COVID-19 with kidney replacement therapy</text>
	<text x="2097.07" y="215.98" style="font-family:'Helvetica';font-size:139.96px;fill:#1E2D53" text-anchor="middle">Cumulative 50% eGFR reduction after SARS-CoV-2 survival by covid_krt</text>
</svg>
