<?xml version="1.0" encoding="UTF-8" standalone="no"?>
<!-- This is a Stata 17.0 generated SVG file (http://www.stata.com) -->

<svg version="1.1" width="5.500in" height="4.000in" viewBox="0 0 3960 2880" xmlns="http://www.w3.org/2000/svg" xmlns:xlink="http://www.w3.org/1999/xlink">
	<desc>Stata Graph - Graph</desc>
	<rect x="0" y="0" width="3960" height="2880" style="fill:#EAF2F3;stroke:none"/>
	<rect x="0.00" y="0.00" width="3959.88" height="2880.00" style="fill:#EAF2F3"/>
	<rect x="2.88" y="2.88" width="3954.12" height="2874.24" style="fill:none;stroke:#EAF2F3;stroke-width:5.76"/>
	<rect x="312.22" y="275.35" width="3546.80" height="1958.28" style="fill:#FFFFFF"/>
	<rect x="315.10" y="278.23" width="3541.04" height="1952.52" style="fill:none;stroke:#FFFFFF;stroke-width:5.76"/>
	<line x1="312.22" y1="2170.27" x2="3859.02" y2="2170.27" style="stroke:#EAF2F3;stroke-width:8.64"/>
	<line x1="312.22" y1="2023.75" x2="3859.02" y2="2023.75" style="stroke:#EAF2F3;stroke-width:8.64"/>
	<line x1="312.22" y1="1877.22" x2="3859.02" y2="1877.22" style="stroke:#EAF2F3;stroke-width:8.64"/>
	<line x1="312.22" y1="1730.70" x2="3859.02" y2="1730.70" style="stroke:#EAF2F3;stroke-width:8.64"/>
	<line x1="312.22" y1="1584.17" x2="3859.02" y2="1584.17" style="stroke:#EAF2F3;stroke-width:8.64"/>
	<line x1="312.22" y1="1437.65" x2="3859.02" y2="1437.65" style="stroke:#EAF2F3;stroke-width:8.64"/>
	<line x1="312.22" y1="1291.12" x2="3859.02" y2="1291.12" style="stroke:#EAF2F3;stroke-width:8.64"/>
	<line x1="312.22" y1="1144.60" x2="3859.02" y2="1144.60" style="stroke:#EAF2F3;stroke-width:8.64"/>
	<line x1="312.22" y1="998.07" x2="3859.02" y2="998.07" style="stroke:#EAF2F3;stroke-width:8.64"/>
	<line x1="312.22" y1="851.55" x2="3859.02" y2="851.55" style="stroke:#EAF2F3;stroke-width:8.64"/>
	<line x1="312.22" y1="705.03" x2="3859.02" y2="705.03" style="stroke:#EAF2F3;stroke-width:8.64"/>
	<path d=" M375.58 2170.40 L375.58 2170.40 L375.58 2170.40 L380.28 2170.40 L380.28 2170.40 L403.67 2170.40 L403.67 2170.40 L408.38 2170.40 L408.38 2170.40 L427.06 2170.40 L427.06 2170.40 L469.26 2170.40 L469.26 2131.78 L473.84 2131.78 L473.84 2131.78 L487.95 2131.78 L487.95 2131.78 L600.31 2131.78 L600.31 2131.78 L619.00 2131.78 L619.00 2131.78 L637.81 2131.78 L637.81 2131.78 L647.09 2131.78 L647.09 2131.78 L722.08 2131.78 L722.08 2131.78 L778.26 2131.78 L778.26 2091.81 L825.04 2091.81 L825.04 2091.81 L834.45 2091.81 L834.45 2091.81 L848.43 2091.81 L848.43 2091.81 L853.13 2091.81 L853.13 2091.81 L876.52 2091.81 L876.52 2091.81 L881.22 2091.81 L881.22 2091.81 L904.61 2091.81 L904.61 2091.81 L914.02 2091.81 L914.02 2091.81 L932.70 2091.81 L932.70 2091.81 L937.41 2091.81 L937.41 2049.36 L946.81 2049.36 L946.81 2049.36 L965.50 2049.36 L965.50 2006.79 L974.90 2006.79 L974.90 2006.79 L1016.98 2006.79 L1016.98 2006.79 L1045.07 2006.79 L1045.07 2006.79 L1059.18 2006.79 L1059.18 2006.79 L1096.55 2006.79 L1096.55 2006.79 L1119.94 2006.79 L1119.94 2006.79 L1138.75 2006.79 L1138.75 2006.79 L1190.23 2006.79 L1190.23 2006.79 L1194.93 2006.79 L1194.93 2006.79 L1199.63 2006.79 L1199.63 2006.79 L1223.02 2006.79 L1223.02 1960.88 L1232.30 1960.88 L1232.30 1960.88 L1241.71 1960.88 L1241.71 1960.88 L1251.11 1960.88 L1251.11 1960.88 L1255.82 1960.88 L1255.82 1960.88 L1288.48 1960.88 L1288.48 1960.88 L1293.19 1960.88 L1293.19 1960.88 L1321.28 1960.88 L1321.28 1960.88 L1344.67 1960.88 L1344.67 1960.88 L1349.37 1960.88 L1349.37 1960.88 L1377.46 1960.88 L1377.46 1960.88 L1391.57 1960.88 L1391.57 1960.88 L1400.85 1960.88 L1400.85 1910.76 L1405.55 1910.76 L1405.55 1910.76 L1414.96 1910.76 L1414.96 1910.76 L1428.94 1910.76 L1428.94 1910.76 L1447.75 1910.76 L1447.75 1910.76 L1457.03 1910.76 L1457.03 1910.76 L1475.84 1910.76 L1475.84 1910.76 L1489.83 1910.76 L1489.83 1910.76 L1513.22 1910.76 L1513.22 1910.76 L1546.01 1910.76 L1546.01 1910.76 L1564.82 1910.76 L1564.82 1910.76 L1574.10 1910.76 L1574.10 1910.76 L1578.80 1910.76 L1578.80 1910.76 L1625.58 1910.76 L1625.58 1910.76 L1639.69 1910.76 L1639.69 1910.76 L1653.67 1910.76 L1653.67 1853.34 L1672.48 1853.34 L1672.48 1795.79 L1677.18 1795.79 L1677.18 1795.79 L1709.85 1795.79 L1709.85 1795.79 L1733.37 1795.79 L1733.37 1795.79 L1775.44 1795.79 L1775.44 1795.79 L1803.53 1795.79 L1803.53 1795.79 L1836.33 1795.79 L1836.33 1795.79 L1845.73 1795.79 L1845.73 1795.79 L1864.42 1795.79 L1864.42 1795.79 L1869.12 1795.79 L1869.12 1795.79 L1883.10 1795.79 L1883.10 1795.79 L1887.81 1795.79 L1887.81 1795.79 L1892.51 1795.79 L1892.51 1795.79 L1901.91 1795.79 L1901.91 1795.79 L1920.60 1795.79 L1920.60 1795.79 L1925.30 1795.79 L1925.30 1795.79 L1939.29 1795.79 L1939.29 1795.79 L1986.19 1795.79 L1986.19 1795.79 L1990.77 1795.79 L1990.77 1795.79 L2018.86 1795.79 L2018.86 1795.79 L2042.37 1795.79 L2042.37 1795.79 L2056.35 1795.79 L2056.35 1795.79 L2075.04 1795.79 L2075.04 1795.79 L2084.45 1795.79 L2084.45 1795.79 L2107.83 1795.79 L2107.83 1795.79 L2131.22 1795.79 L2131.22 1795.79 L2145.33 1795.79 L2145.33 1795.79 L2159.31 1795.79 L2159.31 1795.79 L2173.42 1795.79 L2173.42 1795.79 L2192.11 1795.79 L2192.11 1795.79 L2220.20 1795.79 L2220.20 1795.79 L2224.90 1795.79 L2224.90 1795.79 L2243.59 1795.79 L2243.59 1795.79 L2252.99 1795.79 L2252.99 1795.79 L2267.10 1795.79 L2267.10 1795.79 L2271.68 1795.79 L2271.68 1795.79 L2281.08 1795.79 L2281.08 1795.79 L2299.77 1795.79 L2299.77 1795.79 L2309.18 1795.79 L2309.18 1795.79 L2355.95 1795.79 L2355.95 1795.79 L2384.04 1795.79 L2384.04 1795.79 L2393.45 1795.79 L2393.45 1795.79 L2407.43 1795.79 L2407.43 1795.79 L2463.61 1795.79 L2463.61 1795.79 L2473.02 1795.79 L2473.02 1795.79 L2505.81 1795.79 L2505.81 1700.63 L2524.50 1700.63 L2524.50 1700.63 L2533.91 1700.63 L2533.91 1700.63 L2538.61 1700.63 L2538.61 1700.63 L2543.31 1700.63 L2543.31 1700.63 L2557.29 1700.63 L2557.29 1700.63 L2562.00 1700.63 L2562.00 1700.63 L2580.68 1700.63 L2580.68 1700.63 L2604.07 1700.63 L2604.07 1700.63 L2618.18 1700.63 L2618.18 1700.63 L2646.27 1700.63 L2646.27 1700.63 L2711.86 1700.63 L2711.86 1700.63 L2753.93 1700.63 L2753.93 1700.63 L2758.64 1700.63 L2758.64 1700.63 L2763.34 1700.63 L2763.34 1700.63 L2768.04 1700.63 L2768.04 1700.63 L2819.52 1700.63 L2819.52 1700.63 L2913.08 1700.63 L2913.08 1700.63 L2922.48 1700.63 L2922.48 1700.63 L2959.98 1700.63 L2959.98 1700.63 L2964.68 1700.63 L2964.68 1700.63 L2969.26 1700.63 L2969.26 1700.63 L2983.37 1700.63 L2983.37 1700.63 L2992.77 1700.63 L2992.77 1700.63 L3011.46 1700.63 L3011.46 1554.72 L3016.16 1554.72 L3016.16 1554.72 L3030.14 1554.72 L3030.14 1554.72 L3034.85 1554.72 L3034.85 1554.72 L3053.53 1554.72 L3053.53 1554.72 L3067.64 1554.72 L3067.64 1390.99 L3072.34 1390.99 L3072.34 1390.99 L3095.73 1390.99 L3095.73 1390.99 L3100.43 1390.99 L3100.43 1390.99 L3105.14 1390.99 L3105.14 1390.99 L3161.32 1390.99 L3161.32 1390.99 L3165.90 1390.99 L3165.90 1390.99 L3217.50 1390.99 L3217.50 1390.99 L3264.28 1390.99 L3264.28 1390.99 L3282.96 1390.99 L3282.96 1390.99 L3287.67 1390.99 L3287.67 1390.99 L3306.35 1390.99 L3306.35 1390.99 L3311.06 1390.99 L3311.06 1390.99 L3315.76 1390.99 L3315.76 1390.99 L3325.16 1390.99 L3325.16 1390.99 L3376.64 1390.99 L3376.64 1390.99 L3400.03 1390.99 L3400.03 1390.99 L3409.44 1390.99 L3409.44 1390.99 L3414.14 1390.99 L3414.14 1390.99 L3428.12 1390.99 L3428.12 1390.99 L3437.53 1390.99 L3437.53 981.86 L3456.21 981.86 L3456.21 981.86 L3474.90 981.86 L3474.90 981.86 L3512.40 981.86 L3512.40 981.86 L3535.79 981.86 L3535.79 981.86 L3545.19 981.86 L3545.19 981.86 L3554.60 981.86 L3554.60 981.86 L3601.37 981.86 L3601.37 981.86 L3624.76 981.86 L3624.76 981.86 L3634.17 981.86 L3634.17 981.86 L3638.87 981.86 L3638.87 981.86 L3657.56 981.86 L3657.56 981.86" stroke-linejoin="round" style="fill:none;stroke:#1A476F;stroke-width:8.64"/>
	<path d=" M375.58 2170.40 L375.58 2170.40 L375.58 2170.40 L516.04 2170.40 L516.04 2170.40 L871.82 2170.40 L871.82 1437.77 L1007.57 1437.77 L1007.57 1437.77 L1574.10 1437.77 L1574.10 1437.77 L1934.58 1437.77 L1934.58 1437.77 L1976.78 1437.77 L1976.78 338.84 L2529.20 338.84 L2529.20 338.84 L2557.29 338.84 L2557.29 338.84 L3217.50 338.84 L3217.50 338.84 L3456.21 338.84 L3456.21 338.84 L3610.78 338.84 L3610.78 338.84" stroke-linejoin="round" style="fill:none;stroke:#90353B;stroke-width:8.64"/>
	<line x1="312.22" y1="2233.63" x2="312.22" y2="275.35" style="stroke:#000000;stroke-width:5.76"/>
	<line x1="312.22" y1="2170.27" x2="272.25" y2="2170.27" style="stroke:#000000;stroke-width:5.76"/>
	<text x="252.33" y="2205.30" style="font-family:'Helvetica';font-size:99.99px;fill:#000000" text-anchor="end">0.00</text>
	<line x1="312.22" y1="2023.75" x2="272.25" y2="2023.75" style="stroke:#000000;stroke-width:5.76"/>
	<text x="252.33" y="2058.78" style="font-family:'Helvetica';font-size:99.99px;fill:#000000" text-anchor="end">0.02</text>
	<line x1="312.22" y1="1877.22" x2="272.25" y2="1877.22" style="stroke:#000000;stroke-width:5.76"/>
	<text x="252.33" y="1912.25" style="font-family:'Helvetica';font-size:99.99px;fill:#000000" text-anchor="end">0.04</text>
	<line x1="312.22" y1="1730.70" x2="272.25" y2="1730.70" style="stroke:#000000;stroke-width:5.76"/>
	<text x="252.33" y="1765.73" style="font-family:'Helvetica';font-size:99.99px;fill:#000000" text-anchor="end">0.06</text>
	<line x1="312.22" y1="1584.17" x2="272.25" y2="1584.17" style="stroke:#000000;stroke-width:5.76"/>
	<text x="252.33" y="1619.20" style="font-family:'Helvetica';font-size:99.99px;fill:#000000" text-anchor="end">0.08</text>
	<line x1="312.22" y1="1437.65" x2="272.25" y2="1437.65" style="stroke:#000000;stroke-width:5.76"/>
	<text x="252.33" y="1472.68" style="font-family:'Helvetica';font-size:99.99px;fill:#000000" text-anchor="end">0.10</text>
	<line x1="312.22" y1="1291.12" x2="272.25" y2="1291.12" style="stroke:#000000;stroke-width:5.76"/>
	<text x="252.33" y="1326.15" style="font-family:'Helvetica';font-size:99.99px;fill:#000000" text-anchor="end">0.12</text>
	<line x1="312.22" y1="1144.60" x2="272.25" y2="1144.60" style="stroke:#000000;stroke-width:5.76"/>
	<text x="252.33" y="1179.63" style="font-family:'Helvetica';font-size:99.99px;fill:#000000" text-anchor="end">0.14</text>
	<line x1="312.22" y1="998.07" x2="272.25" y2="998.07" style="stroke:#000000;stroke-width:5.76"/>
	<text x="252.33" y="1033.10" style="font-family:'Helvetica';font-size:99.99px;fill:#000000" text-anchor="end">0.16</text>
	<line x1="312.22" y1="851.55" x2="272.25" y2="851.55" style="stroke:#000000;stroke-width:5.76"/>
	<text x="252.33" y="886.58" style="font-family:'Helvetica';font-size:99.99px;fill:#000000" text-anchor="end">0.18</text>
	<line x1="312.22" y1="705.03" x2="272.25" y2="705.03" style="stroke:#000000;stroke-width:5.76"/>
	<text x="252.33" y="740.05" style="font-family:'Helvetica';font-size:99.99px;fill:#000000" text-anchor="end">0.20</text>
	<text x="190.71" y="1254.49" style="font-family:'Helvetica';font-size:99.99px;fill:#000000" transform="rotate(-90 190.71,1254.49)" text-anchor="middle">Cumulative ESRD</text>
	<line x1="312.22" y1="2233.63" x2="3859.02" y2="2233.63" style="stroke:#000000;stroke-width:5.76"/>
	<line x1="375.58" y1="2233.63" x2="375.58" y2="2273.73" style="stroke:#000000;stroke-width:5.76"/>
	<text x="375.58" y="2363.59" style="font-family:'Helvetica';font-size:99.99px;fill:#000000" text-anchor="middle">0</text>
	<line x1="1230.69" y1="2233.63" x2="1230.69" y2="2273.73" style="stroke:#000000;stroke-width:5.76"/>
	<text x="1230.69" y="2363.59" style="font-family:'Helvetica';font-size:99.99px;fill:#000000" text-anchor="middle">.5</text>
	<line x1="2085.68" y1="2233.63" x2="2085.68" y2="2273.73" style="stroke:#000000;stroke-width:5.76"/>
	<text x="2085.68" y="2363.59" style="font-family:'Helvetica';font-size:99.99px;fill:#000000" text-anchor="middle">1</text>
	<line x1="2940.67" y1="2233.63" x2="2940.67" y2="2273.73" style="stroke:#000000;stroke-width:5.76"/>
	<text x="2940.67" y="2363.59" style="font-family:'Helvetica';font-size:99.99px;fill:#000000" text-anchor="middle">1.5</text>
	<line x1="3795.78" y1="2233.63" x2="3795.78" y2="2273.73" style="stroke:#000000;stroke-width:5.76"/>
	<text x="3795.78" y="2363.59" style="font-family:'Helvetica';font-size:99.99px;fill:#000000" text-anchor="middle">2</text>
	<text x="2085.68" y="2473.60" style="font-family:'Helvetica';font-size:99.99px;fill:#000000" text-anchor="middle">Follow-up (years)</text>
	<rect x="346.87" y="2558.24" width="3477.62" height="186.37" style="fill:#FFFFFF"/>
	<rect x="349.75" y="2561.12" width="3471.86" height="180.61" style="fill:none;stroke:#000000;stroke-width:5.76"/>
	<line x1="390.06" y1="2651.43" x2="572.84" y2="2651.43" style="stroke:#1A476F;stroke-width:8.64"/>
	<line x1="2154.74" y1="2651.43" x2="2337.64" y2="2651.43" style="stroke:#90353B;stroke-width:8.64"/>
	<text x="602.17" y="2686.46" style="font-family:'Helvetica';font-size:99.99px;fill:#000000">covid_acute_kidney_injury = COVID-19 without acute kidney injury</text>
	<text x="2366.97" y="2686.46" style="font-family:'Helvetica';font-size:99.99px;fill:#000000">covid_acute_kidney_injury = COVID-19 with acute kidney injury</text>
	<text x="2085.68" y="215.98" style="font-family:'Helvetica';font-size:139.96px;fill:#1E2D53" text-anchor="middle">Cumulative ESRD after SARS-CoV-2 survival by covid_acute_kidney_injury</text>
</svg>
