<?xml version="1.0" encoding="UTF-8" standalone="no"?>
<!-- This is a Stata 17.0 generated SVG file (http://www.stata.com) -->

<svg version="1.1" width="5.500in" height="4.000in" viewBox="0 0 3960 2880" xmlns="http://www.w3.org/2000/svg" xmlns:xlink="http://www.w3.org/1999/xlink">
	<desc>Stata Graph - Graph</desc>
	<rect x="0" y="0" width="3960" height="2880" style="fill:#EAF2F3;stroke:none"/>
	<rect x="0.00" y="0.00" width="3959.88" height="2880.00" style="fill:#EAF2F3"/>
	<rect x="2.88" y="2.88" width="3954.12" height="2874.24" style="fill:none;stroke:#EAF2F3;stroke-width:5.76"/>
	<rect x="360.11" y="275.35" width="3498.91" height="1818.32" style="fill:#FFFFFF"/>
	<rect x="362.99" y="278.23" width="3493.15" height="1812.56" style="fill:none;stroke:#FFFFFF;stroke-width:5.76"/>
	<line x1="360.11" y1="2030.31" x2="3859.02" y2="2030.31" style="stroke:#EAF2F3;stroke-width:8.64"/>
	<line x1="360.11" y1="1942.32" x2="3859.02" y2="1942.32" style="stroke:#EAF2F3;stroke-width:8.64"/>
	<line x1="360.11" y1="1854.45" x2="3859.02" y2="1854.45" style="stroke:#EAF2F3;stroke-width:8.64"/>
	<line x1="360.11" y1="1766.46" x2="3859.02" y2="1766.46" style="stroke:#EAF2F3;stroke-width:8.64"/>
	<line x1="360.11" y1="1678.47" x2="3859.02" y2="1678.47" style="stroke:#EAF2F3;stroke-width:8.64"/>
	<line x1="360.11" y1="1590.48" x2="3859.02" y2="1590.48" style="stroke:#EAF2F3;stroke-width:8.64"/>
	<line x1="360.11" y1="1502.50" x2="3859.02" y2="1502.50" style="stroke:#EAF2F3;stroke-width:8.64"/>
	<line x1="360.11" y1="1414.63" x2="3859.02" y2="1414.63" style="stroke:#EAF2F3;stroke-width:8.64"/>
	<line x1="360.11" y1="1326.64" x2="3859.02" y2="1326.64" style="stroke:#EAF2F3;stroke-width:8.64"/>
	<line x1="360.11" y1="1238.65" x2="3859.02" y2="1238.65" style="stroke:#EAF2F3;stroke-width:8.64"/>
	<line x1="360.11" y1="1150.66" x2="3859.02" y2="1150.66" style="stroke:#EAF2F3;stroke-width:8.64"/>
	<path d=" M423.47 2030.43 L423.47 2030.43 L423.47 2030.43 L423.47 2030.43 L423.47 2030.43 L451.19 2030.43 L451.19 2030.43 L455.77 2030.43 L455.77 2030.43 L474.21 2030.43 L474.21 2030.43 L515.79 2030.43 L515.79 2003.70 L520.37 2003.70 L520.37 2003.70 L561.95 2003.70 L561.95 2003.70 L644.99 2003.70 L644.99 2003.70 L681.99 2003.70 L681.99 2003.70 L691.14 2003.70 L691.14 2003.70 L765.02 2003.70 L765.02 2003.70 L820.46 2003.70 L820.46 1976.10 L866.62 1976.10 L866.62 1976.10 L875.78 1976.10 L875.78 1976.10 L889.64 1976.10 L889.64 1976.10 L894.34 1976.10 L894.34 1976.10 L912.78 1976.10 L912.78 1947.64 L921.94 1947.64 L921.94 1947.64 L945.08 1947.64 L945.08 1947.64 L954.36 1947.64 L954.36 1947.64 L972.80 1947.64 L972.80 1947.64 L977.38 1947.64 L977.38 1918.56 L986.66 1918.56 L986.66 1918.56 L1005.10 1918.56 L1005.10 1889.10 L1014.38 1889.10 L1014.38 1889.10 L1046.68 1889.10 L1046.68 1889.10 L1055.84 1889.10 L1055.84 1889.10 L1097.42 1889.10 L1097.42 1889.10 L1134.29 1889.10 L1134.29 1889.10 L1157.43 1889.10 L1157.43 1889.10 L1226.73 1889.10 L1226.73 1889.10 L1235.89 1889.10 L1235.89 1889.10 L1259.03 1889.10 L1259.03 1858.04 L1268.19 1858.04 L1268.19 1858.04 L1277.47 1858.04 L1277.47 1858.04 L1286.63 1858.04 L1286.63 1858.04 L1291.33 1858.04 L1291.33 1858.04 L1323.63 1858.04 L1323.63 1858.04 L1328.21 1858.04 L1328.21 1858.04 L1379.07 1858.04 L1379.07 1858.04 L1383.65 1858.04 L1383.65 1858.04 L1411.37 1858.04 L1411.37 1858.04 L1425.23 1858.04 L1425.23 1858.04 L1434.39 1858.04 L1434.39 1824.01 L1438.97 1824.01 L1438.97 1824.01 L1448.25 1824.01 L1448.25 1824.01 L1480.55 1824.01 L1480.55 1824.01 L1489.83 1824.01 L1489.83 1824.01 L1508.27 1824.01 L1508.27 1824.01 L1522.13 1824.01 L1522.13 1824.01 L1545.14 1824.01 L1545.14 1824.01 L1577.57 1824.01 L1577.57 1824.01 L1596.00 1824.01 L1596.00 1824.01 L1605.16 1824.01 L1605.16 1824.01 L1609.86 1824.01 L1609.86 1824.01 L1656.02 1824.01 L1656.02 1824.01 L1669.88 1824.01 L1669.88 1824.01 L1683.74 1824.01 L1683.74 1784.41 L1702.18 1784.41 L1702.18 1744.93 L1706.76 1744.93 L1706.76 1744.93 L1762.20 1744.93 L1762.20 1744.93 L1803.66 1744.93 L1803.66 1744.93 L1831.38 1744.93 L1831.38 1744.93 L1863.68 1744.93 L1863.68 1744.93 L1872.96 1744.93 L1872.96 1744.93 L1891.40 1744.93 L1891.40 1744.93 L1896.10 1744.93 L1896.10 1744.93 L1909.83 1744.93 L1909.83 1744.93 L1914.54 1744.93 L1914.54 1744.93 L1919.12 1744.93 L1919.12 1744.93 L1928.40 1744.93 L1928.40 1744.93 L1946.84 1744.93 L1946.84 1744.93 L1960.70 1744.93 L1960.70 1744.93 L1965.27 1744.93 L1965.27 1744.93 L2011.43 1744.93 L2011.43 1744.93 L2016.01 1744.93 L2016.01 1744.93 L2066.87 1744.93 L2066.87 1744.93 L2080.73 1744.93 L2080.73 1744.93 L2099.17 1744.93 L2099.17 1744.93 L2108.45 1744.93 L2108.45 1744.93 L2131.47 1744.93 L2131.47 1744.93 L2154.61 1744.93 L2154.61 1744.93 L2168.35 1744.93 L2168.35 1744.93 L2182.21 1744.93 L2182.21 1744.93 L2196.07 1744.93 L2196.07 1744.93 L2214.51 1744.93 L2214.51 1744.93 L2242.23 1744.93 L2242.23 1744.93 L2265.37 1744.93 L2265.37 1744.93 L2274.53 1744.93 L2274.53 1744.93 L2288.39 1744.93 L2288.39 1744.93 L2293.09 1744.93 L2293.09 1744.93 L2302.25 1744.93 L2302.25 1744.93 L2320.68 1744.93 L2320.68 1744.93 L2376.12 1744.93 L2376.12 1744.93 L2403.84 1744.93 L2403.84 1744.93 L2413.13 1744.93 L2413.13 1744.93 L2426.86 1744.93 L2426.86 1744.93 L2482.30 1744.93 L2482.30 1744.93 L2523.88 1744.93 L2523.88 1679.59 L2546.90 1679.59 L2546.90 1679.59 L2551.60 1679.59 L2551.60 1679.59 L2556.18 1679.59 L2556.18 1679.59 L2560.76 1679.59 L2560.76 1679.59 L2574.62 1679.59 L2574.62 1679.59 L2579.20 1679.59 L2579.20 1679.59 L2597.76 1679.59 L2597.76 1679.59 L2620.78 1679.59 L2620.78 1679.59 L2662.36 1679.59 L2662.36 1679.59 L2726.96 1679.59 L2726.96 1679.59 L2773.11 1679.59 L2773.11 1679.59 L2782.40 1679.59 L2782.40 1679.59 L2833.13 1679.59 L2833.13 1679.59 L2925.45 1679.59 L2925.45 1679.59 L2971.61 1679.59 L2971.61 1679.59 L2980.89 1679.59 L2980.89 1679.59 L2994.75 1679.59 L2994.75 1679.59 L3003.91 1679.59 L3003.91 1679.59 L3022.47 1679.59 L3022.47 1580.96 L3027.05 1580.96 L3027.05 1580.96 L3040.91 1580.96 L3040.91 1580.96 L3045.49 1580.96 L3045.49 1580.96 L3063.93 1580.96 L3063.93 1580.96 L3077.79 1580.96 L3077.79 1471.19 L3082.49 1471.19 L3082.49 1471.19 L3105.51 1471.19 L3105.51 1471.19 L3110.09 1471.19 L3110.09 1471.19 L3114.79 1471.19 L3114.79 1471.19 L3170.10 1471.19 L3170.10 1471.19 L3225.54 1471.19 L3225.54 1471.19 L3271.70 1471.19 L3271.70 1471.19 L3290.14 1471.19 L3290.14 1471.19 L3294.84 1471.19 L3294.84 1471.19 L3313.28 1471.19 L3313.28 1471.19 L3322.44 1471.19 L3322.44 1471.19 L3331.72 1471.19 L3331.72 1471.19 L3382.46 1471.19 L3382.46 1471.19 L3405.60 1471.19 L3405.60 1471.19 L3419.46 1471.19 L3419.46 1471.19 L3433.32 1471.19 L3433.32 1471.19 L3460.92 1471.19 L3460.92 1471.19 L3479.48 1471.19 L3479.48 1471.19 L3516.36 1471.19 L3516.36 1471.19 L3539.50 1471.19 L3539.50 1471.19 L3548.66 1471.19 L3548.66 1471.19 L3557.94 1471.19 L3557.94 1471.19 L3604.10 1471.19 L3604.10 1471.19 L3613.25 1471.19 L3613.25 1471.19 L3627.11 1471.19 L3627.11 1471.19 L3640.97 1471.19 L3640.97 1471.19 L3659.54 1471.19 L3659.54 1471.19" stroke-linejoin="round" style="fill:none;stroke:#1A476F;stroke-width:8.64"/>
	<path d=" M423.47 2030.43 L423.47 2030.43 L423.47 2030.43 L423.47 2030.43 L423.47 2030.43 L428.05 2030.43 L428.05 2030.43 L663.42 2030.43 L663.42 2030.43 L889.64 2030.43 L889.64 2030.43 L1083.56 2030.43 L1083.56 2030.43 L1235.89 2030.43 L1235.89 2030.43 L1355.93 2030.43 L1355.93 2030.43 L1462.11 2030.43 L1462.11 2030.43 L1739.06 2030.43 L1739.06 2030.43 L1951.41 2030.43 L1951.41 2030.43 L2043.73 2030.43 L2043.73 2030.43 L2246.93 2030.43 L2246.93 2030.43 L2491.58 2030.43 L2491.58 2030.43 L2542.32 2030.43 L2542.32 2030.43 L2768.54 2030.43 L2768.54 2030.43 L3045.49 2030.43 L3045.49 2030.43 L3114.79 2030.43 L3114.79 2030.43 L3414.76 2030.43 L3414.76 2030.43" stroke-linejoin="round" style="fill:none;stroke:#90353B;stroke-width:8.64"/>
	<path d=" M423.47 2030.43 L423.47 2030.43 L423.47 2030.43 L423.47 2030.43 L423.47 2030.43 L534.23 2030.43 L534.23 2030.43 L917.36 2030.43 L917.36 2030.43 L1055.84 2030.43 L1055.84 2030.43 L1175.87 2030.43 L1175.87 2030.43 L1231.31 2030.43 L1231.31 2030.43 L1596.00 2030.43 L1596.00 2030.43 L2002.28 2030.43 L2002.28 1692.09 L2293.09 1692.09 L2293.09 1692.09 L2329.97 1692.09 L2329.97 1692.09 L2634.64 1692.09 L2634.64 1692.09 L2777.82 1692.09 L2777.82 1692.09 L2934.73 1692.09 L2934.73 1692.09 L2976.31 1692.09 L2976.31 1692.09 L3174.81 1692.09 L3174.81 1692.09 L3317.86 1692.09 L3317.86 1692.09 L3442.48 1692.09 L3442.48 338.84 L3460.92 338.84 L3460.92 338.84 L3636.39 338.84 L3636.39 338.84" stroke-linejoin="round" style="fill:none;stroke:#55752F;stroke-width:8.64"/>
	<line x1="360.11" y1="2093.67" x2="360.11" y2="275.35" style="stroke:#000000;stroke-width:5.76"/>
	<line x1="360.11" y1="2030.31" x2="320.14" y2="2030.31" style="stroke:#000000;stroke-width:5.76"/>
	<text x="300.09" y="2065.33" style="font-family:'Helvetica';font-size:99.99px;fill:#000000" text-anchor="end">0.00</text>
	<line x1="360.11" y1="1942.32" x2="320.14" y2="1942.32" style="stroke:#000000;stroke-width:5.76"/>
	<text x="300.09" y="1977.35" style="font-family:'Helvetica';font-size:99.99px;fill:#000000" text-anchor="end">0.02</text>
	<line x1="360.11" y1="1854.45" x2="320.14" y2="1854.45" style="stroke:#000000;stroke-width:5.76"/>
	<text x="300.09" y="1889.48" style="font-family:'Helvetica';font-size:99.99px;fill:#000000" text-anchor="end">0.04</text>
	<line x1="360.11" y1="1766.46" x2="320.14" y2="1766.46" style="stroke:#000000;stroke-width:5.76"/>
	<text x="300.09" y="1801.49" style="font-family:'Helvetica';font-size:99.99px;fill:#000000" text-anchor="end">0.06</text>
	<line x1="360.11" y1="1678.47" x2="320.14" y2="1678.47" style="stroke:#000000;stroke-width:5.76"/>
	<text x="300.09" y="1713.50" style="font-family:'Helvetica';font-size:99.99px;fill:#000000" text-anchor="end">0.08</text>
	<line x1="360.11" y1="1590.48" x2="320.14" y2="1590.48" style="stroke:#000000;stroke-width:5.76"/>
	<text x="300.09" y="1625.51" style="font-family:'Helvetica';font-size:99.99px;fill:#000000" text-anchor="end">0.10</text>
	<line x1="360.11" y1="1502.50" x2="320.14" y2="1502.50" style="stroke:#000000;stroke-width:5.76"/>
	<text x="300.09" y="1537.52" style="font-family:'Helvetica';font-size:99.99px;fill:#000000" text-anchor="end">0.12</text>
	<line x1="360.11" y1="1414.63" x2="320.14" y2="1414.63" style="stroke:#000000;stroke-width:5.76"/>
	<text x="300.09" y="1449.66" style="font-family:'Helvetica';font-size:99.99px;fill:#000000" text-anchor="end">0.14</text>
	<line x1="360.11" y1="1326.64" x2="320.14" y2="1326.64" style="stroke:#000000;stroke-width:5.76"/>
	<text x="300.09" y="1361.67" style="font-family:'Helvetica';font-size:99.99px;fill:#000000" text-anchor="end">0.16</text>
	<line x1="360.11" y1="1238.65" x2="320.14" y2="1238.65" style="stroke:#000000;stroke-width:5.76"/>
	<text x="300.09" y="1273.68" style="font-family:'Helvetica';font-size:99.99px;fill:#000000" text-anchor="end">0.18</text>
	<line x1="360.11" y1="1150.66" x2="320.14" y2="1150.66" style="stroke:#000000;stroke-width:5.76"/>
	<text x="300.09" y="1185.69" style="font-family:'Helvetica';font-size:99.99px;fill:#000000" text-anchor="end">0.20</text>
	<text x="190.71" y="1184.57" style="font-family:'Helvetica';font-size:99.99px;fill:#000000" transform="rotate(-90 190.71,1184.57)" text-anchor="middle">Cumulative ESRD</text>
	<line x1="360.11" y1="2093.67" x2="3859.02" y2="2093.67" style="stroke:#000000;stroke-width:5.76"/>
	<line x1="423.47" y1="2093.67" x2="423.47" y2="2133.64" style="stroke:#000000;stroke-width:5.76"/>
	<text x="423.47" y="2223.62" style="font-family:'Helvetica';font-size:99.99px;fill:#000000" text-anchor="middle">0</text>
	<line x1="1266.58" y1="2093.67" x2="1266.58" y2="2133.64" style="stroke:#000000;stroke-width:5.76"/>
	<text x="1266.58" y="2223.62" style="font-family:'Helvetica';font-size:99.99px;fill:#000000" text-anchor="middle">.5</text>
	<line x1="2109.57" y1="2093.67" x2="2109.57" y2="2133.64" style="stroke:#000000;stroke-width:5.76"/>
	<text x="2109.57" y="2223.62" style="font-family:'Helvetica';font-size:99.99px;fill:#000000" text-anchor="middle">1</text>
	<line x1="2952.68" y1="2093.67" x2="2952.68" y2="2133.64" style="stroke:#000000;stroke-width:5.76"/>
	<text x="2952.68" y="2223.62" style="font-family:'Helvetica';font-size:99.99px;fill:#000000" text-anchor="middle">1.5</text>
	<line x1="3795.66" y1="2093.67" x2="3795.66" y2="2133.64" style="stroke:#000000;stroke-width:5.76"/>
	<text x="3795.66" y="2223.62" style="font-family:'Helvetica';font-size:99.99px;fill:#000000" text-anchor="middle">2</text>
	<text x="2109.57" y="2333.64" style="font-family:'Helvetica';font-size:99.99px;fill:#000000" text-anchor="middle">Follow-up (years)</text>
	<rect x="394.64" y="2418.27" width="3429.86" height="326.34" style="fill:#FFFFFF"/>
	<rect x="397.52" y="2421.15" width="3424.10" height="320.58" style="fill:none;stroke:#000000;stroke-width:5.76"/>
	<line x1="437.95" y1="2511.46" x2="663.18" y2="2511.46" style="stroke:#1A476F;stroke-width:8.64"/>
	<line x1="2235.05" y1="2511.46" x2="2460.40" y2="2511.46" style="stroke:#90353B;stroke-width:8.64"/>
	<line x1="437.95" y1="2651.43" x2="663.18" y2="2651.43" style="stroke:#55752F;stroke-width:8.64"/>
	<text x="699.31" y="2546.49" style="font-family:'Helvetica';font-size:99.99px;fill:#000000">covid_severity = SARS-CoV-2 without hospitalisation</text>
	<text x="2496.53" y="2546.49" style="font-family:'Helvetica';font-size:99.99px;fill:#000000">covid_severity = COVID-19 with hospitalisation</text>
	<text x="699.31" y="2686.46" style="font-family:'Helvetica';font-size:99.99px;fill:#000000">covid_severity = COVID-19 with critical care</text>
	<text x="2109.57" y="215.98" style="font-family:'Helvetica';font-size:139.96px;fill:#1E2D53" text-anchor="middle">Cumulative ESRD after SARS-CoV-2 survival by covid_severity</text>
</svg>
