<?xml version="1.0" encoding="UTF-8" standalone="no"?>
<!-- This is a Stata 17.0 generated SVG file (http://www.stata.com) -->

<svg version="1.1" width="5.500in" height="4.000in" viewBox="0 0 3960 2880" xmlns="http://www.w3.org/2000/svg" xmlns:xlink="http://www.w3.org/1999/xlink">
	<desc>Stata Graph - Graph</desc>
	<rect x="0" y="0" width="3960" height="2880" style="fill:#EAF2F3;stroke:none"/>
	<rect x="0.00" y="0.00" width="3959.88" height="2880.00" style="fill:#EAF2F3"/>
	<rect x="2.88" y="2.88" width="3954.12" height="2874.24" style="fill:none;stroke:#EAF2F3;stroke-width:5.76"/>
	<rect x="312.22" y="275.35" width="3546.80" height="1958.28" style="fill:#FFFFFF"/>
	<rect x="315.10" y="278.23" width="3541.04" height="1952.52" style="fill:none;stroke:#FFFFFF;stroke-width:5.76"/>
	<line x1="312.22" y1="2170.27" x2="3859.02" y2="2170.27" style="stroke:#EAF2F3;stroke-width:8.64"/>
	<line x1="312.22" y1="1803.96" x2="3859.02" y2="1803.96" style="stroke:#EAF2F3;stroke-width:8.64"/>
	<line x1="312.22" y1="1437.65" x2="3859.02" y2="1437.65" style="stroke:#EAF2F3;stroke-width:8.64"/>
	<line x1="312.22" y1="1071.34" x2="3859.02" y2="1071.34" style="stroke:#EAF2F3;stroke-width:8.64"/>
	<line x1="312.22" y1="705.03" x2="3859.02" y2="705.03" style="stroke:#EAF2F3;stroke-width:8.64"/>
	<path d=" M375.58 2170.40 L375.58 2170.40 L375.58 2170.40 L380.28 2170.40 L380.28 2170.40 L403.67 2170.40 L403.67 2170.40 L408.38 2170.40 L408.38 2170.40 L427.06 2170.40 L427.06 2170.40 L473.84 2170.40 L473.84 2170.40 L487.95 2170.40 L487.95 2170.40 L600.31 2170.40 L600.31 2170.40 L619.00 2170.40 L619.00 2170.40 L637.81 2170.40 L637.81 2170.40 L647.09 2170.40 L647.09 2170.40 L722.08 2170.40 L722.08 2150.35 L825.04 2150.35 L825.04 2150.35 L834.45 2150.35 L834.45 2150.35 L848.43 2150.35 L848.43 2150.35 L853.13 2150.35 L853.13 2150.35 L876.52 2150.35 L876.52 2150.35 L881.22 2150.35 L881.22 2150.35 L904.61 2150.35 L904.61 2150.35 L914.02 2150.35 L914.02 2150.35 L932.70 2150.35 L932.70 2150.35 L946.81 2150.35 L946.81 2150.35 L974.90 2150.35 L974.90 2150.35 L1016.98 2150.35 L1016.98 2150.35 L1045.07 2150.35 L1045.07 2150.35 L1059.18 2150.35 L1059.18 2150.35 L1096.55 2150.35 L1096.55 2150.35 L1119.94 2150.35 L1119.94 2150.35 L1138.75 2150.35 L1138.75 2150.35 L1190.23 2150.35 L1190.23 2150.35 L1194.93 2150.35 L1194.93 2150.35 L1199.63 2150.35 L1199.63 2150.35 L1232.30 2150.35 L1232.30 2150.35 L1241.71 2150.35 L1241.71 2150.35 L1251.11 2150.35 L1251.11 2150.35 L1255.82 2150.35 L1255.82 2150.35 L1288.48 2150.35 L1288.48 2150.35 L1293.19 2150.35 L1293.19 2150.35 L1321.28 2150.35 L1321.28 2150.35 L1344.67 2150.35 L1344.67 2150.35 L1349.37 2150.35 L1349.37 2150.35 L1377.46 2150.35 L1377.46 2150.35 L1391.57 2150.35 L1391.57 2150.35 L1400.85 2150.35 L1400.85 2150.35 L1405.55 2150.35 L1405.55 2150.35 L1414.96 2150.35 L1414.96 2150.35 L1428.94 2150.35 L1428.94 2150.35 L1447.75 2150.35 L1447.75 2124.36 L1457.03 2124.36 L1457.03 2124.36 L1475.84 2124.36 L1475.84 2124.36 L1489.83 2124.36 L1489.83 2124.36 L1513.22 2124.36 L1513.22 2124.36 L1546.01 2124.36 L1546.01 2124.36 L1564.82 2124.36 L1564.82 2124.36 L1574.10 2124.36 L1574.10 2124.36 L1578.80 2124.36 L1578.80 2124.36 L1625.58 2124.36 L1625.58 2124.36 L1639.69 2124.36 L1639.69 2095.90 L1663.08 2095.90 L1663.08 2095.90 L1677.18 2095.90 L1677.18 2095.90 L1709.85 2095.90 L1709.85 2095.90 L1733.37 2095.90 L1733.37 2095.90 L1775.44 2095.90 L1775.44 2095.90 L1803.53 2095.90 L1803.53 2095.90 L1836.33 2095.90 L1836.33 2095.90 L1845.73 2095.90 L1845.73 2095.90 L1864.42 2095.90 L1864.42 2095.90 L1869.12 2095.90 L1869.12 2095.90 L1883.10 2095.90 L1883.10 2095.90 L1887.81 2095.90 L1887.81 2095.90 L1892.51 2095.90 L1892.51 2095.90 L1901.91 2095.90 L1901.91 2095.90 L1920.60 2095.90 L1920.60 2095.90 L1925.30 2095.90 L1925.30 2095.90 L1939.29 2095.90 L1939.29 2062.61 L1986.19 2062.61 L1986.19 2062.61 L1990.77 2062.61 L1990.77 2062.61 L2018.86 2062.61 L2018.86 2062.61 L2042.37 2062.61 L2042.37 2062.61 L2056.35 2062.61 L2056.35 2062.61 L2075.04 2062.61 L2075.04 2062.61 L2084.45 2062.61 L2084.45 2062.61 L2107.83 2062.61 L2107.83 2062.61 L2131.22 2062.61 L2131.22 2062.61 L2145.33 2062.61 L2145.33 2062.61 L2159.31 2062.61 L2159.31 2062.61 L2173.42 2062.61 L2173.42 2062.61 L2192.11 2062.61 L2192.11 2062.61 L2220.20 2062.61 L2220.20 2062.61 L2224.90 2062.61 L2224.90 2062.61 L2243.59 2062.61 L2243.59 2062.61 L2252.99 2062.61 L2252.99 2062.61 L2267.10 2062.61 L2267.10 2062.61 L2271.68 2062.61 L2271.68 2062.61 L2281.08 2062.61 L2281.08 2021.77 L2299.77 2021.77 L2299.77 2021.77 L2309.18 2021.77 L2309.18 2021.77 L2313.88 2021.77 L2313.88 2021.77 L2341.97 2021.77 L2341.97 2021.77 L2355.95 2021.77 L2355.95 2021.77 L2384.04 2021.77 L2384.04 2021.77 L2393.45 2021.77 L2393.45 2021.77 L2407.43 2021.77 L2407.43 2021.77 L2463.61 2021.77 L2463.61 2021.77 L2473.02 2021.77 L2473.02 2021.77 L2505.81 2021.77 L2505.81 2021.77 L2524.50 2021.77 L2524.50 2021.77 L2533.91 2021.77 L2533.91 2021.77 L2538.61 2021.77 L2538.61 2021.77 L2543.31 2021.77 L2543.31 2021.77 L2557.29 2021.77 L2557.29 2021.77 L2562.00 2021.77 L2562.00 2021.77 L2580.68 2021.77 L2580.68 2021.77 L2604.07 2021.77 L2604.07 1968.55 L2618.18 1968.55 L2618.18 1968.55 L2646.27 1968.55 L2646.27 1968.55 L2655.68 1968.55 L2655.68 1968.55 L2711.86 1968.55 L2711.86 1968.55 L2753.93 1968.55 L2753.93 1968.55 L2758.64 1968.55 L2758.64 1968.55 L2763.34 1968.55 L2763.34 1968.55 L2768.04 1968.55 L2768.04 1968.55 L2819.52 1968.55 L2819.52 1968.55 L2913.08 1968.55 L2913.08 1968.55 L2922.48 1968.55 L2922.48 1968.55 L2945.87 1968.55 L2945.87 1968.55 L2955.27 1968.55 L2955.27 1968.55 L2959.98 1968.55 L2959.98 1968.55 L2964.68 1968.55 L2964.68 1968.55 L2969.26 1968.55 L2969.26 1968.55 L2983.37 1968.55 L2983.37 1968.55 L2992.77 1968.55 L2992.77 1968.55 L3016.16 1968.55 L3016.16 1968.55 L3030.14 1968.55 L3030.14 1968.55 L3034.85 1968.55 L3034.85 1968.55 L3053.53 1968.55 L3053.53 1968.55 L3067.64 1968.55 L3067.64 1968.55 L3072.34 1968.55 L3072.34 1968.55 L3095.73 1968.55 L3095.73 1968.55 L3100.43 1968.55 L3100.43 1968.55 L3105.14 1968.55 L3105.14 1968.55 L3161.32 1968.55 L3161.32 1968.55 L3165.90 1968.55 L3165.90 1968.55 L3217.50 1968.55 L3217.50 1968.55 L3254.87 1968.55 L3254.87 1968.55 L3264.28 1968.55 L3264.28 1968.55 L3282.96 1968.55 L3282.96 1968.55 L3287.67 1968.55 L3287.67 1968.55 L3306.35 1968.55 L3306.35 1968.55 L3311.06 1968.55 L3311.06 1968.55 L3315.76 1968.55 L3315.76 1968.55 L3325.16 1968.55 L3325.16 1968.55 L3376.64 1968.55 L3376.64 1968.55 L3400.03 1968.55 L3400.03 1968.55 L3409.44 1968.55 L3409.44 1968.55 L3414.14 1968.55 L3414.14 1968.55 L3428.12 1968.55 L3428.12 1968.55 L3456.21 1968.55 L3456.21 1968.55 L3474.90 1968.55 L3474.90 1968.55 L3512.40 1968.55 L3512.40 1968.55 L3535.79 1968.55 L3535.79 1968.55 L3545.19 1968.55 L3545.19 1968.55 L3554.60 1968.55 L3554.60 1968.55 L3587.27 1968.55 L3587.27 1968.55 L3601.37 1968.55 L3601.37 1968.55 L3624.76 1968.55 L3624.76 1968.55 L3634.17 1968.55 L3634.17 1968.55 L3638.87 1968.55 L3638.87 1968.55 L3657.56 1968.55 L3657.56 1968.55" stroke-linejoin="round" style="fill:none;stroke:#1A476F;stroke-width:8.64"/>
	<path d=" M375.58 2170.40 L375.58 2170.40 L375.58 2170.40 L516.04 2170.40 L516.04 2170.40 L1007.57 2170.40 L1007.57 1804.08 L1574.10 1804.08 L1574.10 1804.08 L1934.58 1804.08 L1934.58 1391.98 L2440.23 1391.98 L2440.23 1391.98 L2529.20 1391.98 L2529.20 1391.98 L2557.29 1391.98 L2557.29 1391.98 L3217.50 1391.98 L3217.50 1391.98 L3456.21 1391.98 L3456.21 1391.98 L3512.40 1391.98 L3512.40 1391.98 L3610.78 1391.98 L3610.78 1391.98" stroke-linejoin="round" style="fill:none;stroke:#90353B;stroke-width:8.64"/>
	<line x1="312.22" y1="2233.63" x2="312.22" y2="275.35" style="stroke:#000000;stroke-width:5.76"/>
	<line x1="312.22" y1="2170.27" x2="272.25" y2="2170.27" style="stroke:#000000;stroke-width:5.76"/>
	<text x="252.33" y="2205.30" style="font-family:'Helvetica';font-size:99.99px;fill:#000000" text-anchor="end">0.00</text>
	<line x1="312.22" y1="1803.96" x2="272.25" y2="1803.96" style="stroke:#000000;stroke-width:5.76"/>
	<text x="252.33" y="1838.99" style="font-family:'Helvetica';font-size:99.99px;fill:#000000" text-anchor="end">0.10</text>
	<line x1="312.22" y1="1437.65" x2="272.25" y2="1437.65" style="stroke:#000000;stroke-width:5.76"/>
	<text x="252.33" y="1472.68" style="font-family:'Helvetica';font-size:99.99px;fill:#000000" text-anchor="end">0.20</text>
	<line x1="312.22" y1="1071.34" x2="272.25" y2="1071.34" style="stroke:#000000;stroke-width:5.76"/>
	<text x="252.33" y="1106.37" style="font-family:'Helvetica';font-size:99.99px;fill:#000000" text-anchor="end">0.30</text>
	<line x1="312.22" y1="705.03" x2="272.25" y2="705.03" style="stroke:#000000;stroke-width:5.76"/>
	<text x="252.33" y="740.05" style="font-family:'Helvetica';font-size:99.99px;fill:#000000" text-anchor="end">0.40</text>
	<line x1="312.22" y1="338.71" x2="272.25" y2="338.71" style="stroke:#000000;stroke-width:5.76"/>
	<text x="252.33" y="373.74" style="font-family:'Helvetica';font-size:99.99px;fill:#000000" text-anchor="end">0.50</text>
	<text x="190.71" y="1254.49" style="font-family:'Helvetica';font-size:99.99px;fill:#000000" transform="rotate(-90 190.71,1254.49)" text-anchor="middle">Cumulative mortality</text>
	<line x1="312.22" y1="2233.63" x2="3859.02" y2="2233.63" style="stroke:#000000;stroke-width:5.76"/>
	<line x1="375.58" y1="2233.63" x2="375.58" y2="2273.73" style="stroke:#000000;stroke-width:5.76"/>
	<text x="375.58" y="2363.59" style="font-family:'Helvetica';font-size:99.99px;fill:#000000" text-anchor="middle">0</text>
	<line x1="1230.69" y1="2233.63" x2="1230.69" y2="2273.73" style="stroke:#000000;stroke-width:5.76"/>
	<text x="1230.69" y="2363.59" style="font-family:'Helvetica';font-size:99.99px;fill:#000000" text-anchor="middle">.5</text>
	<line x1="2085.68" y1="2233.63" x2="2085.68" y2="2273.73" style="stroke:#000000;stroke-width:5.76"/>
	<text x="2085.68" y="2363.59" style="font-family:'Helvetica';font-size:99.99px;fill:#000000" text-anchor="middle">1</text>
	<line x1="2940.67" y1="2233.63" x2="2940.67" y2="2273.73" style="stroke:#000000;stroke-width:5.76"/>
	<text x="2940.67" y="2363.59" style="font-family:'Helvetica';font-size:99.99px;fill:#000000" text-anchor="middle">1.5</text>
	<line x1="3795.78" y1="2233.63" x2="3795.78" y2="2273.73" style="stroke:#000000;stroke-width:5.76"/>
	<text x="3795.78" y="2363.59" style="font-family:'Helvetica';font-size:99.99px;fill:#000000" text-anchor="middle">2</text>
	<text x="2085.68" y="2473.60" style="font-family:'Helvetica';font-size:99.99px;fill:#000000" text-anchor="middle">Follow-up (years)</text>
	<rect x="346.87" y="2558.24" width="3477.62" height="186.37" style="fill:#FFFFFF"/>
	<rect x="349.75" y="2561.12" width="3471.86" height="180.61" style="fill:none;stroke:#000000;stroke-width:5.76"/>
	<line x1="390.06" y1="2651.43" x2="572.84" y2="2651.43" style="stroke:#1A476F;stroke-width:8.64"/>
	<line x1="2154.74" y1="2651.43" x2="2337.64" y2="2651.43" style="stroke:#90353B;stroke-width:8.64"/>
	<text x="602.17" y="2686.46" style="font-family:'Helvetica';font-size:99.99px;fill:#000000">covid_acute_kidney_injury = COVID-19 without acute kidney injury</text>
	<text x="2366.97" y="2686.46" style="font-family:'Helvetica';font-size:99.99px;fill:#000000">covid_acute_kidney_injury = COVID-19 with acute kidney injury</text>
	<text x="2085.68" y="215.98" style="font-family:'Helvetica';font-size:139.96px;fill:#1E2D53" text-anchor="middle">Cumulative mortality after SARS-CoV-2 survival by covid_acute_kidney_injury</text>
</svg>
