<?xml version="1.0" encoding="UTF-8" standalone="no"?>
<!-- This is a Stata 17.0 generated SVG file (http://www.stata.com) -->

<svg version="1.1" width="5.500in" height="4.000in" viewBox="0 0 3960 2880" xmlns="http://www.w3.org/2000/svg" xmlns:xlink="http://www.w3.org/1999/xlink">
	<desc>Stata Graph - Graph</desc>
	<rect x="0" y="0" width="3960" height="2880" style="fill:#EAF2F3;stroke:none"/>
	<rect x="0.00" y="0.00" width="3959.88" height="2880.00" style="fill:#EAF2F3"/>
	<rect x="2.88" y="2.88" width="3954.12" height="2874.24" style="fill:none;stroke:#EAF2F3;stroke-width:5.76"/>
	<rect x="360.11" y="275.35" width="3498.91" height="1818.32" style="fill:#FFFFFF"/>
	<rect x="362.99" y="278.23" width="3493.15" height="1812.56" style="fill:none;stroke:#FFFFFF;stroke-width:5.76"/>
	<line x1="360.11" y1="2030.31" x2="3859.02" y2="2030.31" style="stroke:#EAF2F3;stroke-width:8.64"/>
	<line x1="360.11" y1="1691.96" x2="3859.02" y2="1691.96" style="stroke:#EAF2F3;stroke-width:8.64"/>
	<line x1="360.11" y1="1353.74" x2="3859.02" y2="1353.74" style="stroke:#EAF2F3;stroke-width:8.64"/>
	<line x1="360.11" y1="1015.40" x2="3859.02" y2="1015.40" style="stroke:#EAF2F3;stroke-width:8.64"/>
	<line x1="360.11" y1="677.06" x2="3859.02" y2="677.06" style="stroke:#EAF2F3;stroke-width:8.64"/>
	<path d=" M423.47 2030.43 L423.47 2030.43 L423.47 2030.43 L423.47 2030.43 L423.47 2030.43 L451.19 2030.43 L451.19 2030.43 L455.77 2030.43 L455.77 2030.43 L474.21 2030.43 L474.21 2030.43 L520.37 2030.43 L520.37 2030.43 L561.95 2030.43 L561.95 2030.43 L644.99 2030.43 L644.99 2030.43 L681.99 2030.43 L681.99 2030.43 L691.14 2030.43 L691.14 2030.43 L765.02 2030.43 L765.02 2009.14 L866.62 2009.14 L866.62 2009.14 L875.78 2009.14 L875.78 2009.14 L889.64 2009.14 L889.64 2009.14 L894.34 2009.14 L894.34 2009.14 L921.94 2009.14 L921.94 2009.14 L945.08 2009.14 L945.08 2009.14 L954.36 2009.14 L954.36 2009.14 L972.80 2009.14 L972.80 2009.14 L986.66 2009.14 L986.66 2009.14 L1014.38 2009.14 L1014.38 2009.14 L1046.68 2009.14 L1046.68 1986.25 L1055.84 1986.25 L1055.84 1986.25 L1097.42 1986.25 L1097.42 1986.25 L1134.29 1986.25 L1134.29 1986.25 L1157.43 1986.25 L1157.43 1986.25 L1226.73 1986.25 L1226.73 1986.25 L1235.89 1986.25 L1235.89 1986.25 L1268.19 1986.25 L1268.19 1986.25 L1277.47 1986.25 L1277.47 1986.25 L1286.63 1986.25 L1286.63 1986.25 L1291.33 1986.25 L1291.33 1986.25 L1323.63 1986.25 L1323.63 1986.25 L1328.21 1986.25 L1328.21 1986.25 L1379.07 1986.25 L1379.07 1986.25 L1383.65 1986.25 L1383.65 1986.25 L1411.37 1986.25 L1411.37 1986.25 L1425.23 1986.25 L1425.23 1986.25 L1434.39 1986.25 L1434.39 1986.25 L1438.97 1986.25 L1438.97 1986.25 L1448.25 1986.25 L1448.25 1986.25 L1480.55 1986.25 L1480.55 1959.27 L1489.83 1959.27 L1489.83 1959.27 L1508.27 1959.27 L1508.27 1959.27 L1522.13 1959.27 L1522.13 1959.27 L1545.14 1959.27 L1545.14 1959.27 L1577.57 1959.27 L1577.57 1959.27 L1596.00 1959.27 L1596.00 1959.27 L1605.16 1959.27 L1605.16 1959.27 L1609.86 1959.27 L1609.86 1959.27 L1656.02 1959.27 L1656.02 1959.27 L1669.88 1959.27 L1669.88 1929.45 L1692.90 1929.45 L1692.90 1929.45 L1706.76 1929.45 L1706.76 1929.45 L1762.20 1929.45 L1762.20 1929.45 L1803.66 1929.45 L1803.66 1929.45 L1831.38 1929.45 L1831.38 1929.45 L1863.68 1929.45 L1863.68 1929.45 L1872.96 1929.45 L1872.96 1929.45 L1891.40 1929.45 L1891.40 1929.45 L1896.10 1929.45 L1896.10 1929.45 L1909.83 1929.45 L1909.83 1929.45 L1914.54 1929.45 L1914.54 1929.45 L1919.12 1929.45 L1919.12 1929.45 L1928.40 1929.45 L1928.40 1929.45 L1946.84 1929.45 L1946.84 1929.45 L1960.70 1929.45 L1960.70 1894.55 L1965.27 1894.55 L1965.27 1859.65 L2011.43 1859.65 L2011.43 1859.65 L2016.01 1859.65 L2016.01 1859.65 L2066.87 1859.65 L2066.87 1859.65 L2080.73 1859.65 L2080.73 1859.65 L2099.17 1859.65 L2099.17 1859.65 L2108.45 1859.65 L2108.45 1859.65 L2131.47 1859.65 L2131.47 1859.65 L2154.61 1859.65 L2154.61 1859.65 L2168.35 1859.65 L2168.35 1859.65 L2182.21 1859.65 L2182.21 1859.65 L2196.07 1859.65 L2196.07 1859.65 L2214.51 1859.65 L2214.51 1859.65 L2242.23 1859.65 L2242.23 1859.65 L2265.37 1859.65 L2265.37 1859.65 L2274.53 1859.65 L2274.53 1859.65 L2288.39 1859.65 L2288.39 1859.65 L2293.09 1859.65 L2293.09 1859.65 L2302.25 1859.65 L2302.25 1816.83 L2320.68 1816.83 L2320.68 1816.83 L2334.54 1816.83 L2334.54 1816.83 L2362.26 1816.83 L2362.26 1816.83 L2376.12 1816.83 L2376.12 1816.83 L2403.84 1816.83 L2403.84 1816.83 L2413.13 1816.83 L2413.13 1816.83 L2426.86 1816.83 L2426.86 1816.83 L2459.28 1816.83 L2459.28 1816.83 L2482.30 1816.83 L2482.30 1816.83 L2523.88 1816.83 L2523.88 1816.83 L2546.90 1816.83 L2546.90 1816.83 L2551.60 1816.83 L2551.60 1816.83 L2556.18 1816.83 L2556.18 1816.83 L2560.76 1816.83 L2560.76 1816.83 L2574.62 1816.83 L2574.62 1816.83 L2579.20 1816.83 L2579.20 1816.83 L2597.76 1816.83 L2597.76 1816.83 L2620.78 1816.83 L2620.78 1759.16 L2662.36 1759.16 L2662.36 1759.16 L2671.64 1759.16 L2671.64 1759.16 L2726.96 1759.16 L2726.96 1759.16 L2773.11 1759.16 L2773.11 1759.16 L2782.40 1759.16 L2782.40 1759.16 L2833.13 1759.16 L2833.13 1759.16 L2925.45 1759.16 L2925.45 1759.16 L2957.75 1759.16 L2957.75 1759.16 L2967.03 1759.16 L2967.03 1759.16 L2971.61 1759.16 L2971.61 1759.16 L2980.89 1759.16 L2980.89 1759.16 L2994.75 1759.16 L2994.75 1759.16 L3003.91 1759.16 L3003.91 1759.16 L3027.05 1759.16 L3027.05 1759.16 L3040.91 1759.16 L3040.91 1759.16 L3045.49 1759.16 L3045.49 1759.16 L3063.93 1759.16 L3063.93 1759.16 L3077.79 1759.16 L3077.79 1759.16 L3082.49 1759.16 L3082.49 1759.16 L3105.51 1759.16 L3105.51 1759.16 L3110.09 1759.16 L3110.09 1759.16 L3114.79 1759.16 L3114.79 1759.16 L3170.10 1759.16 L3170.10 1759.16 L3225.54 1759.16 L3225.54 1759.16 L3262.42 1759.16 L3262.42 1759.16 L3271.70 1759.16 L3271.70 1759.16 L3290.14 1759.16 L3290.14 1759.16 L3294.84 1759.16 L3294.84 1759.16 L3313.28 1759.16 L3313.28 1759.16 L3322.44 1759.16 L3322.44 1759.16 L3331.72 1759.16 L3331.72 1759.16 L3382.46 1759.16 L3382.46 1759.16 L3405.60 1759.16 L3405.60 1759.16 L3419.46 1759.16 L3419.46 1759.16 L3433.32 1759.16 L3433.32 1759.16 L3460.92 1759.16 L3460.92 1759.16 L3479.48 1759.16 L3479.48 1759.16 L3516.36 1759.16 L3516.36 1759.16 L3539.50 1759.16 L3539.50 1759.16 L3548.66 1759.16 L3548.66 1759.16 L3557.94 1759.16 L3557.94 1759.16 L3604.10 1759.16 L3604.10 1759.16 L3613.25 1759.16 L3613.25 1759.16 L3627.11 1759.16 L3627.11 1759.16 L3640.97 1759.16 L3640.97 1759.16 L3659.54 1759.16 L3659.54 1759.16" stroke-linejoin="round" style="fill:none;stroke:#1A476F;stroke-width:8.64"/>
	<path d=" M423.47 2030.43 L423.47 2030.43 L423.47 2030.43 L423.47 2030.43 L423.47 2030.43 L428.05 2030.43 L428.05 2030.43 L663.42 2030.43 L663.42 2030.43 L889.64 2030.43 L889.64 2030.43 L1083.56 2030.43 L1083.56 2030.43 L1235.89 2030.43 L1235.89 2030.43 L1355.93 2030.43 L1355.93 2030.43 L1462.11 2030.43 L1462.11 2030.43 L1739.06 2030.43 L1739.06 2030.43 L1951.41 2030.43 L1951.41 2030.43 L2043.73 2030.43 L2043.73 2030.43 L2246.93 2030.43 L2246.93 2030.43 L2491.58 2030.43 L2491.58 2030.43 L2542.32 2030.43 L2542.32 2030.43 L2768.54 2030.43 L2768.54 2030.43 L3045.49 2030.43 L3045.49 2030.43 L3114.79 2030.43 L3114.79 2030.43 L3414.76 2030.43 L3414.76 2030.43" stroke-linejoin="round" style="fill:none;stroke:#90353B;stroke-width:8.64"/>
	<path d=" M423.47 2030.43 L423.47 2030.43 L423.47 2030.43 L423.47 2030.43 L423.47 2030.43 L534.23 2030.43 L534.23 2030.43 L917.36 2030.43 L917.36 2030.43 L1055.84 2030.43 L1055.84 2030.43 L1175.87 2030.43 L1175.87 2030.43 L1231.31 2030.43 L1231.31 2030.43 L1596.00 2030.43 L1596.00 2030.43 L2293.09 2030.43 L2293.09 2030.43 L2329.97 2030.43 L2329.97 2030.43 L2634.64 2030.43 L2634.64 2030.43 L2777.82 2030.43 L2777.82 2030.43 L2934.73 2030.43 L2934.73 2030.43 L2976.31 2030.43 L2976.31 2030.43 L3174.81 2030.43 L3174.81 2030.43 L3317.86 2030.43 L3317.86 2030.43 L3460.92 2030.43 L3460.92 2030.43 L3516.36 2030.43 L3516.36 2030.43 L3590.24 2030.43 L3590.24 2030.43 L3636.39 2030.43 L3636.39 2030.43" stroke-linejoin="round" style="fill:none;stroke:#55752F;stroke-width:8.64"/>
	<line x1="360.11" y1="2093.67" x2="360.11" y2="275.35" style="stroke:#000000;stroke-width:5.76"/>
	<line x1="360.11" y1="2030.31" x2="320.14" y2="2030.31" style="stroke:#000000;stroke-width:5.76"/>
	<text x="300.09" y="2065.33" style="font-family:'Helvetica';font-size:99.99px;fill:#000000" text-anchor="end">0.00</text>
	<line x1="360.11" y1="1691.96" x2="320.14" y2="1691.96" style="stroke:#000000;stroke-width:5.76"/>
	<text x="300.09" y="1726.99" style="font-family:'Helvetica';font-size:99.99px;fill:#000000" text-anchor="end">0.10</text>
	<line x1="360.11" y1="1353.74" x2="320.14" y2="1353.74" style="stroke:#000000;stroke-width:5.76"/>
	<text x="300.09" y="1388.77" style="font-family:'Helvetica';font-size:99.99px;fill:#000000" text-anchor="end">0.20</text>
	<line x1="360.11" y1="1015.40" x2="320.14" y2="1015.40" style="stroke:#000000;stroke-width:5.76"/>
	<text x="300.09" y="1050.43" style="font-family:'Helvetica';font-size:99.99px;fill:#000000" text-anchor="end">0.30</text>
	<line x1="360.11" y1="677.06" x2="320.14" y2="677.06" style="stroke:#000000;stroke-width:5.76"/>
	<text x="300.09" y="712.09" style="font-family:'Helvetica';font-size:99.99px;fill:#000000" text-anchor="end">0.40</text>
	<line x1="360.11" y1="338.71" x2="320.14" y2="338.71" style="stroke:#000000;stroke-width:5.76"/>
	<text x="300.09" y="373.74" style="font-family:'Helvetica';font-size:99.99px;fill:#000000" text-anchor="end">0.50</text>
	<text x="190.71" y="1184.57" style="font-family:'Helvetica';font-size:99.99px;fill:#000000" transform="rotate(-90 190.71,1184.57)" text-anchor="middle">Cumulative mortality</text>
	<line x1="360.11" y1="2093.67" x2="3859.02" y2="2093.67" style="stroke:#000000;stroke-width:5.76"/>
	<line x1="423.47" y1="2093.67" x2="423.47" y2="2133.64" style="stroke:#000000;stroke-width:5.76"/>
	<text x="423.47" y="2223.62" style="font-family:'Helvetica';font-size:99.99px;fill:#000000" text-anchor="middle">0</text>
	<line x1="1266.58" y1="2093.67" x2="1266.58" y2="2133.64" style="stroke:#000000;stroke-width:5.76"/>
	<text x="1266.58" y="2223.62" style="font-family:'Helvetica';font-size:99.99px;fill:#000000" text-anchor="middle">.5</text>
	<line x1="2109.57" y1="2093.67" x2="2109.57" y2="2133.64" style="stroke:#000000;stroke-width:5.76"/>
	<text x="2109.57" y="2223.62" style="font-family:'Helvetica';font-size:99.99px;fill:#000000" text-anchor="middle">1</text>
	<line x1="2952.68" y1="2093.67" x2="2952.68" y2="2133.64" style="stroke:#000000;stroke-width:5.76"/>
	<text x="2952.68" y="2223.62" style="font-family:'Helvetica';font-size:99.99px;fill:#000000" text-anchor="middle">1.5</text>
	<line x1="3795.66" y1="2093.67" x2="3795.66" y2="2133.64" style="stroke:#000000;stroke-width:5.76"/>
	<text x="3795.66" y="2223.62" style="font-family:'Helvetica';font-size:99.99px;fill:#000000" text-anchor="middle">2</text>
	<text x="2109.57" y="2333.64" style="font-family:'Helvetica';font-size:99.99px;fill:#000000" text-anchor="middle">Follow-up (years)</text>
	<rect x="394.64" y="2418.27" width="3429.86" height="326.34" style="fill:#FFFFFF"/>
	<rect x="397.52" y="2421.15" width="3424.10" height="320.58" style="fill:none;stroke:#000000;stroke-width:5.76"/>
	<line x1="437.95" y1="2511.46" x2="663.18" y2="2511.46" style="stroke:#1A476F;stroke-width:8.64"/>
	<line x1="2235.05" y1="2511.46" x2="2460.40" y2="2511.46" style="stroke:#90353B;stroke-width:8.64"/>
	<line x1="437.95" y1="2651.43" x2="663.18" y2="2651.43" style="stroke:#55752F;stroke-width:8.64"/>
	<text x="699.31" y="2546.49" style="font-family:'Helvetica';font-size:99.99px;fill:#000000">covid_severity = SARS-CoV-2 without hospitalisation</text>
	<text x="2496.53" y="2546.49" style="font-family:'Helvetica';font-size:99.99px;fill:#000000">covid_severity = COVID-19 with hospitalisation</text>
	<text x="699.31" y="2686.46" style="font-family:'Helvetica';font-size:99.99px;fill:#000000">covid_severity = COVID-19 with critical care</text>
	<text x="2109.57" y="215.98" style="font-family:'Helvetica';font-size:139.96px;fill:#1E2D53" text-anchor="middle">Cumulative mortality after SARS-CoV-2 survival by covid_severity</text>
</svg>
