<?xml version="1.0" encoding="UTF-8" standalone="no"?>
<!-- This is a Stata 17.0 generated SVG file (http://www.stata.com) -->

<svg version="1.1" width="5.500in" height="4.000in" viewBox="0 0 3960 2880" xmlns="http://www.w3.org/2000/svg" xmlns:xlink="http://www.w3.org/1999/xlink">
	<desc>Stata Graph - Graph</desc>
	<rect x="0" y="0" width="3960" height="2880" style="fill:#EAF2F3;stroke:none"/>
	<rect x="0.00" y="0.00" width="3959.88" height="2880.00" style="fill:#EAF2F3"/>
	<rect x="2.88" y="2.88" width="3954.12" height="2874.24" style="fill:none;stroke:#EAF2F3;stroke-width:5.76"/>
	<rect x="335.12" y="275.35" width="3523.91" height="1958.28" style="fill:#FFFFFF"/>
	<rect x="337.99" y="278.23" width="3518.15" height="1952.52" style="fill:none;stroke:#FFFFFF;stroke-width:5.76"/>
	<line x1="335.12" y1="2170.27" x2="3859.02" y2="2170.27" style="stroke:#EAF2F3;stroke-width:8.64"/>
	<line x1="335.12" y1="1803.96" x2="3859.02" y2="1803.96" style="stroke:#EAF2F3;stroke-width:8.64"/>
	<line x1="335.12" y1="1437.65" x2="3859.02" y2="1437.65" style="stroke:#EAF2F3;stroke-width:8.64"/>
	<line x1="335.12" y1="1071.34" x2="3859.02" y2="1071.34" style="stroke:#EAF2F3;stroke-width:8.64"/>
	<line x1="335.12" y1="705.03" x2="3859.02" y2="705.03" style="stroke:#EAF2F3;stroke-width:8.64"/>
	<path d=" M398.48 2170.40 L398.48 2170.40 L398.48 2170.40 L403.18 2170.40 L403.18 2170.40 L426.32 2170.40 L426.32 2170.40 L431.02 2170.40 L431.02 2170.40 L496.11 2170.40 L496.11 2170.40 L510.10 2170.40 L510.10 2170.40 L537.94 2170.40 L537.94 2170.40 L621.72 2170.40 L621.72 2170.40 L640.28 2170.40 L640.28 2170.40 L658.85 2170.40 L658.85 2170.40 L668.25 2170.40 L668.25 2170.40 L742.62 2170.40 L742.62 2149.23 L844.97 2149.23 L844.97 2149.23 L854.25 2149.23 L854.25 2149.23 L868.23 2149.23 L868.23 2149.23 L872.81 2149.23 L872.81 2149.23 L933.32 2149.23 L933.32 2149.23 L951.89 2149.23 L951.89 2149.23 L965.87 2149.23 L965.87 2149.23 L993.71 2149.23 L993.71 2149.23 L1026.26 2149.23 L1026.26 2126.71 L1035.54 2126.71 L1035.54 2126.71 L1063.51 2126.71 L1063.51 2126.71 L1077.49 2126.71 L1077.49 2126.71 L1114.62 2126.71 L1114.62 2126.71 L1137.88 2126.71 L1137.88 2126.71 L1207.68 2126.71 L1207.68 2126.71 L1212.26 2126.71 L1212.26 2126.71 L1216.96 2126.71 L1216.96 2126.71 L1249.50 2126.71 L1249.50 2126.71 L1258.79 2126.71 L1258.79 2126.71 L1268.07 2126.71 L1268.07 2126.71 L1272.77 2126.71 L1272.77 2126.71 L1305.32 2126.71 L1305.32 2126.71 L1310.02 2126.71 L1310.02 2126.71 L1337.86 2126.71 L1337.86 2126.71 L1361.13 2126.71 L1361.13 2126.71 L1365.83 2126.71 L1365.83 2126.71 L1393.67 2126.71 L1393.67 2126.71 L1407.66 2126.71 L1407.66 2126.71 L1416.94 2126.71 L1416.94 2126.71 L1421.64 2126.71 L1421.64 2126.71 L1430.92 2126.71 L1430.92 2126.71 L1444.78 2126.71 L1444.78 2126.71 L1463.47 2126.71 L1463.47 2099.98 L1472.75 2099.98 L1472.75 2099.98 L1491.31 2099.98 L1491.31 2099.98 L1505.30 2099.98 L1505.30 2099.98 L1528.56 2099.98 L1528.56 2099.98 L1561.11 2099.98 L1561.11 2099.98 L1579.67 2099.98 L1579.67 2099.98 L1588.95 2099.98 L1588.95 2099.98 L1593.65 2099.98 L1593.65 2099.98 L1640.18 2099.98 L1640.18 2099.98 L1654.17 2099.98 L1654.17 2070.28 L1677.31 2070.28 L1677.31 2070.28 L1691.29 2070.28 L1691.29 2070.28 L1723.84 2070.28 L1723.84 2070.28 L1747.10 2070.28 L1747.10 2070.28 L1788.93 2070.28 L1788.93 2070.28 L1816.90 2070.28 L1816.90 2070.28 L1849.44 2070.28 L1849.44 2070.28 L1858.73 2070.28 L1858.73 2070.28 L1877.29 2070.28 L1877.29 2070.28 L1881.99 2070.28 L1881.99 2070.28 L1895.97 2070.28 L1895.97 2070.28 L1900.55 2070.28 L1900.55 2070.28 L1905.26 2070.28 L1905.26 2070.28 L1914.54 2070.28 L1914.54 2070.28 L1933.10 2070.28 L1933.10 2070.28 L1937.80 2070.28 L1937.80 2070.28 L1947.08 2070.28 L1947.08 2035.63 L1951.79 2035.63 L1951.79 2001.10 L1998.19 2001.10 L1998.19 2001.10 L2002.89 2001.10 L2002.89 2001.10 L2030.74 2001.10 L2030.74 2001.10 L2054.00 2001.10 L2054.00 2001.10 L2067.99 2001.10 L2067.99 2001.10 L2095.95 2001.10 L2095.95 2001.10 L2119.09 2001.10 L2119.09 2001.10 L2142.36 2001.10 L2142.36 2001.10 L2170.33 2001.10 L2170.33 2001.10 L2184.31 2001.10 L2184.31 2001.10 L2202.87 2001.10 L2202.87 2001.10 L2230.72 2001.10 L2230.72 2001.10 L2235.42 2001.10 L2235.42 2001.10 L2253.98 2001.10 L2253.98 2001.10 L2263.26 2001.10 L2263.26 2001.10 L2277.25 2001.10 L2277.25 2001.10 L2281.95 2001.10 L2281.95 2001.10 L2291.23 2001.10 L2291.23 1958.90 L2309.79 1958.90 L2309.79 1958.90 L2319.07 1958.90 L2319.07 1958.90 L2323.78 1958.90 L2323.78 1958.90 L2351.62 1958.90 L2351.62 1958.90 L2365.61 1958.90 L2365.61 1958.90 L2393.57 1958.90 L2393.57 1958.90 L2402.85 1958.90 L2402.85 1958.90 L2416.84 1958.90 L2416.84 1958.90 L2472.65 1958.90 L2472.65 1958.90 L2481.93 1958.90 L2481.93 1958.90 L2514.48 1958.90 L2514.48 1958.90 L2533.04 1958.90 L2533.04 1958.90 L2537.74 1958.90 L2537.74 1958.90 L2547.02 1958.90 L2547.02 1958.90 L2551.60 1958.90 L2551.60 1958.90 L2565.59 1958.90 L2565.59 1958.90 L2570.29 1958.90 L2570.29 1958.90 L2588.85 1958.90 L2588.85 1958.90 L2612.11 1958.90 L2612.11 1903.33 L2626.10 1903.33 L2626.10 1903.33 L2653.94 1903.33 L2653.94 1903.33 L2719.04 1903.33 L2719.04 1903.33 L2760.99 1903.33 L2760.99 1903.33 L2765.57 1903.33 L2765.57 1903.33 L2770.27 1903.33 L2770.27 1903.33 L2774.85 1903.33 L2774.85 1903.33 L2826.08 1903.33 L2826.08 1903.33 L2919.02 1903.33 L2919.02 1903.33 L2951.56 1903.33 L2951.56 1903.33 L2960.84 1903.33 L2960.84 1903.33 L2965.55 1903.33 L2965.55 1903.33 L2970.25 1903.33 L2970.25 1903.33 L2974.83 1903.33 L2974.83 1903.33 L2988.81 1903.33 L2988.81 1903.33 L2998.09 1903.33 L2998.09 1903.33 L3021.36 1903.33 L3021.36 1903.33 L3035.34 1903.33 L3035.34 1903.33 L3039.92 1903.33 L3039.92 1903.33 L3058.61 1903.33 L3058.61 1903.33 L3072.47 1903.33 L3072.47 1903.33 L3077.17 1903.33 L3077.17 1903.33 L3100.43 1903.33 L3100.43 1903.33 L3105.01 1903.33 L3105.01 1903.33 L3109.71 1903.33 L3109.71 1903.33 L3165.53 1903.33 L3165.53 1903.33 L3170.23 1903.33 L3170.23 1903.33 L3221.34 1903.33 L3221.34 1903.33 L3258.59 1903.33 L3258.59 1903.33 L3267.87 1903.33 L3267.87 1903.33 L3286.43 1903.33 L3286.43 1903.33 L3291.13 1903.33 L3291.13 1903.33 L3318.98 1903.33 L3318.98 1903.33 L3328.26 1903.33 L3328.26 1903.33 L3402.75 1903.33 L3402.75 1903.33 L3412.04 1903.33 L3412.04 1903.33 L3416.61 1903.33 L3416.61 1903.33 L3430.60 1903.33 L3430.60 1903.33 L3458.44 1903.33 L3458.44 1903.33 L3477.13 1903.33 L3477.13 1903.33 L3514.25 1903.33 L3514.25 1903.33 L3537.52 1903.33 L3537.52 1903.33 L3546.80 1903.33 L3546.80 1903.33 L3556.20 1903.33 L3556.20 1903.33 L3588.75 1903.33 L3588.75 1903.33 L3602.61 1903.33 L3602.61 1903.33 L3612.02 1903.33 L3612.02 1903.33 L3625.88 1903.33 L3625.88 1903.33 L3658.42 1903.33 L3658.42 1903.33" stroke-linejoin="round" style="fill:none;stroke:#1A476F;stroke-width:8.64"/>
	<path d=" M398.48 2170.40 L398.48 2170.40 L398.48 2170.40 L449.58 2170.40 L449.58 2170.40 L896.07 2170.40 L896.07 2170.40 L900.78 2170.40 L900.78 2170.40 L923.92 2170.40 L923.92 2170.40 L1035.54 2170.40 L1035.54 2170.40 L1156.44 2170.40 L1156.44 2170.40 L1268.07 2170.40 L1268.07 2170.40 L1877.29 2170.40 L1877.29 2170.40 L2086.55 2170.40 L2086.55 2170.40 L2156.34 2170.40 L2156.34 2170.40 L2449.38 2170.40 L2449.38 2170.40 L2542.32 2170.40 L2542.32 2170.40 L2565.59 2170.40 L2565.59 2170.40 L2663.22 2170.40 L2663.22 2170.40 L2928.30 2170.40 L2928.30 2170.40 L3039.92 2170.40 L3039.92 2170.40 L3309.69 2170.40 L3309.69 2170.40 L3314.27 2170.40 L3314.27 2170.40 L3379.49 2170.40 L3379.49 2170.40 L3635.28 2170.40 L3635.28 2170.40 L3639.86 2170.40 L3639.86 2170.40" stroke-linejoin="round" style="fill:none;stroke:#90353B;stroke-width:8.64"/>
	<line x1="335.12" y1="2233.63" x2="335.12" y2="275.35" style="stroke:#000000;stroke-width:5.76"/>
	<line x1="335.12" y1="2170.27" x2="295.14" y2="2170.27" style="stroke:#000000;stroke-width:5.76"/>
	<text x="275.22" y="2205.30" style="font-family:'Helvetica';font-size:99.99px;fill:#000000" text-anchor="end">0.00</text>
	<line x1="335.12" y1="1803.96" x2="295.14" y2="1803.96" style="stroke:#000000;stroke-width:5.76"/>
	<text x="275.22" y="1838.99" style="font-family:'Helvetica';font-size:99.99px;fill:#000000" text-anchor="end">0.10</text>
	<line x1="335.12" y1="1437.65" x2="295.14" y2="1437.65" style="stroke:#000000;stroke-width:5.76"/>
	<text x="275.22" y="1472.68" style="font-family:'Helvetica';font-size:99.99px;fill:#000000" text-anchor="end">0.20</text>
	<line x1="335.12" y1="1071.34" x2="295.14" y2="1071.34" style="stroke:#000000;stroke-width:5.76"/>
	<text x="275.22" y="1106.37" style="font-family:'Helvetica';font-size:99.99px;fill:#000000" text-anchor="end">0.30</text>
	<line x1="335.12" y1="705.03" x2="295.14" y2="705.03" style="stroke:#000000;stroke-width:5.76"/>
	<text x="275.22" y="740.05" style="font-family:'Helvetica';font-size:99.99px;fill:#000000" text-anchor="end">0.40</text>
	<line x1="335.12" y1="338.71" x2="295.14" y2="338.71" style="stroke:#000000;stroke-width:5.76"/>
	<text x="275.22" y="373.74" style="font-family:'Helvetica';font-size:99.99px;fill:#000000" text-anchor="end">0.50</text>
	<text x="190.71" y="1254.49" style="font-family:'Helvetica';font-size:99.99px;fill:#000000" transform="rotate(-90 190.71,1254.49)" text-anchor="middle">Cumulative mortality</text>
	<line x1="335.12" y1="2233.63" x2="3859.02" y2="2233.63" style="stroke:#000000;stroke-width:5.76"/>
	<line x1="398.48" y1="2233.63" x2="398.48" y2="2273.73" style="stroke:#000000;stroke-width:5.76"/>
	<text x="398.48" y="2363.59" style="font-family:'Helvetica';font-size:99.99px;fill:#000000" text-anchor="middle">0</text>
	<line x1="1247.77" y1="2233.63" x2="1247.77" y2="2273.73" style="stroke:#000000;stroke-width:5.76"/>
	<text x="1247.77" y="2363.59" style="font-family:'Helvetica';font-size:99.99px;fill:#000000" text-anchor="middle">.5</text>
	<line x1="2097.07" y1="2233.63" x2="2097.07" y2="2273.73" style="stroke:#000000;stroke-width:5.76"/>
	<text x="2097.07" y="2363.59" style="font-family:'Helvetica';font-size:99.99px;fill:#000000" text-anchor="middle">1</text>
	<line x1="2946.49" y1="2233.63" x2="2946.49" y2="2273.73" style="stroke:#000000;stroke-width:5.76"/>
	<text x="2946.49" y="2363.59" style="font-family:'Helvetica';font-size:99.99px;fill:#000000" text-anchor="middle">1.5</text>
	<line x1="3795.78" y1="2233.63" x2="3795.78" y2="2273.73" style="stroke:#000000;stroke-width:5.76"/>
	<text x="3795.78" y="2363.59" style="font-family:'Helvetica';font-size:99.99px;fill:#000000" text-anchor="middle">2</text>
	<text x="2097.07" y="2473.60" style="font-family:'Helvetica';font-size:99.99px;fill:#000000" text-anchor="middle">Follow-up (years)</text>
	<rect x="369.77" y="2558.24" width="3454.73" height="186.37" style="fill:#FFFFFF"/>
	<rect x="372.64" y="2561.12" width="3448.97" height="180.61" style="fill:none;stroke:#000000;stroke-width:5.76"/>
	<line x1="412.95" y1="2651.43" x2="616.03" y2="2651.43" style="stroke:#1A476F;stroke-width:8.64"/>
	<line x1="2173.92" y1="2651.43" x2="2376.99" y2="2651.43" style="stroke:#90353B;stroke-width:8.64"/>
	<text x="648.57" y="2686.46" style="font-family:'Helvetica';font-size:99.99px;fill:#000000">covid_krt = COVID-19 without kidney replacement therapy</text>
	<text x="2409.54" y="2686.46" style="font-family:'Helvetica';font-size:99.99px;fill:#000000">covid_krt = COVID-19 with kidney replacement therapy</text>
	<text x="2097.07" y="215.98" style="font-family:'Helvetica';font-size:139.96px;fill:#1E2D53" text-anchor="middle">Cumulative mortality after SARS-CoV-2 survival by covid_krt</text>
</svg>
