<?xml version="1.0" encoding="UTF-8" standalone="no"?>
<!-- This is a Stata 17.0 generated SVG file (http://www.stata.com) -->

<svg version="1.1" width="5.500in" height="4.000in" viewBox="0 0 3960 2880" xmlns="http://www.w3.org/2000/svg" xmlns:xlink="http://www.w3.org/1999/xlink">
	<desc>Stata Graph - Graph</desc>
	<rect x="0" y="0" width="3960" height="2880" style="fill:#EAF2F3;stroke:none"/>
	<rect x="0.00" y="0.00" width="3959.88" height="2880.00" style="fill:#EAF2F3"/>
	<rect x="2.88" y="2.88" width="3954.12" height="2874.24" style="fill:none;stroke:#EAF2F3;stroke-width:5.76"/>
	<rect x="343.41" y="275.35" width="3515.61" height="1678.35" style="fill:#FFFFFF"/>
	<rect x="346.29" y="278.23" width="3509.85" height="1672.59" style="fill:none;stroke:#FFFFFF;stroke-width:5.76"/>
	<line x1="343.41" y1="1890.34" x2="3859.02" y2="1890.34" style="stroke:#EAF2F3;stroke-width:8.64"/>
	<line x1="343.41" y1="1579.97" x2="3859.02" y2="1579.97" style="stroke:#EAF2F3;stroke-width:8.64"/>
	<line x1="343.41" y1="1269.71" x2="3859.02" y2="1269.71" style="stroke:#EAF2F3;stroke-width:8.64"/>
	<line x1="343.41" y1="959.34" x2="3859.02" y2="959.34" style="stroke:#EAF2F3;stroke-width:8.64"/>
	<line x1="343.41" y1="649.09" x2="3859.02" y2="649.09" style="stroke:#EAF2F3;stroke-width:8.64"/>
	<path d=" M406.77 1890.34 L406.77 1890.34 L406.77 1890.34 L406.77 1890.34 L406.77 1890.34 L406.77 1890.34 L406.77 1890.34 L406.77 1890.34 L406.77 1890.34 L406.77 1890.34 L406.77 1890.34 L1450.47 1890.34 L1450.47 1890.34 L1469.04 1890.34 L1469.04 1838.73 L1659.24 1838.73 L1659.24 1787.01 L1956.24 1787.01 L1956.24 1735.28 L2294.82 1735.28 L2294.82 1683.55 L2614.96 1683.55 L2614.96 1631.82 L2967.53 1631.82 L2967.53 1631.82 L2972.23 1631.82 L2972.23 1631.82 L2976.81 1631.82 L2976.81 1631.82 L2990.79 1631.82 L2990.79 1631.82 L3000.07 1631.82 L3000.07 1631.82 L3023.21 1631.82 L3023.21 1631.82 L3037.20 1631.82 L3037.20 1631.82 L3041.78 1631.82 L3041.78 1631.82 L3060.34 1631.82 L3060.34 1631.82 L3074.32 1631.82 L3074.32 1631.82 L3078.90 1631.82 L3078.90 1631.82 L3102.04 1631.82 L3102.04 1631.82 L3106.74 1631.82 L3106.74 1631.82 L3111.32 1631.82 L3111.32 1631.82 L3167.01 1631.82 L3167.01 1631.82 L3171.71 1631.82 L3171.71 1631.82 L3222.70 1631.82 L3222.70 1631.82 L3259.82 1631.82 L3259.82 1631.82 L3269.10 1631.82 L3269.10 1631.82 L3287.67 1631.82 L3287.67 1631.82 L3292.25 1631.82 L3292.25 1631.82 L3310.81 1631.82 L3310.81 1631.82 L3315.51 1631.82 L3315.51 1631.82 L3320.09 1631.82 L3320.09 1631.82 L3329.37 1631.82 L3329.37 1631.82 L3380.48 1631.82 L3380.48 1631.82 L3403.62 1631.82 L3403.62 1631.82 L3412.90 1631.82 L3412.90 1631.82 L3417.60 1631.82 L3417.60 1631.82 L3431.46 1631.82 L3431.46 1631.82 L3459.31 1631.82 L3459.31 1631.82 L3477.87 1631.82 L3477.87 1631.82 L3515.00 1631.82 L3515.00 1631.82 L3538.14 1631.82 L3538.14 1631.82 L3547.42 1631.82 L3547.42 1631.82 L3556.70 1631.82 L3556.70 1631.82 L3589.25 1631.82 L3589.25 1631.82 L3603.11 1631.82 L3603.11 1631.82 L3612.39 1631.82 L3612.39 1631.82 L3626.37 1631.82 L3626.37 1631.82 L3635.65 1631.82 L3635.65 1631.82 L3640.23 1631.82 L3640.23 1631.82 L3658.79 1631.82 L3658.79 1631.82" stroke-linejoin="round" style="fill:none;stroke:#1A476F;stroke-width:8.64"/>
	<path d=" M406.77 1890.34 L406.77 1890.34 L406.77 1890.34 L406.77 1890.34 L406.77 1890.34 L406.77 1890.34 L406.77 1890.34 L406.77 1890.34 L406.77 1890.34 L406.77 1890.34 L406.77 1890.34 L1951.54 1890.34 L1951.54 1608.31 L2721.63 1608.31 L2721.63 1608.31 L2763.46 1608.31 L2763.46 1608.31 L2768.04 1608.31 L2768.04 1608.31 L2772.74 1608.31 L2772.74 1608.31 L2777.32 1608.31 L2777.32 1608.31 L2828.43 1608.31 L2828.43 1608.31 L2921.12 1608.31 L2921.12 1608.31 L2930.40 1608.31 L2930.40 1608.31 L2953.67 1608.31 L2953.67 1608.31 L2962.95 1608.31 L2962.95 1608.31" stroke-linejoin="round" style="fill:none;stroke:#90353B;stroke-width:8.64"/>
	<path d=" M406.77 1890.34 L406.77 1890.34 L406.77 1890.34 L406.77 1890.34 L406.77 1890.34 L406.77 1890.34 L406.77 1890.34 L406.77 1890.34 L406.77 1890.34 L406.77 1890.34 L406.77 1890.34 L750.05 1890.34 L750.05 1796.41 L2257.82 1796.41 L2257.82 1796.41 L2266.98 1796.41 L2266.98 1796.41 L2280.96 1796.41 L2280.96 1796.41 L2285.54 1796.41 L2285.54 1796.41 L2313.38 1796.41 L2313.38 1796.41 L2322.66 1796.41 L2322.66 1796.41 L2327.37 1796.41 L2327.37 1796.41 L2355.21 1796.41 L2355.21 1796.41 L2369.07 1796.41 L2369.07 1796.41 L2396.91 1796.41 L2396.91 1796.41 L2406.20 1796.41 L2406.20 1796.41 L2420.18 1796.41 L2420.18 1796.41 L2452.60 1796.41 L2452.60 1796.41 L2475.74 1796.41 L2475.74 1796.41 L2485.02 1796.41 L2485.02 1796.41 L2517.57 1796.41 L2517.57 1796.41 L2536.13 1796.41 L2536.13 1796.41 L2540.71 1796.41 L2540.71 1796.41 L2545.41 1796.41 L2545.41 1796.41 L2549.99 1796.41 L2549.99 1796.41 L2554.70 1796.41 L2554.70 1796.41 L2568.55 1796.41 L2568.55 1796.41 L2573.26 1796.41 L2573.26 1796.41 L2591.82 1796.41 L2591.82 1796.41 L2614.96 1796.41 L2614.96 1796.41 L2628.95 1796.41 L2628.95 1796.41 L2656.79 1796.41 L2656.79 1796.41 L2666.07 1796.41 L2666.07 1796.41" stroke-linejoin="round" style="fill:none;stroke:#55752F;stroke-width:8.64"/>
	<path d=" M406.77 1890.34 L406.77 1890.34 L406.77 1890.34 L406.77 1890.34 L406.77 1890.34 L406.77 1890.34 L406.77 1890.34 L406.77 1890.34 L406.77 1890.34 L406.77 1890.34 L406.77 1890.34 L1598.97 1890.34 L1598.97 1890.34 L1854.15 1890.34 L1854.15 1890.34 L1863.43 1890.34 L1863.43 1890.34 L1881.99 1890.34 L1881.99 1890.34 L1886.57 1890.34 L1886.57 1890.34 L1900.55 1890.34 L1900.55 1890.34 L1905.13 1890.34 L1905.13 1890.34 L1909.83 1890.34 L1909.83 1890.34 L1919.12 1890.34 L1919.12 1890.34 L1937.68 1890.34 L1937.68 1890.34 L1942.26 1890.34 L1942.26 1890.34 L2002.65 1890.34 L2002.65 1890.34 L2007.23 1890.34 L2007.23 1890.34 L2035.07 1890.34 L2035.07 1890.34 L2058.21 1890.34 L2058.21 1890.34 L2072.19 1890.34 L2072.19 1890.34 L2090.76 1890.34 L2090.76 1890.34 L2100.04 1890.34 L2100.04 1890.34 L2123.18 1890.34 L2123.18 1890.34 L2146.44 1890.34 L2146.44 1890.34 L2160.30 1890.34 L2160.30 1890.34 L2174.29 1890.34 L2174.29 1890.34 L2188.15 1890.34 L2188.15 1890.34 L2206.71 1890.34 L2206.71 1890.34 L2234.55 1890.34 L2234.55 1890.34 L2239.26 1890.34 L2239.26 1890.34" stroke-linejoin="round" style="fill:none;stroke:#E37E00;stroke-width:8.64"/>
	<path d=" M406.77 1890.34 L406.77 1890.34 L406.77 1890.34 L406.77 1890.34 L406.77 1890.34 L406.77 1890.34 L406.77 1890.34 L406.77 1890.34 L406.77 1890.34 L406.77 1890.34 L406.77 1890.34 L629.39 1890.34 L629.39 1890.34 L647.96 1890.34 L647.96 1890.34 L666.52 1890.34 L666.52 1890.34 L675.80 1890.34 L675.80 1890.34 L852.02 1890.34 L852.02 1890.34 L861.30 1890.34 L861.30 1890.34 L875.28 1890.34 L875.28 1890.34 L879.86 1890.34 L879.86 1890.34 L903.13 1890.34 L903.13 1890.34 L907.71 1890.34 L907.71 1890.34 L930.97 1890.34 L930.97 1890.34 L940.25 1890.34 L940.25 1890.34 L958.82 1890.34 L958.82 1890.34 L972.68 1890.34 L972.68 1890.34 L1000.52 1890.34 L1000.52 1890.34 L1033.07 1890.34 L1033.07 1824.38 L1042.22 1824.38 L1042.22 1824.38 L1070.07 1824.38 L1070.07 1824.38 L1084.05 1824.38 L1084.05 1824.38 L1121.18 1824.38 L1121.18 1824.38 L1144.32 1824.38 L1144.32 1824.38 L1162.88 1824.38 L1162.88 1824.38 L1213.99 1824.38 L1213.99 1824.38 L1218.57 1824.38 L1218.57 1824.38 L1223.27 1824.38 L1223.27 1824.38 L1255.69 1824.38 L1255.69 1824.38 L1264.97 1824.38 L1264.97 1824.38 L1274.25 1824.38 L1274.25 1824.38 L1278.83 1824.38 L1278.83 1824.38 L1311.38 1824.38 L1311.38 1824.38 L1315.96 1824.38 L1315.96 1824.38 L1343.80 1824.38 L1343.80 1824.38 L1367.07 1824.38 L1367.07 1824.38 L1371.65 1824.38 L1371.65 1824.38 L1399.49 1824.38 L1399.49 1824.38 L1413.47 1824.38 L1413.47 1824.38 L1422.75 1824.38 L1422.75 1824.38 L1427.33 1824.38 L1427.33 1824.38 L1436.61 1824.38 L1436.61 1824.38 L1478.32 1824.38 L1478.32 1824.38 L1496.88 1824.38 L1496.88 1824.38 L1510.86 1824.38 L1510.86 1824.38 L1534.01 1824.38 L1534.01 1824.38 L1566.55 1824.38 L1566.55 1824.38 L1585.11 1824.38 L1585.11 1824.38 L1594.40 1824.38 L1594.40 1824.38 L1598.97 1824.38 L1598.97 1824.38 L1645.38 1824.38 L1645.38 1824.38 L1682.51 1824.38 L1682.51 1824.38 L1696.37 1824.38 L1696.37 1824.38 L1728.91 1824.38 L1728.91 1824.38 L1752.05 1824.38 L1752.05 1824.38 L1793.88 1824.38 L1793.88 1824.38 L1821.72 1824.38 L1821.72 1824.38" stroke-linejoin="round" style="fill:none;stroke:#6E8E84;stroke-width:8.64"/>
	<path d=" M406.77 1890.34 L406.77 1890.34 L406.77 1890.34 L406.77 1890.34 L406.77 1890.34 L406.77 1890.34 L406.77 1890.34 L406.77 1890.34 L406.77 1890.34 L406.77 1890.34 L406.77 1890.34 L411.35 1890.34 L411.35 1890.34 L434.49 1890.34 L434.49 1890.34 L439.19 1890.34 L439.19 1890.34 L457.75 1890.34 L457.75 1890.34 L504.16 1890.34 L504.16 1890.34 L518.02 1890.34 L518.02 1890.34 L545.86 1890.34 L545.86 1890.34" stroke-linejoin="round" style="fill:none;stroke:#C10534;stroke-width:8.64"/>
	<line x1="343.41" y1="1953.70" x2="343.41" y2="275.35" style="stroke:#000000;stroke-width:5.76"/>
	<line x1="343.41" y1="1890.34" x2="303.44" y2="1890.34" style="stroke:#000000;stroke-width:5.76"/>
	<text x="283.39" y="1925.37" style="font-family:'Helvetica';font-size:99.99px;fill:#000000" text-anchor="end">0.00</text>
	<line x1="343.41" y1="1579.97" x2="303.44" y2="1579.97" style="stroke:#000000;stroke-width:5.76"/>
	<text x="283.39" y="1614.99" style="font-family:'Helvetica';font-size:99.99px;fill:#000000" text-anchor="end">0.10</text>
	<line x1="343.41" y1="1269.71" x2="303.44" y2="1269.71" style="stroke:#000000;stroke-width:5.76"/>
	<text x="283.39" y="1304.74" style="font-family:'Helvetica';font-size:99.99px;fill:#000000" text-anchor="end">0.20</text>
	<line x1="343.41" y1="959.34" x2="303.44" y2="959.34" style="stroke:#000000;stroke-width:5.76"/>
	<text x="283.39" y="994.37" style="font-family:'Helvetica';font-size:99.99px;fill:#000000" text-anchor="end">0.30</text>
	<line x1="343.41" y1="649.09" x2="303.44" y2="649.09" style="stroke:#000000;stroke-width:5.76"/>
	<text x="283.39" y="684.12" style="font-family:'Helvetica';font-size:99.99px;fill:#000000" text-anchor="end">0.40</text>
	<line x1="343.41" y1="338.71" x2="303.44" y2="338.71" style="stroke:#000000;stroke-width:5.76"/>
	<text x="283.39" y="373.74" style="font-family:'Helvetica';font-size:99.99px;fill:#000000" text-anchor="end">0.50</text>
	<text x="190.71" y="1114.53" style="font-family:'Helvetica';font-size:99.99px;fill:#000000" transform="rotate(-90 190.71,1114.53)" text-anchor="middle">Cumulative mortality</text>
	<line x1="343.41" y1="1953.70" x2="3859.02" y2="1953.70" style="stroke:#000000;stroke-width:5.76"/>
	<line x1="406.77" y1="1953.70" x2="406.77" y2="1993.67" style="stroke:#000000;stroke-width:5.76"/>
	<text x="406.77" y="2083.66" style="font-family:'Helvetica';font-size:99.99px;fill:#000000" text-anchor="middle">0</text>
	<line x1="1253.96" y1="1953.70" x2="1253.96" y2="1993.67" style="stroke:#000000;stroke-width:5.76"/>
	<text x="1253.96" y="2083.66" style="font-family:'Helvetica';font-size:99.99px;fill:#000000" text-anchor="middle">.5</text>
	<line x1="2101.28" y1="1953.70" x2="2101.28" y2="1993.67" style="stroke:#000000;stroke-width:5.76"/>
	<text x="2101.28" y="2083.66" style="font-family:'Helvetica';font-size:99.99px;fill:#000000" text-anchor="middle">1</text>
	<line x1="2948.47" y1="1953.70" x2="2948.47" y2="1993.67" style="stroke:#000000;stroke-width:5.76"/>
	<text x="2948.47" y="2083.66" style="font-family:'Helvetica';font-size:99.99px;fill:#000000" text-anchor="middle">1.5</text>
	<line x1="3795.66" y1="1953.70" x2="3795.66" y2="1993.67" style="stroke:#000000;stroke-width:5.76"/>
	<text x="3795.66" y="2083.66" style="font-family:'Helvetica';font-size:99.99px;fill:#000000" text-anchor="middle">2</text>
	<text x="2101.28" y="2193.67" style="font-family:'Helvetica';font-size:99.99px;fill:#000000" text-anchor="middle">Follow-up (years)</text>
	<rect x="377.93" y="2278.31" width="3446.56" height="466.30" style="fill:#FFFFFF"/>
	<rect x="380.81" y="2281.19" width="3440.80" height="460.54" style="fill:none;stroke:#000000;stroke-width:5.76"/>
	<line x1="421.12" y1="2371.50" x2="631.62" y2="2371.50" style="stroke:#1A476F;stroke-width:8.64"/>
	<line x1="2168.47" y1="2371.50" x2="2378.85" y2="2371.50" style="stroke:#90353B;stroke-width:8.64"/>
	<line x1="421.12" y1="2511.46" x2="631.62" y2="2511.46" style="stroke:#55752F;stroke-width:8.64"/>
	<line x1="2168.47" y1="2511.46" x2="2378.85" y2="2511.46" style="stroke:#E37E00;stroke-width:8.64"/>
	<line x1="421.12" y1="2651.43" x2="631.62" y2="2651.43" style="stroke:#6E8E84;stroke-width:8.64"/>
	<line x1="2168.47" y1="2651.43" x2="2378.85" y2="2651.43" style="stroke:#C10534;stroke-width:8.64"/>
	<text x="665.28" y="2406.52" style="font-family:'Helvetica';font-size:99.99px;fill:#000000">calendar_period = February 2020 to June 2020</text>
	<text x="2412.63" y="2406.52" style="font-family:'Helvetica';font-size:99.99px;fill:#000000">calendar_period = July 2020 to August 2020</text>
	<text x="665.28" y="2546.49" style="font-family:'Helvetica';font-size:99.99px;fill:#000000">calendar_period = September 2020 to November 2020</text>
	<text x="2412.63" y="2546.49" style="font-family:'Helvetica';font-size:99.99px;fill:#000000">calendar_period = December 2020 to February 2021</text>
	<text x="665.28" y="2686.46" style="font-family:'Helvetica';font-size:99.99px;fill:#000000">calendar_period = March 2021 to November 2021</text>
	<text x="2412.63" y="2686.46" style="font-family:'Helvetica';font-size:99.99px;fill:#000000">calendar_period = December 2021 to January 2022</text>
	<text x="2101.28" y="215.98" style="font-family:'Helvetica';font-size:139.96px;fill:#1E2D53" text-anchor="middle">Cumulative mortality after SARS-CoV-2 survival by calendar_period</text>
</svg>
